<svg width="1426" height="467" viewBox="0 0 1426 467" fill="none" xmlns="http://www.w3.org/2000/svg">
<path d="M3 297.98C24.3334 335.147 87.8001 400.58 171 364.98C192.833 355.48 245 342.58 279 366.98C303.667 379.814 345.8 414.08 317 448.48C306.167 461.98 275 479.48 237 441.48C225.333 423.98 212.5 380.98 254.5 348.98C276.5 328.647 350.6 311.08 471 403.48C513.833 438.814 617.9 495.88 691.5 441.48L754.5 367.48L811 334.98C875.167 358.314 1012.8 390.18 1050 330.98C1057.5 317.647 1064.2 286.08 1031 266.48C1016.67 261.98 991 259.88 1003 287.48C1019.33 319.147 1076 369.781 1172 318.981C1215.67 292.481 1285.8 208.581 1217 84.9808C1196.67 40.4808 1133.8 -33.9193 1045 24.4807C1026 44.314 1022.1 109.78 1158.5 212.98C1212.33 247.814 1340.9 312.381 1424.5 291.98" stroke="white" stroke-opacity="0.3" stroke-width="5"/>
</svg>
