<svg width="24" height="19" viewBox="0 0 24 19" fill="none" xmlns="http://www.w3.org/2000/svg">
<path d="M11.6818 4.9291L4.00032 11.3699V18.3214C4.00032 18.5013 4.07055 18.674 4.19556 18.8012C4.32058 18.9285 4.49013 19 4.66693 19L9.33574 18.9877C9.51196 18.9868 9.68066 18.9149 9.80495 18.7877C9.92925 18.6606 9.99902 18.4885 9.99902 18.3091V14.2495C9.99902 14.0695 10.0693 13.8969 10.1943 13.7696C10.3193 13.6423 10.4888 13.5708 10.6656 13.5708H13.3321C13.5089 13.5708 13.6784 13.6423 13.8035 13.7696C13.9285 13.8969 13.9987 14.0695 13.9987 14.2495V18.3061C13.9984 18.3954 14.0155 18.4839 14.0489 18.5664C14.0822 18.649 14.1313 18.7241 14.1932 18.7873C14.2551 18.8506 14.3287 18.9008 14.4097 18.935C14.4908 18.9692 14.5776 18.9869 14.6653 18.9869L19.3325 19C19.5093 19 19.6788 18.9285 19.8038 18.8012C19.9289 18.674 19.9991 18.5013 19.9991 18.3214V11.3652L12.3193 4.9291C12.229 4.85501 12.1165 4.81461 12.0005 4.81461C11.8846 4.81461 11.7721 4.85501 11.6818 4.9291ZM23.8155 9.3068L20.3324 6.38395V0.508985C20.3324 0.373994 20.2797 0.244532 20.186 0.149078C20.0922 0.0536252 19.965 0 19.8324 0H17.4993C17.3667 0 17.2395 0.0536252 17.1458 0.149078C17.052 0.244532 16.9993 0.373994 16.9993 0.508985V3.58877L13.2692 0.464449C12.9112 0.164563 12.462 0.000599477 11.9984 0.000599477C11.5349 0.000599477 11.0857 0.164563 10.7277 0.464449L0.181444 9.3068C0.130818 9.3494 0.0889323 9.40173 0.0581813 9.46082C0.0274303 9.5199 0.00841634 9.58458 0.00222573 9.65115C-0.00396488 9.71772 0.00278923 9.78487 0.0221021 9.84878C0.041415 9.91269 0.0729083 9.9721 0.114782 10.0236L1.1772 11.3385C1.21896 11.3902 1.27033 11.433 1.32835 11.4645C1.38638 11.4959 1.44994 11.5154 1.51538 11.5218C1.58082 11.5283 1.64686 11.5215 1.70973 11.5019C1.77259 11.4823 1.83104 11.4503 1.88173 11.4076L11.6818 3.19007C11.7721 3.11598 11.8846 3.07557 12.0005 3.07557C12.1165 3.07557 12.229 3.11598 12.3193 3.19007L22.1198 11.4076C22.1704 11.4503 22.2287 11.4823 22.2915 11.502C22.3543 11.5216 22.4202 11.5285 22.4856 11.5222C22.551 11.5159 22.6145 11.4966 22.6726 11.4653C22.7306 11.434 22.782 11.3913 22.8239 11.3398L23.8863 10.0249C23.9281 9.97308 23.9595 9.91336 23.9786 9.84917C23.9976 9.78498 24.0041 9.71758 23.9975 9.65085C23.9909 9.58412 23.9714 9.51937 23.9402 9.46033C23.909 9.40129 23.8666 9.34911 23.8155 9.3068Z" fill="white"/>
</svg>
