<svg width="126" height="72" viewBox="0 0 126 72" fill="none" xmlns="http://www.w3.org/2000/svg">
<path d="M2 70C16.509 55.4241 36.1273 42.7624 56.7069 39.2517C62.3031 38.297 89.531 33.5348 89.531 44.1368C89.531 49.2149 83.8661 48.3125 80.8781 46.7231C74.9959 43.5949 70.6125 40.588 66.5043 35.0848C60.1623 26.5903 53.1908 12.8807 62.4994 4.04898C66.5167 0.237358 74.2035 2.40544 77.9461 5.19844C81.6154 7.93679 84.0571 11.451 86.8134 15.0408C89.054 17.9585 88.4526 17.6624 90.1747 14.3943C94.4973 6.19146 108.254 0.429132 110.627 13.2448C111.959 20.4352 109.602 26.678 107.409 33.2888C106.585 35.7719 105.308 40.0886 103.547 42.0536C101.631 44.193 100.593 40.7814 101.259 38.9643C102.916 34.4468 105.153 32.4985 109.983 32.4985C114.352 32.4985 120.148 35.9113 120.424 40.9041C120.578 43.6741 121.275 42.9964 122.212 40.9041C122.939 39.2808 124 34.0951 124 35.8751C124 36.5022 123.965 41.6935 123.356 42.0536C121.188 43.3346 118.244 43.3585 115.919 44.1368" stroke="#FFAD0F" stroke-opacity="0.5" stroke-width="3" stroke-linecap="round"/>
</svg>
