<svg width="330" height="4710" viewBox="0 0 204 180" fill="none" xmlns="http://www.w3.org/2000/svg">
<path d="M196.25 178.09C184.46 178.09 184.46 177.61 172.67 177.61C160.88 177.61 160.88 178.28 149.09 178.28C137.3 178.28 137.3 177.73 125.51 177.73C113.72 177.73 113.72 177.61 101.93 177.61C90.14 177.61 90.14 177.42 78.35 177.42C66.56 177.42 66.56 177.52 54.76 177.52C42.96 177.52 42.97 177.6 31.17 177.6C19.37 177.6 19.38 178.38 7.58 178.38C4.2 178.38 1.54 175.16 1.54 171.77C1.54 160.04 1.15 160.04 1.15 148.31C1.15 136.58 1.09 136.58 1.09 124.85C1.09 113.12 1.06 113.12 1.06 101.38C1.06 89.64 1 89.65 1 77.92C1 66.19 1.1 66.19 1.1 54.45C1.1 42.71 1.57 42.72 1.57 30.98C1.57 19.24 1.48 19.25 1.48 7.51C1.48 4.13 4.19 1.83 7.57 1.83C19.36 1.83 19.36 1.18 31.15 1.18C42.94 1.18 42.94 1.22 54.73 1.22C66.52 1.22 66.52 1.59 78.31 1.59C90.1 1.59 90.1 1 101.89 1C113.68 1 113.68 1.74 125.47 1.74C137.26 1.74 137.26 1.74 149.06 1.74C160.86 1.74 160.85 1.56 172.65 1.56C184.45 1.56 184.44 1.2 196.24 1.2C199.62 1.2 202.43 4.13 202.43 7.52C202.43 19.25 201.97 19.25 201.97 30.98C201.97 42.71 202.79 42.71 202.79 54.44C202.79 66.17 202.37 66.17 202.37 77.91C202.37 89.65 202.06 89.64 202.06 101.37C202.06 113.1 202.17 113.1 202.17 124.84C202.17 136.58 202.41 136.57 202.41 148.31C202.41 160.05 202.78 160.04 202.78 171.78C202.78 175.16 199.62 178.09 196.23 178.09H196.25Z" stroke="#FFEFFC" stroke-width="2" stroke-miterlimit="10"/>
</svg>
