<svg width="246" height="183" viewBox="0 0 246 183" fill="none" xmlns="http://www.w3.org/2000/svg">
<path d="M37.7575 10.1659L29.7268 11.6054L28.2872 19.6347C28.2872 19.7003 28.2611 19.7632 28.2147 19.8096C28.1683 19.856 28.1054 19.8821 28.0397 19.8821C27.9741 19.8821 27.9112 19.856 27.8648 19.8096C27.8184 19.7632 27.7923 19.7003 27.7923 19.6347L26.3639 11.6054L18.322 10.1659C18.2563 10.1659 18.1934 10.1399 18.147 10.0935C18.1006 10.0471 18.0745 9.98416 18.0745 9.91854C18.0745 9.85293 18.1006 9.79 18.147 9.74361C18.1934 9.69721 18.2563 9.67114 18.322 9.67114L26.3639 8.23172L27.7923 0.247402C27.7923 0.181787 27.8184 0.11886 27.8648 0.072463C27.9112 0.0260663 27.9741 8.65449e-07 28.0397 8.71186e-07C28.1054 8.76923e-07 28.1683 0.0260663 28.2147 0.0724631C28.2611 0.11886 28.2872 0.181787 28.2872 0.247402L29.7268 8.2767L37.7575 9.71613C37.8006 9.73586 37.8371 9.76755 37.8627 9.80742C37.8882 9.84729 37.9018 9.89366 37.9018 9.94104C37.9018 9.98841 37.8882 10.0348 37.8627 10.0747C37.8371 10.1145 37.8006 10.1462 37.7575 10.1659Z" fill="black"/>
<path d="M3.7791 20.3448C3.78132 20.719 3.6724 21.0853 3.46613 21.3975C3.25986 21.7096 2.96553 21.9535 2.62046 22.0983C2.27539 22.243 1.89512 22.282 1.52784 22.2104C1.16056 22.1388 0.822822 21.9597 0.557436 21.696C0.292049 21.4322 0.110965 21.0956 0.0371397 20.7288C-0.0366858 20.362 7.1332e-05 19.9816 0.142752 19.6357C0.285432 19.2898 0.52761 18.9941 0.838586 18.786C1.14956 18.5779 1.51533 18.4668 1.88953 18.4668C2.13714 18.4653 2.3826 18.5128 2.61179 18.6065C2.84098 18.7003 3.04937 18.8384 3.22498 19.0129C3.40059 19.1874 3.53995 19.395 3.63505 19.6235C3.73015 19.8521 3.7791 20.0973 3.7791 20.3448Z" fill="black"/>
<path d="M21.1335 37.7057C21.1313 38.0766 21.0192 38.4386 20.8115 38.7459C20.6037 39.0533 20.3096 39.2922 19.9662 39.4327C19.6228 39.5731 19.2455 39.6087 18.8819 39.5349C18.5183 39.4612 18.1846 39.2815 17.9231 39.0184C17.6615 38.7553 17.4837 38.4207 17.4122 38.0567C17.3406 37.6927 17.3784 37.3157 17.5209 36.9732C17.6634 36.6307 17.9042 36.338 18.2128 36.1321C18.5215 35.9263 18.8842 35.8164 19.2552 35.8164C19.5028 35.8164 19.748 35.8653 19.9766 35.9604C20.2052 36.0555 20.4128 36.1948 20.5873 36.3704C20.7619 36.546 20.9 36.7544 20.9938 36.9835C21.0875 37.2127 21.135 37.4581 21.1335 37.7057Z" fill="black"/>
<path d="M227.179 162.946L234.457 161.649L235.759 154.397C235.77 154.347 235.797 154.302 235.838 154.269C235.878 154.237 235.928 154.219 235.98 154.219C236.032 154.219 236.082 154.237 236.122 154.269C236.162 154.302 236.19 154.347 236.201 154.397L237.502 161.649L244.781 162.946C244.831 162.957 244.877 162.984 244.909 163.024C244.942 163.065 244.96 163.115 244.96 163.166C244.96 163.218 244.942 163.268 244.909 163.308C244.877 163.348 244.831 163.376 244.781 163.386L237.502 164.683L236.201 171.935C236.19 171.985 236.162 172.031 236.122 172.063C236.082 172.096 236.032 172.113 235.98 172.113C235.928 172.113 235.878 172.096 235.838 172.063C235.797 172.031 235.77 171.985 235.759 171.935L234.457 164.683L227.179 163.386C227.128 163.376 227.083 163.348 227.05 163.308C227.018 163.268 227 163.218 227 163.166C227 163.115 227.018 163.065 227.05 163.024C227.083 162.984 227.128 162.957 227.179 162.946Z" fill="black"/>
<path d="M230.494 181.12C230.494 180.83 230.581 180.546 230.743 180.304C230.905 180.063 231.135 179.875 231.404 179.764C231.673 179.653 231.969 179.624 232.255 179.68C232.541 179.737 232.803 179.877 233.009 180.082C233.216 180.287 233.356 180.549 233.413 180.834C233.47 181.118 233.44 181.413 233.329 181.682C233.217 181.95 233.029 182.179 232.786 182.34C232.544 182.502 232.259 182.588 231.968 182.588C231.577 182.588 231.202 182.433 230.926 182.158C230.65 181.883 230.494 181.509 230.494 181.12Z" fill="black"/>
<path d="M242.291 147.846C242.291 147.556 242.378 147.272 242.539 147.031C242.701 146.79 242.931 146.601 243.201 146.49C243.47 146.379 243.766 146.35 244.052 146.407C244.338 146.463 244.6 146.603 244.806 146.808C245.012 147.014 245.153 147.275 245.209 147.56C245.266 147.845 245.237 148.14 245.126 148.408C245.014 148.676 244.825 148.906 244.583 149.067C244.341 149.228 244.056 149.314 243.764 149.314C243.374 149.314 242.999 149.16 242.723 148.884C242.446 148.609 242.291 148.236 242.291 147.846Z" fill="black"/>
</svg>
