<svg width="126" height="90" viewBox="0 0 126 90" fill="none" xmlns="http://www.w3.org/2000/svg">
<path d="M2 87.6138C16.509 69.2623 36.1273 53.321 56.7069 48.9009C62.3031 47.6989 89.531 41.7031 89.531 55.0513C89.531 61.4448 83.8661 60.3087 80.8781 58.3076C74.9959 54.3691 70.6125 50.5834 66.5043 43.6547C60.1623 32.9599 53.1908 15.6991 62.4994 4.57972C66.5167 -0.219214 74.2035 2.51046 77.946 6.02692C81.6154 9.47457 84.0571 13.8991 86.8134 18.4188C89.054 22.0922 88.4526 21.7194 90.1746 17.6047C94.4973 7.27716 108.254 0.0222359 110.627 16.1575C111.959 25.2104 109.602 33.0703 107.409 41.3934C106.585 44.5198 105.308 49.9545 103.547 52.4285C101.631 55.1221 100.593 50.8268 101.259 48.5391C102.916 42.8514 105.153 40.3984 109.983 40.3984C114.352 40.3984 120.148 44.6952 120.424 50.9812C120.578 54.4688 121.275 53.6155 122.212 50.9812C122.939 48.9375 124 42.4086 124 44.6497C124 45.4392 123.965 51.9752 123.356 52.4285C121.188 54.0414 118.244 54.0714 115.919 55.0513" stroke="#EF76B0" stroke-opacity="0.5" stroke-width="3" stroke-linecap="round"/>
</svg>
