<svg width="44" height="57" viewBox="0 0 44 57" fill="none" xmlns="http://www.w3.org/2000/svg">
<path d="M42.9555 14.5613L33.8192 16.6231L32.1814 28.1239C32.1814 28.2179 32.1517 28.308 32.0989 28.3745C32.0461 28.4409 31.9745 28.4783 31.8999 28.4783C31.8252 28.4783 31.7536 28.4409 31.7008 28.3745C31.648 28.308 31.6184 28.2179 31.6184 28.1239L29.9933 16.6231L20.8443 14.5613C20.7696 14.5613 20.698 14.5239 20.6452 14.4575C20.5924 14.391 20.5627 14.3009 20.5627 14.2069C20.5627 14.1129 20.5924 14.0228 20.6452 13.9563C20.698 13.8899 20.7696 13.8525 20.8443 13.8525L29.9933 11.7908L31.6184 0.354369C31.6184 0.260385 31.648 0.17025 31.7008 0.103793C31.7536 0.0373363 31.8252 1.23963e-06 31.8999 1.24785e-06C31.9745 1.25607e-06 32.0461 0.0373363 32.0989 0.103793C32.1517 0.17025 32.1814 0.260385 32.1814 0.354369L33.8192 11.8552L42.9555 13.917C43.0045 13.9452 43.046 13.9906 43.0751 14.0477C43.1042 14.1048 43.1197 14.1713 43.1197 14.2391C43.1197 14.307 43.1042 14.3734 43.0751 14.4305C43.046 14.4876 43.0045 14.533 42.9555 14.5613Z" fill="black"/>
<path d="M4.29937 29.1412C4.3019 29.6771 4.17798 30.2018 3.94332 30.649C3.70865 31.0961 3.3738 31.4455 2.98123 31.6527C2.58865 31.86 2.15602 31.9159 1.73818 31.8133C1.32034 31.7107 0.936101 31.4543 0.634179 31.0765C0.332256 30.6987 0.126242 30.2165 0.0422528 29.6912C-0.0417364 29.1658 8.11833e-05 28.6209 0.162404 28.1255C0.324728 27.6301 0.600247 27.2065 0.954036 26.9084C1.30782 26.6104 1.72395 26.4512 2.14967 26.4512C2.43136 26.4491 2.71062 26.5171 2.97136 26.6513C3.2321 26.7856 3.46918 26.9834 3.66897 27.2334C3.86875 27.4834 4.0273 27.7806 4.13549 28.1081C4.24368 28.4355 4.29937 28.7866 4.29937 29.1412Z" fill="black"/>
<path d="M24.0429 54.0088C24.0404 54.5401 23.9129 55.0586 23.6766 55.4989C23.4403 55.9391 23.1057 56.2814 22.715 56.4825C22.3243 56.6836 21.895 56.7346 21.4814 56.629C21.0677 56.5234 20.6881 56.2659 20.3905 55.8891C20.093 55.5123 19.8907 55.033 19.8093 54.5116C19.7279 53.9902 19.7709 53.4502 19.933 52.9596C20.0952 52.469 20.369 52.0499 20.7202 51.755C21.0713 51.4601 21.4839 51.3027 21.906 51.3027C22.1877 51.3027 22.4667 51.3728 22.7268 51.509C22.9869 51.6452 23.223 51.8448 23.4216 52.0963C23.6202 52.3478 23.7773 52.6462 23.884 52.9745C23.9906 53.3027 24.0446 53.6542 24.0429 54.0088Z" fill="black"/>
</svg>
