<svg width="220" height="229" viewBox="0 0 220 229" fill="none" xmlns="http://www.w3.org/2000/svg">
<line x1="9.56447" y1="144.286" x2="14.3176" y2="138.441" stroke="white"/>
<line x1="15.7435" y1="136.688" x2="20.4967" y2="130.844" stroke="white"/>
<line x1="21.9225" y1="129.092" x2="26.6756" y2="123.247" stroke="white"/>
<line x1="28.1013" y1="121.49" x2="32.8544" y2="115.645" stroke="white"/>
<line x1="34.2808" y1="113.895" x2="39.0339" y2="108.05" stroke="white"/>
<line x1="40.4599" y1="106.297" x2="45.213" y2="100.452" stroke="white"/>
<line x1="46.6388" y1="98.6963" x2="51.3919" y2="92.8513" stroke="white"/>
<line x1="52.8175" y1="91.0986" x2="57.5706" y2="85.2537" stroke="white"/>
<line x1="58.9965" y1="83.5009" x2="63.7496" y2="77.656" stroke="white"/>
<line x1="65.1754" y1="75.9033" x2="69.9285" y2="70.0584" stroke="white"/>
<line x1="71.3545" y1="68.3027" x2="76.1076" y2="62.4578" stroke="white"/>
<line x1="77.5337" y1="60.706" x2="82.2868" y2="54.8611" stroke="white"/>
<line x1="83.7127" y1="53.1084" x2="88.4658" y2="47.2634" stroke="white"/>
<line x1="89.8916" y1="45.5088" x2="94.6447" y2="39.6638" stroke="white"/>
<line x1="96.0708" y1="37.9082" x2="100.824" y2="32.0633" stroke="white"/>
<line x1="102.25" y1="30.3105" x2="107.003" y2="24.4656" stroke="white"/>
<line x1="108.429" y1="22.7119" x2="113.182" y2="16.867" stroke="white"/>
<line x1="114.608" y1="15.1123" x2="119.361" y2="9.26735" stroke="white"/>
<line x1="99.7671" y1="217.64" x2="104.52" y2="211.795" stroke="white"/>
<line x1="105.946" y1="210.042" x2="110.699" y2="204.197" stroke="white"/>
<line x1="112.125" y1="202.445" x2="116.878" y2="196.6" stroke="white"/>
<line x1="118.304" y1="194.844" x2="123.057" y2="188.999" stroke="white"/>
<line x1="124.483" y1="187.247" x2="129.237" y2="181.402" stroke="white"/>
<line x1="130.662" y1="179.65" x2="135.415" y2="173.805" stroke="white"/>
<line x1="136.841" y1="172.05" x2="141.594" y2="166.205" stroke="white"/>
<line x1="143.02" y1="164.451" x2="147.773" y2="158.606" stroke="white"/>
<line x1="149.199" y1="156.854" x2="153.952" y2="151.01" stroke="white"/>
<line x1="155.378" y1="149.257" x2="160.131" y2="143.412" stroke="white"/>
<line x1="161.557" y1="141.655" x2="166.31" y2="135.81" stroke="white"/>
<line x1="167.736" y1="134.06" x2="172.49" y2="128.215" stroke="white"/>
<line x1="173.915" y1="126.462" x2="178.668" y2="120.617" stroke="white"/>
<line x1="180.094" y1="118.862" x2="184.847" y2="113.017" stroke="white"/>
<line x1="186.274" y1="111.262" x2="191.027" y2="105.417" stroke="white"/>
<line x1="192.453" y1="103.665" x2="197.206" y2="97.8201" stroke="white"/>
<line x1="198.632" y1="96.0664" x2="203.385" y2="90.2215" stroke="white"/>
<line x1="204.81" y1="88.4658" x2="209.564" y2="82.6209" stroke="white"/>
<path d="M219.303 79.8295L210.829 73L204 81.4733L212.473 88.3028L219.303 79.8295Z" stroke="white"/>
<path d="M106.303 219.829L97.8295 213L91 221.473L99.4733 228.303L106.303 219.829Z" stroke="white"/>
<g clip-path="url(#clip0_413_3298)">
<path d="M127.94 7.46719L119.467 0.637695L112.638 9.11102L121.111 15.9405L127.94 7.46719Z" stroke="white"/>
</g>
<g clip-path="url(#clip1_413_3298)">
<path d="M15.9308 146.42L7.41992 139.638L0.637284 148.149L9.14817 154.931L15.9308 146.42Z" stroke="white"/>
</g>
<line x1="122.122" y1="7.49497" x2="127.966" y2="12.2496" stroke="white"/>
<line x1="129.716" y1="13.6766" x2="135.56" y2="18.4312" stroke="white"/>
<line x1="137.312" y1="19.8573" x2="143.156" y2="24.6119" stroke="white"/>
<line x1="144.91" y1="26.0389" x2="150.754" y2="30.7935" stroke="white"/>
<line x1="152.506" y1="32.2215" x2="158.35" y2="36.9761" stroke="white"/>
<line x1="160.102" y1="38.4022" x2="165.946" y2="43.1568" stroke="white"/>
<line x1="167.698" y1="44.5829" x2="173.542" y2="49.3375" stroke="white"/>
<line x1="175.298" y1="50.7635" x2="181.141" y2="55.5181" stroke="white"/>
<line x1="182.892" y1="56.9452" x2="188.736" y2="61.6998" stroke="white"/>
<line x1="190.488" y1="63.1258" x2="196.332" y2="67.8804" stroke="white"/>
<line x1="198.087" y1="69.3065" x2="203.93" y2="74.0611" stroke="white"/>
<line x1="205.686" y1="75.4881" x2="211.53" y2="80.2427" stroke="white"/>
<line x1="8.41285" y1="147.249" x2="14.2565" y2="152.003" stroke="white"/>
<line x1="16.0072" y1="153.431" x2="21.8509" y2="158.185" stroke="white"/>
<line x1="23.6033" y1="159.611" x2="29.447" y2="164.366" stroke="white"/>
<line x1="31.2013" y1="165.793" x2="37.045" y2="170.547" stroke="white"/>
<line x1="38.7983" y1="171.973" x2="44.642" y2="176.728" stroke="white"/>
<line x1="46.3943" y1="178.154" x2="52.238" y2="182.909" stroke="white"/>
<line x1="53.9902" y1="184.335" x2="59.8339" y2="189.089" stroke="white"/>
<line x1="61.59" y1="190.515" x2="67.4337" y2="195.27" stroke="white"/>
<line x1="69.1843" y1="196.697" x2="75.028" y2="201.452" stroke="white"/>
<line x1="76.7804" y1="202.878" x2="82.6241" y2="207.632" stroke="white"/>
<line x1="84.3788" y1="209.058" x2="90.2225" y2="213.813" stroke="white"/>
<line x1="91.9769" y1="215.241" x2="97.8206" y2="219.996" stroke="white"/>
<defs>
<clipPath id="clip0_413_3298">
<rect width="11.7899" height="11.7899" fill="white" transform="translate(119.399) rotate(38.8688)"/>
</clipPath>
<clipPath id="clip1_413_3298">
<rect width="11.7899" height="11.7899" fill="white" transform="translate(7.3479 139) rotate(38.5526)"/>
</clipPath>
</defs>
</svg>
