<svg width="51" height="52" viewBox="0 0 51 52" fill="none" xmlns="http://www.w3.org/2000/svg">
<g clip-path="url(#clip0_156_1521)">
<path d="M25.6699 0.75C24.581 3.59187 24.9443 6.22663 25.0499 9.22687C25.187 13.1226 25.3035 16.9939 25.5818 20.8828" stroke="#EF76B0" stroke-opacity="0.4" stroke-width="2" stroke-linecap="round"/>
<path d="M25.3559 27.8594C24.5586 31.7625 24.9172 35.5669 25.2493 39.5131C25.5647 43.2608 26.0072 46.9944 26.4425 50.7289" stroke="#EF76B0" stroke-opacity="0.4" stroke-width="2" stroke-linecap="round"/>
<path d="M1.1377 28.7751C3.58361 27.6686 5.88942 27.6237 8.52187 27.4421C12.5047 27.1673 16.3416 26.6442 20.2557 25.8691" stroke="#EF76B0" stroke-opacity="0.4" stroke-width="2" stroke-linecap="round"/>
<path d="M29.1152 24.7231C35.8783 24.2828 42.535 23.1412 49.2415 22.1953" stroke="#EF76B0" stroke-opacity="0.4" stroke-width="2" stroke-linecap="round"/>
<path d="M30.377 21.3674L32.5446 17.3691" stroke="#EF76B0" stroke-opacity="0.4" stroke-width="2" stroke-linecap="round"/>
<path d="M20.4512 31.0469L17.8191 33.6914" stroke="#EF76B0" stroke-opacity="0.4" stroke-width="2" stroke-linecap="round"/>
<path d="M32.374 30.0078L34.9908 31.8023" stroke="#EF76B0" stroke-opacity="0.4" stroke-width="2" stroke-linecap="round"/>
<path d="M19.5844 19.0211C16.749 18.1487 14.2261 16.8673 11.533 15.6367" stroke="#EF76B0" stroke-opacity="0.4" stroke-width="2" stroke-linecap="round"/>
</g>
<defs>
<clipPath id="clip0_156_1521">
<rect width="49.733" height="51.7964" fill="white" transform="translate(0.450195)"/>
</clipPath>
</defs>
</svg>
