<svg width="257" height="88" viewBox="0 0 257 88" fill="none" xmlns="http://www.w3.org/2000/svg">
<path d="M2.18677 86.4486C14.6507 69.7234 25.2622 61.5394 44.0846 58.65C61.0825 56.0406 80.8605 61.6506 97.5901 65.2591C118.303 69.7267 157.432 68.4714 164.596 39.124C170.157 16.3367 153.2 -6.02726 133.575 5.07522C126.009 9.35543 123.797 22.6987 128.648 30.6345C133.887 39.2058 145.97 41.3602 154.18 41.8889C176.229 43.309 186.777 17.1087 205.304 9.05662C222.613 1.53382 237.335 8.19717 252.825 18.1234C254.152 18.9736 252.451 11.8418 252.174 10.0273C251.159 3.37555 252.742 6.09346 253.509 11.1228C254.003 14.3574 256.503 20.9343 252.507 19.8659C249.624 19.095 243.944 19.9611 240.935 20.5836" stroke="#EF76B0" stroke-opacity="0.4" stroke-width="3" stroke-linecap="round"/>
</svg>
