<svg width="271" height="51" viewBox="0 0 271 51" fill="none" xmlns="http://www.w3.org/2000/svg">
<path d="M15.7592 0L16.1205 14.9127C16.2551 20.4677 20.1757 24.9349 25.0509 25.0882L32 25.4999L25.0509 25.9116C20.1757 26.0652 16.2551 30.5322 16.1205 36.0871L15.7592 51L15.3977 36.0871C15.2631 30.5322 11.3427 26.0652 6.46732 25.9116L0 25.4999L6.46732 25.0882C11.3427 24.9349 15.2631 20.4677 15.3977 14.9127L15.7592 0Z" fill="white"/>
<path d="M254.759 0L255.121 14.9127C255.255 20.4677 259.176 24.9349 264.051 25.0882L271 25.4999L264.051 25.9116C259.176 26.0652 255.255 30.5322 255.121 36.0871L254.759 51L254.398 36.0871C254.263 30.5322 250.343 26.0652 245.467 25.9116L239 25.4999L245.467 25.0882C250.343 24.9349 254.263 20.4677 254.398 14.9127L254.759 0Z" fill="white"/>
</svg>
