<svg width="180" height="180" viewBox="0 0 180 180" fill="none" xmlns="http://www.w3.org/2000/svg">
<path d="M53.8259 43.6637C51.0215 47.1994 48.7036 51.095 46.9342 55.2464C44.6608 59.673 42.7502 64.2766 41.2211 69.0121C39.0039 76.5708 38.7643 84.5634 38.9327 92.4373C38.9448 95.8692 39.2219 99.295 39.7616 102.684C41.1927 110.596 45.0308 117.874 50.7519 123.523C51.7836 124.565 52.915 125.503 54.13 126.323C61.1754 130.944 71.8462 128.512 76.2015 121.302C77.1342 119.645 77.915 117.908 78.5342 116.111C84.7412 99.7173 91.0218 82.9752 91.7581 65.4608C91.9332 61.2402 91.7574 56.8784 90.0296 53.0242C88.9124 50.7669 87.5392 48.6455 85.9372 46.702C82.5213 42.2206 77.4609 35.0273 71.1811 35.0399C64.7488 35.0558 57.951 38.9151 53.8259 43.6637Z" fill="#19FFE8" stroke="white" stroke-width="19" stroke-linecap="round" stroke-linejoin="round"/>
<path d="M109.531 52.8276C106.727 56.364 104.409 60.2599 102.639 64.4115C100.366 68.8383 98.4555 73.4419 96.9259 78.1772C94.7088 85.7358 94.4694 93.7272 94.6376 101.602C94.6496 105.034 94.9268 108.46 95.4665 111.849C96.8968 119.763 100.736 127.043 106.458 132.693C107.49 133.735 108.621 134.673 109.836 135.493C116.882 140.115 127.553 137.683 131.908 130.473C132.84 128.817 133.621 127.079 134.24 125.282C140.447 108.889 146.728 92.1466 147.464 74.6321C147.64 70.4104 147.464 66.0498 145.743 62.1957C144.625 59.9391 143.251 57.8181 141.649 55.8745C138.233 51.3931 133.173 44.1998 126.894 44.2138C120.451 44.2217 113.654 48.0824 109.531 52.8276Z" fill="white" stroke="white" stroke-width="19" stroke-linecap="round" stroke-linejoin="round"/>
<path d="M53.8259 43.6637C51.0215 47.1994 48.7036 51.095 46.9342 55.2464C44.6608 59.673 42.7502 64.2766 41.2211 69.0121C39.0039 76.5708 38.7643 84.5634 38.9327 92.4373C38.9448 95.8692 39.2219 99.295 39.7616 102.684C41.1927 110.596 45.0308 117.874 50.7519 123.523C51.7836 124.565 52.915 125.503 54.13 126.323C61.1754 130.944 71.8462 128.512 76.2015 121.302C77.1342 119.645 77.915 117.908 78.5342 116.111C84.7412 99.7173 91.0218 82.9752 91.7581 65.4608C91.9332 61.2402 91.7574 56.8784 90.0296 53.0242C88.9124 50.7669 87.5392 48.6455 85.9372 46.702C82.5213 42.2206 77.4609 35.0273 71.1811 35.0399C64.7488 35.0558 57.951 38.9151 53.8259 43.6637Z" fill="white"/>
<path d="M53.8259 43.6637C51.0215 47.1994 48.7036 51.095 46.9342 55.2464C44.6608 59.673 42.7502 64.2766 41.2211 69.0121C39.0039 76.5708 38.7643 84.5634 38.9327 92.4373C38.9448 95.8692 39.2219 99.295 39.7616 102.684C41.1927 110.596 45.0308 117.874 50.7519 123.523C51.7836 124.565 52.915 125.503 54.13 126.323C61.1754 130.944 71.8462 128.512 76.2015 121.302C77.1342 119.645 77.915 117.908 78.5342 116.111C84.7412 99.7173 91.0218 82.9752 91.7581 65.4608C91.9332 61.2402 91.7574 56.8784 90.0296 53.0242C88.9124 50.7669 87.5392 48.6455 85.9372 46.702C82.5213 42.2206 77.4609 35.0273 71.1811 35.0399C64.7488 35.0558 57.951 38.9151 53.8259 43.6637Z" stroke="#EF76B0" stroke-width="3" stroke-linecap="round" stroke-linejoin="round"/>
<path d="M53.8259 43.6637C51.0215 47.1994 48.7036 51.095 46.9342 55.2464C44.6608 59.673 42.7502 64.2766 41.2211 69.0121C39.0039 76.5708 38.7643 84.5634 38.9327 92.4373C38.9448 95.8692 39.2219 99.295 39.7616 102.684C41.1927 110.596 45.0308 117.874 50.7519 123.523C51.7836 124.565 52.915 125.503 54.13 126.323C61.1754 130.944 71.8462 128.512 76.2015 121.302C77.1342 119.645 77.915 117.908 78.5342 116.111C84.7412 99.7173 91.0218 82.9752 91.7581 65.4608C91.9332 61.2402 91.7574 56.8784 90.0296 53.0242C88.9124 50.7669 87.5392 48.6455 85.9372 46.702C82.5213 42.2206 77.4609 35.0273 71.1811 35.0399C64.7488 35.0558 57.951 38.9151 53.8259 43.6637Z" stroke="black" stroke-opacity="0.2" stroke-width="3" stroke-linecap="round" stroke-linejoin="round"/>
<path d="M53.8259 43.6637C51.0215 47.1994 48.7036 51.095 46.9342 55.2464C44.6608 59.673 42.7502 64.2766 41.2211 69.0121C39.0039 76.5708 38.7643 84.5634 38.9327 92.4373C38.9448 95.8692 39.2219 99.295 39.7616 102.684C41.1927 110.596 45.0308 117.874 50.7519 123.523C51.7836 124.565 52.915 125.503 54.13 126.323C61.1754 130.944 71.8462 128.512 76.2015 121.302C77.1342 119.645 77.915 117.908 78.5342 116.111C84.7412 99.7173 91.0218 82.9752 91.7581 65.4608C91.9332 61.2402 91.7574 56.8784 90.0296 53.0242C88.9124 50.7669 87.5392 48.6455 85.9372 46.702C82.5213 42.2206 77.4609 35.0273 71.1811 35.0399C64.7488 35.0558 57.951 38.9151 53.8259 43.6637Z" stroke="black" stroke-opacity="0.2" stroke-width="3" stroke-linecap="round" stroke-linejoin="round"/>
<path d="M53.8259 43.6637C51.0215 47.1994 48.7036 51.095 46.9342 55.2464C44.6608 59.673 42.7502 64.2766 41.2211 69.0121C39.0039 76.5708 38.7643 84.5634 38.9327 92.4373C38.9448 95.8692 39.2219 99.295 39.7616 102.684C41.1927 110.596 45.0308 117.874 50.7519 123.523C51.7836 124.565 52.915 125.503 54.13 126.323C61.1754 130.944 71.8462 128.512 76.2015 121.302C77.1342 119.645 77.915 117.908 78.5342 116.111C84.7412 99.7173 91.0218 82.9752 91.7581 65.4608C91.9332 61.2402 91.7574 56.8784 90.0296 53.0242C88.9124 50.7669 87.5392 48.6455 85.9372 46.702C82.5213 42.2206 77.4609 35.0273 71.1811 35.0399C64.7488 35.0558 57.951 38.9151 53.8259 43.6637Z" stroke="black" stroke-opacity="0.2" stroke-width="3" stroke-linecap="round" stroke-linejoin="round"/>
<path d="M53.8259 43.6637C51.0215 47.1994 48.7036 51.095 46.9342 55.2464C44.6608 59.673 42.7502 64.2766 41.2211 69.0121C39.0039 76.5708 38.7643 84.5634 38.9327 92.4373C38.9448 95.8692 39.2219 99.295 39.7616 102.684C41.1927 110.596 45.0308 117.874 50.7519 123.523C51.7836 124.565 52.915 125.503 54.13 126.323C61.1754 130.944 71.8462 128.512 76.2015 121.302C77.1342 119.645 77.915 117.908 78.5342 116.111C84.7412 99.7173 91.0218 82.9752 91.7581 65.4608C91.9332 61.2402 91.7574 56.8784 90.0296 53.0242C88.9124 50.7669 87.5392 48.6455 85.9372 46.702C82.5213 42.2206 77.4609 35.0273 71.1811 35.0399C64.7488 35.0558 57.951 38.9151 53.8259 43.6637Z" stroke="black" stroke-opacity="0.2" stroke-width="3" stroke-linecap="round" stroke-linejoin="round"/>
<path d="M53.8259 43.6637C51.0215 47.1994 48.7036 51.095 46.9342 55.2464C44.6608 59.673 42.7502 64.2766 41.2211 69.0121C39.0039 76.5708 38.7643 84.5634 38.9327 92.4373C38.9448 95.8692 39.2219 99.295 39.7616 102.684C41.1927 110.596 45.0308 117.874 50.7519 123.523C51.7836 124.565 52.915 125.503 54.13 126.323C61.1754 130.944 71.8462 128.512 76.2015 121.302C77.1342 119.645 77.915 117.908 78.5342 116.111C84.7412 99.7173 91.0218 82.9752 91.7581 65.4608C91.9332 61.2402 91.7574 56.8784 90.0296 53.0242C88.9124 50.7669 87.5392 48.6455 85.9372 46.702C82.5213 42.2206 77.4609 35.0273 71.1811 35.0399C64.7488 35.0558 57.951 38.9151 53.8259 43.6637Z" stroke="black" stroke-opacity="0.2" stroke-width="3" stroke-linecap="round" stroke-linejoin="round"/>
<path d="M53.8259 43.6637C51.0215 47.1994 48.7036 51.095 46.9342 55.2464C44.6608 59.673 42.7502 64.2766 41.2211 69.0121C39.0039 76.5708 38.7643 84.5634 38.9327 92.4373C38.9448 95.8692 39.2219 99.295 39.7616 102.684C41.1927 110.596 45.0308 117.874 50.7519 123.523C51.7836 124.565 52.915 125.503 54.13 126.323C61.1754 130.944 71.8462 128.512 76.2015 121.302C77.1342 119.645 77.915 117.908 78.5342 116.111C84.7412 99.7173 91.0218 82.9752 91.7581 65.4608C91.9332 61.2402 91.7574 56.8784 90.0296 53.0242C88.9124 50.7669 87.5392 48.6455 85.9372 46.702C82.5213 42.2206 77.4609 35.0273 71.1811 35.0399C64.7488 35.0558 57.951 38.9151 53.8259 43.6637Z" stroke="black" stroke-opacity="0.2" stroke-width="3" stroke-linecap="round" stroke-linejoin="round"/>
<path d="M39.9824 81.066C38.8618 85.8448 38.4947 91.4818 41.8613 95.0527C44.1586 97.4886 47.6437 98.3359 50.9432 98.8854C53.1017 99.3387 55.3183 99.4477 57.5108 99.2081C58.6069 99.0817 59.6665 98.7364 60.6267 98.1927C61.5868 97.649 62.4279 96.918 63.1002 96.043C64.6232 93.8534 64.5882 90.9555 64.2314 88.3124C63.3942 82.1395 60.079 73.5352 53.8004 70.9151C51.2667 69.8582 47.7665 70.2339 45.1997 70.9944C41.3472 72.1359 40.8084 77.5376 39.9824 81.066Z" stroke="#EF76B0" stroke-width="3" stroke-linecap="round" stroke-linejoin="round"/>
<path d="M39.9824 81.066C38.8618 85.8448 38.4947 91.4818 41.8613 95.0527C44.1586 97.4886 47.6437 98.3359 50.9432 98.8854C53.1017 99.3387 55.3183 99.4477 57.5108 99.2081C58.6069 99.0817 59.6665 98.7364 60.6267 98.1927C61.5868 97.649 62.4279 96.918 63.1002 96.043C64.6232 93.8534 64.5882 90.9555 64.2314 88.3124C63.3942 82.1395 60.079 73.5352 53.8004 70.9151C51.2667 69.8582 47.7665 70.2339 45.1997 70.9944C41.3472 72.1359 40.8084 77.5376 39.9824 81.066Z" stroke="black" stroke-opacity="0.2" stroke-width="3" stroke-linecap="round" stroke-linejoin="round"/>
<path d="M39.9824 81.066C38.8618 85.8448 38.4947 91.4818 41.8613 95.0527C44.1586 97.4886 47.6437 98.3359 50.9432 98.8854C53.1017 99.3387 55.3183 99.4477 57.5108 99.2081C58.6069 99.0817 59.6665 98.7364 60.6267 98.1927C61.5868 97.649 62.4279 96.918 63.1002 96.043C64.6232 93.8534 64.5882 90.9555 64.2314 88.3124C63.3942 82.1395 60.079 73.5352 53.8004 70.9151C51.2667 69.8582 47.7665 70.2339 45.1997 70.9944C41.3472 72.1359 40.8084 77.5376 39.9824 81.066Z" stroke="black" stroke-opacity="0.2" stroke-width="3" stroke-linecap="round" stroke-linejoin="round"/>
<path d="M39.9824 81.066C38.8618 85.8448 38.4947 91.4818 41.8613 95.0527C44.1586 97.4886 47.6437 98.3359 50.9432 98.8854C53.1017 99.3387 55.3183 99.4477 57.5108 99.2081C58.6069 99.0817 59.6665 98.7364 60.6267 98.1927C61.5868 97.649 62.4279 96.918 63.1002 96.043C64.6232 93.8534 64.5882 90.9555 64.2314 88.3124C63.3942 82.1395 60.079 73.5352 53.8004 70.9151C51.2667 69.8582 47.7665 70.2339 45.1997 70.9944C41.3472 72.1359 40.8084 77.5376 39.9824 81.066Z" stroke="black" stroke-opacity="0.2" stroke-width="3" stroke-linecap="round" stroke-linejoin="round"/>
<path d="M39.9824 81.066C38.8618 85.8448 38.4947 91.4818 41.8613 95.0527C44.1586 97.4886 47.6437 98.3359 50.9432 98.8854C53.1017 99.3387 55.3183 99.4477 57.5108 99.2081C58.6069 99.0817 59.6665 98.7364 60.6267 98.1927C61.5868 97.649 62.4279 96.918 63.1002 96.043C64.6232 93.8534 64.5882 90.9555 64.2314 88.3124C63.3942 82.1395 60.079 73.5352 53.8004 70.9151C51.2667 69.8582 47.7665 70.2339 45.1997 70.9944C41.3472 72.1359 40.8084 77.5376 39.9824 81.066Z" stroke="black" stroke-opacity="0.2" stroke-width="3" stroke-linecap="round" stroke-linejoin="round"/>
<path d="M39.9824 81.066C38.8618 85.8448 38.4947 91.4818 41.8613 95.0527C44.1586 97.4886 47.6437 98.3359 50.9432 98.8854C53.1017 99.3387 55.3183 99.4477 57.5108 99.2081C58.6069 99.0817 59.6665 98.7364 60.6267 98.1927C61.5868 97.649 62.4279 96.918 63.1002 96.043C64.6232 93.8534 64.5882 90.9555 64.2314 88.3124C63.3942 82.1395 60.079 73.5352 53.8004 70.9151C51.2667 69.8582 47.7665 70.2339 45.1997 70.9944C41.3472 72.1359 40.8084 77.5376 39.9824 81.066Z" stroke="black" stroke-opacity="0.2" stroke-width="3" stroke-linecap="round" stroke-linejoin="round"/>
<path d="M39.9824 81.066C38.8618 85.8448 38.4947 91.4818 41.8613 95.0527C44.1586 97.4886 47.6437 98.3359 50.9432 98.8854C53.1017 99.3387 55.3183 99.4477 57.5108 99.2081C58.6069 99.0817 59.6665 98.7364 60.6267 98.1927C61.5868 97.649 62.4279 96.918 63.1002 96.043C64.6232 93.8534 64.5882 90.9555 64.2314 88.3124C63.3942 82.1395 60.079 73.5352 53.8004 70.9151C51.2667 69.8582 47.7665 70.2339 45.1997 70.9944C41.3472 72.1359 40.8084 77.5376 39.9824 81.066Z" stroke="black" stroke-opacity="0.2" stroke-width="3" stroke-linecap="round" stroke-linejoin="round"/>
<path d="M44.558 82.7321C44.3519 84.9585 44.7024 87.2013 45.5779 89.2586C47.1483 92.939 50.9812 95.9857 54.9206 95.2781C56.0567 95.0375 57.1252 94.5478 58.049 93.8443C58.973 93.1408 59.7293 92.241 60.2634 91.2098C61.3166 89.1277 61.7023 86.7715 61.3679 84.4624C61.2639 83.3576 60.9359 82.2855 60.4042 81.3116C59.5054 79.9708 58.2838 78.8779 56.8516 78.1334C52.0028 75.2547 45.1831 76.0801 44.558 82.7321Z" stroke="#EF76B0" stroke-width="3" stroke-linecap="round" stroke-linejoin="round"/>
<path d="M44.558 82.7321C44.3519 84.9585 44.7024 87.2013 45.5779 89.2586C47.1483 92.939 50.9812 95.9857 54.9206 95.2781C56.0567 95.0375 57.1252 94.5478 58.049 93.8443C58.973 93.1408 59.7293 92.241 60.2634 91.2098C61.3166 89.1277 61.7023 86.7715 61.3679 84.4624C61.2639 83.3576 60.9359 82.2855 60.4042 81.3116C59.5054 79.9708 58.2838 78.8779 56.8516 78.1334C52.0028 75.2547 45.1831 76.0801 44.558 82.7321Z" stroke="black" stroke-opacity="0.2" stroke-width="3" stroke-linecap="round" stroke-linejoin="round"/>
<path d="M44.558 82.7321C44.3519 84.9585 44.7024 87.2013 45.5779 89.2586C47.1483 92.939 50.9812 95.9857 54.9206 95.2781C56.0567 95.0375 57.1252 94.5478 58.049 93.8443C58.973 93.1408 59.7293 92.241 60.2634 91.2098C61.3166 89.1277 61.7023 86.7715 61.3679 84.4624C61.2639 83.3576 60.9359 82.2855 60.4042 81.3116C59.5054 79.9708 58.2838 78.8779 56.8516 78.1334C52.0028 75.2547 45.1831 76.0801 44.558 82.7321Z" stroke="black" stroke-opacity="0.2" stroke-width="3" stroke-linecap="round" stroke-linejoin="round"/>
<path d="M44.558 82.7321C44.3519 84.9585 44.7024 87.2013 45.5779 89.2586C47.1483 92.939 50.9812 95.9857 54.9206 95.2781C56.0567 95.0375 57.1252 94.5478 58.049 93.8443C58.973 93.1408 59.7293 92.241 60.2634 91.2098C61.3166 89.1277 61.7023 86.7715 61.3679 84.4624C61.2639 83.3576 60.9359 82.2855 60.4042 81.3116C59.5054 79.9708 58.2838 78.8779 56.8516 78.1334C52.0028 75.2547 45.1831 76.0801 44.558 82.7321Z" stroke="black" stroke-opacity="0.2" stroke-width="3" stroke-linecap="round" stroke-linejoin="round"/>
<path d="M44.558 82.7321C44.3519 84.9585 44.7024 87.2013 45.5779 89.2586C47.1483 92.939 50.9812 95.9857 54.9206 95.2781C56.0567 95.0375 57.1252 94.5478 58.049 93.8443C58.973 93.1408 59.7293 92.241 60.2634 91.2098C61.3166 89.1277 61.7023 86.7715 61.3679 84.4624C61.2639 83.3576 60.9359 82.2855 60.4042 81.3116C59.5054 79.9708 58.2838 78.8779 56.8516 78.1334C52.0028 75.2547 45.1831 76.0801 44.558 82.7321Z" stroke="black" stroke-opacity="0.2" stroke-width="3" stroke-linecap="round" stroke-linejoin="round"/>
<path d="M44.558 82.7321C44.3519 84.9585 44.7024 87.2013 45.5779 89.2586C47.1483 92.939 50.9812 95.9857 54.9206 95.2781C56.0567 95.0375 57.1252 94.5478 58.049 93.8443C58.973 93.1408 59.7293 92.241 60.2634 91.2098C61.3166 89.1277 61.7023 86.7715 61.3679 84.4624C61.2639 83.3576 60.9359 82.2855 60.4042 81.3116C59.5054 79.9708 58.2838 78.8779 56.8516 78.1334C52.0028 75.2547 45.1831 76.0801 44.558 82.7321Z" stroke="black" stroke-opacity="0.2" stroke-width="3" stroke-linecap="round" stroke-linejoin="round"/>
<path d="M44.558 82.7321C44.3519 84.9585 44.7024 87.2013 45.5779 89.2586C47.1483 92.939 50.9812 95.9857 54.9206 95.2781C56.0567 95.0375 57.1252 94.5478 58.049 93.8443C58.973 93.1408 59.7293 92.241 60.2634 91.2098C61.3166 89.1277 61.7023 86.7715 61.3679 84.4624C61.2639 83.3576 60.9359 82.2855 60.4042 81.3116C59.5054 79.9708 58.2838 78.8779 56.8516 78.1334C52.0028 75.2547 45.1831 76.0801 44.558 82.7321Z" stroke="black" stroke-opacity="0.2" stroke-width="3" stroke-linecap="round" stroke-linejoin="round"/>
<path d="M49.5275 77.2768C48.3409 78.9513 47.4014 80.7879 46.7381 82.7301C47.7406 81.5527 48.6116 80.2694 49.3356 78.9028C49.2257 79.6062 48.9654 80.2778 48.5727 80.8717L45.5215 86.2775C47.639 83.6795 49.8752 81.1853 52.23 78.7949C49.9042 82.2129 47.3715 85.4853 44.646 88.594C47.0831 84.9964 50.6797 82.3719 54.2003 79.8263C51.4848 82.6918 48.9617 85.7335 46.6477 88.9319C49.8034 87.0635 52.8153 84.9622 55.6582 82.6454L48.5507 92.8311C50.4794 90.0108 53.1744 87.8009 56.3177 86.462L52.4546 92.4915C53.2429 92.323 53.9476 91.8845 54.4469 91.2516" stroke="#EF76B0" stroke-width="3" stroke-linecap="round" stroke-linejoin="round"/>
<path d="M49.5275 77.2768C48.3409 78.9513 47.4014 80.7879 46.7381 82.7301C47.7406 81.5527 48.6116 80.2694 49.3356 78.9028C49.2257 79.6062 48.9654 80.2778 48.5727 80.8717L45.5215 86.2775C47.639 83.6795 49.8752 81.1853 52.23 78.7949C49.9042 82.2129 47.3715 85.4853 44.646 88.594C47.0831 84.9964 50.6797 82.3719 54.2003 79.8263C51.4848 82.6918 48.9617 85.7335 46.6477 88.9319C49.8034 87.0635 52.8153 84.9622 55.6582 82.6454L48.5507 92.8311C50.4794 90.0108 53.1744 87.8009 56.3177 86.462L52.4546 92.4915C53.2429 92.323 53.9476 91.8845 54.4469 91.2516" stroke="black" stroke-opacity="0.2" stroke-width="3" stroke-linecap="round" stroke-linejoin="round"/>
<path d="M49.5275 77.2768C48.3409 78.9513 47.4014 80.7879 46.7381 82.7301C47.7406 81.5527 48.6116 80.2694 49.3356 78.9028C49.2257 79.6062 48.9654 80.2778 48.5727 80.8717L45.5215 86.2775C47.639 83.6795 49.8752 81.1853 52.23 78.7949C49.9042 82.2129 47.3715 85.4853 44.646 88.594C47.0831 84.9964 50.6797 82.3719 54.2003 79.8263C51.4848 82.6918 48.9617 85.7335 46.6477 88.9319C49.8034 87.0635 52.8153 84.9622 55.6582 82.6454L48.5507 92.8311C50.4794 90.0108 53.1744 87.8009 56.3177 86.462L52.4546 92.4915C53.2429 92.323 53.9476 91.8845 54.4469 91.2516" stroke="black" stroke-opacity="0.2" stroke-width="3" stroke-linecap="round" stroke-linejoin="round"/>
<path d="M49.5275 77.2768C48.3409 78.9513 47.4014 80.7879 46.7381 82.7301C47.7406 81.5527 48.6116 80.2694 49.3356 78.9028C49.2257 79.6062 48.9654 80.2778 48.5727 80.8717L45.5215 86.2775C47.639 83.6795 49.8752 81.1853 52.23 78.7949C49.9042 82.2129 47.3715 85.4853 44.646 88.594C47.0831 84.9964 50.6797 82.3719 54.2003 79.8263C51.4848 82.6918 48.9617 85.7335 46.6477 88.9319C49.8034 87.0635 52.8153 84.9622 55.6582 82.6454L48.5507 92.8311C50.4794 90.0108 53.1744 87.8009 56.3177 86.462L52.4546 92.4915C53.2429 92.323 53.9476 91.8845 54.4469 91.2516" stroke="black" stroke-opacity="0.2" stroke-width="3" stroke-linecap="round" stroke-linejoin="round"/>
<path d="M49.5275 77.2768C48.3409 78.9513 47.4014 80.7879 46.7381 82.7301C47.7406 81.5527 48.6116 80.2694 49.3356 78.9028C49.2257 79.6062 48.9654 80.2778 48.5727 80.8717L45.5215 86.2775C47.639 83.6795 49.8752 81.1853 52.23 78.7949C49.9042 82.2129 47.3715 85.4853 44.646 88.594C47.0831 84.9964 50.6797 82.3719 54.2003 79.8263C51.4848 82.6918 48.9617 85.7335 46.6477 88.9319C49.8034 87.0635 52.8153 84.9622 55.6582 82.6454L48.5507 92.8311C50.4794 90.0108 53.1744 87.8009 56.3177 86.462L52.4546 92.4915C53.2429 92.323 53.9476 91.8845 54.4469 91.2516" stroke="black" stroke-opacity="0.2" stroke-width="3" stroke-linecap="round" stroke-linejoin="round"/>
<path d="M49.5275 77.2768C48.3409 78.9513 47.4014 80.7879 46.7381 82.7301C47.7406 81.5527 48.6116 80.2694 49.3356 78.9028C49.2257 79.6062 48.9654 80.2778 48.5727 80.8717L45.5215 86.2775C47.639 83.6795 49.8752 81.1853 52.23 78.7949C49.9042 82.2129 47.3715 85.4853 44.646 88.594C47.0831 84.9964 50.6797 82.3719 54.2003 79.8263C51.4848 82.6918 48.9617 85.7335 46.6477 88.9319C49.8034 87.0635 52.8153 84.9622 55.6582 82.6454L48.5507 92.8311C50.4794 90.0108 53.1744 87.8009 56.3177 86.462L52.4546 92.4915C53.2429 92.323 53.9476 91.8845 54.4469 91.2516" stroke="black" stroke-opacity="0.2" stroke-width="3" stroke-linecap="round" stroke-linejoin="round"/>
<path d="M49.5275 77.2768C48.3409 78.9513 47.4014 80.7879 46.7381 82.7301C47.7406 81.5527 48.6116 80.2694 49.3356 78.9028C49.2257 79.6062 48.9654 80.2778 48.5727 80.8717L45.5215 86.2775C47.639 83.6795 49.8752 81.1853 52.23 78.7949C49.9042 82.2129 47.3715 85.4853 44.646 88.594C47.0831 84.9964 50.6797 82.3719 54.2003 79.8263C51.4848 82.6918 48.9617 85.7335 46.6477 88.9319C49.8034 87.0635 52.8153 84.9622 55.6582 82.6454L48.5507 92.8311C50.4794 90.0108 53.1744 87.8009 56.3177 86.462L52.4546 92.4915C53.2429 92.323 53.9476 91.8845 54.4469 91.2516" stroke="black" stroke-opacity="0.2" stroke-width="3" stroke-linecap="round" stroke-linejoin="round"/>
<path d="M43.7285 93.5097C44.6322 92.4358 45.4482 91.2911 46.1686 90.0865" stroke="#EF76B0" stroke-width="3" stroke-linecap="round" stroke-linejoin="round"/>
<path d="M43.7285 93.5097C44.6322 92.4358 45.4482 91.2911 46.1686 90.0865" stroke="black" stroke-opacity="0.2" stroke-width="3" stroke-linecap="round" stroke-linejoin="round"/>
<path d="M43.7285 93.5097C44.6322 92.4358 45.4482 91.2911 46.1686 90.0865" stroke="black" stroke-opacity="0.2" stroke-width="3" stroke-linecap="round" stroke-linejoin="round"/>
<path d="M43.7285 93.5097C44.6322 92.4358 45.4482 91.2911 46.1686 90.0865" stroke="black" stroke-opacity="0.2" stroke-width="3" stroke-linecap="round" stroke-linejoin="round"/>
<path d="M43.7285 93.5097C44.6322 92.4358 45.4482 91.2911 46.1686 90.0865" stroke="black" stroke-opacity="0.2" stroke-width="3" stroke-linecap="round" stroke-linejoin="round"/>
<path d="M43.7285 93.5097C44.6322 92.4358 45.4482 91.2911 46.1686 90.0865" stroke="black" stroke-opacity="0.2" stroke-width="3" stroke-linecap="round" stroke-linejoin="round"/>
<path d="M43.7285 93.5097C44.6322 92.4358 45.4482 91.2911 46.1686 90.0865" stroke="black" stroke-opacity="0.2" stroke-width="3" stroke-linecap="round" stroke-linejoin="round"/>
<path d="M49.0997 97.458C50.4165 96.0326 51.2489 94.2272 51.4777 92.3002" stroke="#EF76B0" stroke-width="3" stroke-linecap="round" stroke-linejoin="round"/>
<path d="M49.0997 97.458C50.4165 96.0326 51.2489 94.2272 51.4777 92.3002" stroke="black" stroke-opacity="0.2" stroke-width="3" stroke-linecap="round" stroke-linejoin="round"/>
<path d="M49.0997 97.458C50.4165 96.0326 51.2489 94.2272 51.4777 92.3002" stroke="black" stroke-opacity="0.2" stroke-width="3" stroke-linecap="round" stroke-linejoin="round"/>
<path d="M49.0997 97.458C50.4165 96.0326 51.2489 94.2272 51.4777 92.3002" stroke="black" stroke-opacity="0.2" stroke-width="3" stroke-linecap="round" stroke-linejoin="round"/>
<path d="M49.0997 97.458C50.4165 96.0326 51.2489 94.2272 51.4777 92.3002" stroke="black" stroke-opacity="0.2" stroke-width="3" stroke-linecap="round" stroke-linejoin="round"/>
<path d="M49.0997 97.458C50.4165 96.0326 51.2489 94.2272 51.4777 92.3002" stroke="black" stroke-opacity="0.2" stroke-width="3" stroke-linecap="round" stroke-linejoin="round"/>
<path d="M49.0997 97.458C50.4165 96.0326 51.2489 94.2272 51.4777 92.3002" stroke="black" stroke-opacity="0.2" stroke-width="3" stroke-linecap="round" stroke-linejoin="round"/>
<path d="M54.4564 96.0064L54.8323 92.9219" stroke="#EF76B0" stroke-width="3" stroke-linecap="round" stroke-linejoin="round"/>
<path d="M54.4564 96.0064L54.8323 92.9219" stroke="black" stroke-opacity="0.2" stroke-width="3" stroke-linecap="round" stroke-linejoin="round"/>
<path d="M54.4564 96.0064L54.8323 92.9219" stroke="black" stroke-opacity="0.2" stroke-width="3" stroke-linecap="round" stroke-linejoin="round"/>
<path d="M54.4564 96.0064L54.8323 92.9219" stroke="black" stroke-opacity="0.2" stroke-width="3" stroke-linecap="round" stroke-linejoin="round"/>
<path d="M54.4564 96.0064L54.8323 92.9219" stroke="black" stroke-opacity="0.2" stroke-width="3" stroke-linecap="round" stroke-linejoin="round"/>
<path d="M54.4564 96.0064L54.8323 92.9219" stroke="black" stroke-opacity="0.2" stroke-width="3" stroke-linecap="round" stroke-linejoin="round"/>
<path d="M54.4564 96.0064L54.8323 92.9219" stroke="black" stroke-opacity="0.2" stroke-width="3" stroke-linecap="round" stroke-linejoin="round"/>
<path d="M58.7181 96.515C58.5059 94.6517 58.1433 92.8087 57.6338 91.0039" stroke="#EF76B0" stroke-width="3" stroke-linecap="round" stroke-linejoin="round"/>
<path d="M58.7181 96.515C58.5059 94.6517 58.1433 92.8087 57.6338 91.0039" stroke="black" stroke-opacity="0.2" stroke-width="3" stroke-linecap="round" stroke-linejoin="round"/>
<path d="M58.7181 96.515C58.5059 94.6517 58.1433 92.8087 57.6338 91.0039" stroke="black" stroke-opacity="0.2" stroke-width="3" stroke-linecap="round" stroke-linejoin="round"/>
<path d="M58.7181 96.515C58.5059 94.6517 58.1433 92.8087 57.6338 91.0039" stroke="black" stroke-opacity="0.2" stroke-width="3" stroke-linecap="round" stroke-linejoin="round"/>
<path d="M58.7181 96.515C58.5059 94.6517 58.1433 92.8087 57.6338 91.0039" stroke="black" stroke-opacity="0.2" stroke-width="3" stroke-linecap="round" stroke-linejoin="round"/>
<path d="M58.7181 96.515C58.5059 94.6517 58.1433 92.8087 57.6338 91.0039" stroke="black" stroke-opacity="0.2" stroke-width="3" stroke-linecap="round" stroke-linejoin="round"/>
<path d="M58.7181 96.515C58.5059 94.6517 58.1433 92.8087 57.6338 91.0039" stroke="black" stroke-opacity="0.2" stroke-width="3" stroke-linecap="round" stroke-linejoin="round"/>
<path d="M60.9433 93.2501C59.8595 91.4356 58.4925 89.8063 56.8938 88.4238" stroke="#EF76B0" stroke-width="3" stroke-linecap="round" stroke-linejoin="round"/>
<path d="M60.9433 93.2501C59.8595 91.4356 58.4925 89.8063 56.8938 88.4238" stroke="black" stroke-opacity="0.2" stroke-width="3" stroke-linecap="round" stroke-linejoin="round"/>
<path d="M60.9433 93.2501C59.8595 91.4356 58.4925 89.8063 56.8938 88.4238" stroke="black" stroke-opacity="0.2" stroke-width="3" stroke-linecap="round" stroke-linejoin="round"/>
<path d="M60.9433 93.2501C59.8595 91.4356 58.4925 89.8063 56.8938 88.4238" stroke="black" stroke-opacity="0.2" stroke-width="3" stroke-linecap="round" stroke-linejoin="round"/>
<path d="M60.9433 93.2501C59.8595 91.4356 58.4925 89.8063 56.8938 88.4238" stroke="black" stroke-opacity="0.2" stroke-width="3" stroke-linecap="round" stroke-linejoin="round"/>
<path d="M60.9433 93.2501C59.8595 91.4356 58.4925 89.8063 56.8938 88.4238" stroke="black" stroke-opacity="0.2" stroke-width="3" stroke-linecap="round" stroke-linejoin="round"/>
<path d="M60.9433 93.2501C59.8595 91.4356 58.4925 89.8063 56.8938 88.4238" stroke="black" stroke-opacity="0.2" stroke-width="3" stroke-linecap="round" stroke-linejoin="round"/>
<path d="M61.5601 88.808C60.6098 88.0789 59.4806 87.6192 58.2913 87.4769" stroke="#EF76B0" stroke-width="3" stroke-linecap="round" stroke-linejoin="round"/>
<path d="M61.5601 88.808C60.6098 88.0789 59.4806 87.6192 58.2913 87.4769" stroke="black" stroke-opacity="0.2" stroke-width="3" stroke-linecap="round" stroke-linejoin="round"/>
<path d="M61.5601 88.808C60.6098 88.0789 59.4806 87.6192 58.2913 87.4769" stroke="black" stroke-opacity="0.2" stroke-width="3" stroke-linecap="round" stroke-linejoin="round"/>
<path d="M61.5601 88.808C60.6098 88.0789 59.4806 87.6192 58.2913 87.4769" stroke="black" stroke-opacity="0.2" stroke-width="3" stroke-linecap="round" stroke-linejoin="round"/>
<path d="M61.5601 88.808C60.6098 88.0789 59.4806 87.6192 58.2913 87.4769" stroke="black" stroke-opacity="0.2" stroke-width="3" stroke-linecap="round" stroke-linejoin="round"/>
<path d="M61.5601 88.808C60.6098 88.0789 59.4806 87.6192 58.2913 87.4769" stroke="black" stroke-opacity="0.2" stroke-width="3" stroke-linecap="round" stroke-linejoin="round"/>
<path d="M61.5601 88.808C60.6098 88.0789 59.4806 87.6192 58.2913 87.4769" stroke="black" stroke-opacity="0.2" stroke-width="3" stroke-linecap="round" stroke-linejoin="round"/>
<path d="M51.4934 71.5371L50.6639 75.9833" stroke="#EF76B0" stroke-width="3" stroke-linecap="round" stroke-linejoin="round"/>
<path d="M51.4934 71.5371L50.6639 75.9833" stroke="black" stroke-opacity="0.2" stroke-width="3" stroke-linecap="round" stroke-linejoin="round"/>
<path d="M51.4934 71.5371L50.6639 75.9833" stroke="black" stroke-opacity="0.2" stroke-width="3" stroke-linecap="round" stroke-linejoin="round"/>
<path d="M51.4934 71.5371L50.6639 75.9833" stroke="black" stroke-opacity="0.2" stroke-width="3" stroke-linecap="round" stroke-linejoin="round"/>
<path d="M51.4934 71.5371L50.6639 75.9833" stroke="black" stroke-opacity="0.2" stroke-width="3" stroke-linecap="round" stroke-linejoin="round"/>
<path d="M51.4934 71.5371L50.6639 75.9833" stroke="black" stroke-opacity="0.2" stroke-width="3" stroke-linecap="round" stroke-linejoin="round"/>
<path d="M51.4934 71.5371L50.6639 75.9833" stroke="black" stroke-opacity="0.2" stroke-width="3" stroke-linecap="round" stroke-linejoin="round"/>
<path d="M43.7498 73.7559C43.7799 74.8795 44.1728 75.9632 44.8695 76.8451C45.563 77.7189 46.3484 78.5158 47.2121 79.222" stroke="#EF76B0" stroke-width="3" stroke-linecap="round" stroke-linejoin="round"/>
<path d="M43.7498 73.7559C43.7799 74.8795 44.1728 75.9632 44.8695 76.8451C45.563 77.7189 46.3484 78.5158 47.2121 79.222" stroke="black" stroke-opacity="0.2" stroke-width="3" stroke-linecap="round" stroke-linejoin="round"/>
<path d="M43.7498 73.7559C43.7799 74.8795 44.1728 75.9632 44.8695 76.8451C45.563 77.7189 46.3484 78.5158 47.2121 79.222" stroke="black" stroke-opacity="0.2" stroke-width="3" stroke-linecap="round" stroke-linejoin="round"/>
<path d="M43.7498 73.7559C43.7799 74.8795 44.1728 75.9632 44.8695 76.8451C45.563 77.7189 46.3484 78.5158 47.2121 79.222" stroke="black" stroke-opacity="0.2" stroke-width="3" stroke-linecap="round" stroke-linejoin="round"/>
<path d="M43.7498 73.7559C43.7799 74.8795 44.1728 75.9632 44.8695 76.8451C45.563 77.7189 46.3484 78.5158 47.2121 79.222" stroke="black" stroke-opacity="0.2" stroke-width="3" stroke-linecap="round" stroke-linejoin="round"/>
<path d="M43.7498 73.7559C43.7799 74.8795 44.1728 75.9632 44.8695 76.8451C45.563 77.7189 46.3484 78.5158 47.2121 79.222" stroke="black" stroke-opacity="0.2" stroke-width="3" stroke-linecap="round" stroke-linejoin="round"/>
<path d="M43.7498 73.7559C43.7799 74.8795 44.1728 75.9632 44.8695 76.8451C45.563 77.7189 46.3484 78.5158 47.2121 79.222" stroke="black" stroke-opacity="0.2" stroke-width="3" stroke-linecap="round" stroke-linejoin="round"/>
<path d="M42.4282 80.8398C44.0154 81.715 45.6533 82.4949 47.3331 83.1755C47.5289 83.2548 47.8087 83.3046 47.903 83.114" stroke="#EF76B0" stroke-width="3" stroke-linecap="round" stroke-linejoin="round"/>
<path d="M42.4282 80.8398C44.0154 81.715 45.6533 82.4949 47.3331 83.1755C47.5289 83.2548 47.8087 83.3046 47.903 83.114" stroke="black" stroke-opacity="0.2" stroke-width="3" stroke-linecap="round" stroke-linejoin="round"/>
<path d="M42.4282 80.8398C44.0154 81.715 45.6533 82.4949 47.3331 83.1755C47.5289 83.2548 47.8087 83.3046 47.903 83.114" stroke="black" stroke-opacity="0.2" stroke-width="3" stroke-linecap="round" stroke-linejoin="round"/>
<path d="M42.4282 80.8398C44.0154 81.715 45.6533 82.4949 47.3331 83.1755C47.5289 83.2548 47.8087 83.3046 47.903 83.114" stroke="black" stroke-opacity="0.2" stroke-width="3" stroke-linecap="round" stroke-linejoin="round"/>
<path d="M42.4282 80.8398C44.0154 81.715 45.6533 82.4949 47.3331 83.1755C47.5289 83.2548 47.8087 83.3046 47.903 83.114" stroke="black" stroke-opacity="0.2" stroke-width="3" stroke-linecap="round" stroke-linejoin="round"/>
<path d="M42.4282 80.8398C44.0154 81.715 45.6533 82.4949 47.3331 83.1755C47.5289 83.2548 47.8087 83.3046 47.903 83.114" stroke="black" stroke-opacity="0.2" stroke-width="3" stroke-linecap="round" stroke-linejoin="round"/>
<path d="M42.4282 80.8398C44.0154 81.715 45.6533 82.4949 47.3331 83.1755C47.5289 83.2548 47.8087 83.3046 47.903 83.114" stroke="black" stroke-opacity="0.2" stroke-width="3" stroke-linecap="round" stroke-linejoin="round"/>
<path d="M40.1849 86.3152L41.9862 86.3415C42.6835 86.3802 43.383 86.3343 44.0692 86.2046C44.7616 86.0717 45.3821 85.6917 45.8154 85.1356" stroke="#EF76B0" stroke-width="3" stroke-linecap="round" stroke-linejoin="round"/>
<path d="M40.1849 86.3152L41.9862 86.3415C42.6835 86.3802 43.383 86.3343 44.0692 86.2046C44.7616 86.0717 45.3821 85.6917 45.8154 85.1356" stroke="black" stroke-opacity="0.2" stroke-width="3" stroke-linecap="round" stroke-linejoin="round"/>
<path d="M40.1849 86.3152L41.9862 86.3415C42.6835 86.3802 43.383 86.3343 44.0692 86.2046C44.7616 86.0717 45.3821 85.6917 45.8154 85.1356" stroke="black" stroke-opacity="0.2" stroke-width="3" stroke-linecap="round" stroke-linejoin="round"/>
<path d="M40.1849 86.3152L41.9862 86.3415C42.6835 86.3802 43.383 86.3343 44.0692 86.2046C44.7616 86.0717 45.3821 85.6917 45.8154 85.1356" stroke="black" stroke-opacity="0.2" stroke-width="3" stroke-linecap="round" stroke-linejoin="round"/>
<path d="M40.1849 86.3152L41.9862 86.3415C42.6835 86.3802 43.383 86.3343 44.0692 86.2046C44.7616 86.0717 45.3821 85.6917 45.8154 85.1356" stroke="black" stroke-opacity="0.2" stroke-width="3" stroke-linecap="round" stroke-linejoin="round"/>
<path d="M40.1849 86.3152L41.9862 86.3415C42.6835 86.3802 43.383 86.3343 44.0692 86.2046C44.7616 86.0717 45.3821 85.6917 45.8154 85.1356" stroke="black" stroke-opacity="0.2" stroke-width="3" stroke-linecap="round" stroke-linejoin="round"/>
<path d="M40.1849 86.3152L41.9862 86.3415C42.6835 86.3802 43.383 86.3343 44.0692 86.2046C44.7616 86.0717 45.3821 85.6917 45.8154 85.1356" stroke="black" stroke-opacity="0.2" stroke-width="3" stroke-linecap="round" stroke-linejoin="round"/>
<path d="M39.1905 91.6409L40.162 91.2845C41.8325 90.793 43.3338 89.848 44.4995 88.5545" stroke="#EF76B0" stroke-width="3" stroke-linecap="round" stroke-linejoin="round"/>
<path d="M39.1905 91.6409L40.162 91.2845C41.8325 90.793 43.3338 89.848 44.4995 88.5545" stroke="black" stroke-opacity="0.2" stroke-width="3" stroke-linecap="round" stroke-linejoin="round"/>
<path d="M39.1905 91.6409L40.162 91.2845C41.8325 90.793 43.3338 89.848 44.4995 88.5545" stroke="black" stroke-opacity="0.2" stroke-width="3" stroke-linecap="round" stroke-linejoin="round"/>
<path d="M39.1905 91.6409L40.162 91.2845C41.8325 90.793 43.3338 89.848 44.4995 88.5545" stroke="black" stroke-opacity="0.2" stroke-width="3" stroke-linecap="round" stroke-linejoin="round"/>
<path d="M39.1905 91.6409L40.162 91.2845C41.8325 90.793 43.3338 89.848 44.4995 88.5545" stroke="black" stroke-opacity="0.2" stroke-width="3" stroke-linecap="round" stroke-linejoin="round"/>
<path d="M39.1905 91.6409L40.162 91.2845C41.8325 90.793 43.3338 89.848 44.4995 88.5545" stroke="black" stroke-opacity="0.2" stroke-width="3" stroke-linecap="round" stroke-linejoin="round"/>
<path d="M39.1905 91.6409L40.162 91.2845C41.8325 90.793 43.3338 89.848 44.4995 88.5545" stroke="black" stroke-opacity="0.2" stroke-width="3" stroke-linecap="round" stroke-linejoin="round"/>
<path d="M56.074 79.7168L60.2749 86.9617C60.437 87.1664 60.5515 87.4047 60.6099 87.6592C60.6683 87.9138 60.6692 88.1781 60.6126 88.4331C60.5147 88.6157 60.3789 88.7753 60.2142 88.9013C60.0496 89.0273 59.8601 89.1168 59.6582 89.1637C59.3863 89.2676 59.0923 89.3 58.8043 89.2578C58.5869 89.2016 58.3864 89.093 58.2207 88.9415C58.0548 88.7899 57.9288 88.6001 57.8533 88.3885C57.7064 87.9637 57.6568 87.5111 57.7084 87.0646C57.8078 85.6393 58.2978 84.1547 57.7642 82.8268" stroke="#EF76B0" stroke-width="3" stroke-linecap="round" stroke-linejoin="round"/>
<path d="M56.074 79.7168L60.2749 86.9617C60.437 87.1664 60.5515 87.4047 60.6099 87.6592C60.6683 87.9138 60.6692 88.1781 60.6126 88.4331C60.5147 88.6157 60.3789 88.7753 60.2142 88.9013C60.0496 89.0273 59.8601 89.1168 59.6582 89.1637C59.3863 89.2676 59.0923 89.3 58.8043 89.2578C58.5869 89.2016 58.3864 89.093 58.2207 88.9415C58.0548 88.7899 57.9288 88.6001 57.8533 88.3885C57.7064 87.9637 57.6568 87.5111 57.7084 87.0646C57.8078 85.6393 58.2978 84.1547 57.7642 82.8268" stroke="black" stroke-opacity="0.2" stroke-width="3" stroke-linecap="round" stroke-linejoin="round"/>
<path d="M56.074 79.7168L60.2749 86.9617C60.437 87.1664 60.5515 87.4047 60.6099 87.6592C60.6683 87.9138 60.6692 88.1781 60.6126 88.4331C60.5147 88.6157 60.3789 88.7753 60.2142 88.9013C60.0496 89.0273 59.8601 89.1168 59.6582 89.1637C59.3863 89.2676 59.0923 89.3 58.8043 89.2578C58.5869 89.2016 58.3864 89.093 58.2207 88.9415C58.0548 88.7899 57.9288 88.6001 57.8533 88.3885C57.7064 87.9637 57.6568 87.5111 57.7084 87.0646C57.8078 85.6393 58.2978 84.1547 57.7642 82.8268" stroke="black" stroke-opacity="0.2" stroke-width="3" stroke-linecap="round" stroke-linejoin="round"/>
<path d="M56.074 79.7168L60.2749 86.9617C60.437 87.1664 60.5515 87.4047 60.6099 87.6592C60.6683 87.9138 60.6692 88.1781 60.6126 88.4331C60.5147 88.6157 60.3789 88.7753 60.2142 88.9013C60.0496 89.0273 59.8601 89.1168 59.6582 89.1637C59.3863 89.2676 59.0923 89.3 58.8043 89.2578C58.5869 89.2016 58.3864 89.093 58.2207 88.9415C58.0548 88.7899 57.9288 88.6001 57.8533 88.3885C57.7064 87.9637 57.6568 87.5111 57.7084 87.0646C57.8078 85.6393 58.2978 84.1547 57.7642 82.8268" stroke="black" stroke-opacity="0.2" stroke-width="3" stroke-linecap="round" stroke-linejoin="round"/>
<path d="M56.074 79.7168L60.2749 86.9617C60.437 87.1664 60.5515 87.4047 60.6099 87.6592C60.6683 87.9138 60.6692 88.1781 60.6126 88.4331C60.5147 88.6157 60.3789 88.7753 60.2142 88.9013C60.0496 89.0273 59.8601 89.1168 59.6582 89.1637C59.3863 89.2676 59.0923 89.3 58.8043 89.2578C58.5869 89.2016 58.3864 89.093 58.2207 88.9415C58.0548 88.7899 57.9288 88.6001 57.8533 88.3885C57.7064 87.9637 57.6568 87.5111 57.7084 87.0646C57.8078 85.6393 58.2978 84.1547 57.7642 82.8268" stroke="black" stroke-opacity="0.2" stroke-width="3" stroke-linecap="round" stroke-linejoin="round"/>
<path d="M56.074 79.7168L60.2749 86.9617C60.437 87.1664 60.5515 87.4047 60.6099 87.6592C60.6683 87.9138 60.6692 88.1781 60.6126 88.4331C60.5147 88.6157 60.3789 88.7753 60.2142 88.9013C60.0496 89.0273 59.8601 89.1168 59.6582 89.1637C59.3863 89.2676 59.0923 89.3 58.8043 89.2578C58.5869 89.2016 58.3864 89.093 58.2207 88.9415C58.0548 88.7899 57.9288 88.6001 57.8533 88.3885C57.7064 87.9637 57.6568 87.5111 57.7084 87.0646C57.8078 85.6393 58.2978 84.1547 57.7642 82.8268" stroke="black" stroke-opacity="0.2" stroke-width="3" stroke-linecap="round" stroke-linejoin="round"/>
<path d="M56.074 79.7168L60.2749 86.9617C60.437 87.1664 60.5515 87.4047 60.6099 87.6592C60.6683 87.9138 60.6692 88.1781 60.6126 88.4331C60.5147 88.6157 60.3789 88.7753 60.2142 88.9013C60.0496 89.0273 59.8601 89.1168 59.6582 89.1637C59.3863 89.2676 59.0923 89.3 58.8043 89.2578C58.5869 89.2016 58.3864 89.093 58.2207 88.9415C58.0548 88.7899 57.9288 88.6001 57.8533 88.3885C57.7064 87.9637 57.6568 87.5111 57.7084 87.0646C57.8078 85.6393 58.2978 84.1547 57.7642 82.8268" stroke="black" stroke-opacity="0.2" stroke-width="3" stroke-linecap="round" stroke-linejoin="round"/>
<path d="M52.5089 79.187C53.6445 79.1536 54.7638 79.4635 55.7204 80.0764C56.6693 80.6878 57.5503 81.3986 58.3486 82.1967" stroke="#EF76B0" stroke-width="3" stroke-linecap="round" stroke-linejoin="round"/>
<path d="M52.5089 79.187C53.6445 79.1536 54.7638 79.4635 55.7204 80.0764C56.6693 80.6878 57.5503 81.3986 58.3486 82.1967" stroke="black" stroke-opacity="0.2" stroke-width="3" stroke-linecap="round" stroke-linejoin="round"/>
<path d="M52.5089 79.187C53.6445 79.1536 54.7638 79.4635 55.7204 80.0764C56.6693 80.6878 57.5503 81.3986 58.3486 82.1967" stroke="black" stroke-opacity="0.2" stroke-width="3" stroke-linecap="round" stroke-linejoin="round"/>
<path d="M52.5089 79.187C53.6445 79.1536 54.7638 79.4635 55.7204 80.0764C56.6693 80.6878 57.5503 81.3986 58.3486 82.1967" stroke="black" stroke-opacity="0.2" stroke-width="3" stroke-linecap="round" stroke-linejoin="round"/>
<path d="M52.5089 79.187C53.6445 79.1536 54.7638 79.4635 55.7204 80.0764C56.6693 80.6878 57.5503 81.3986 58.3486 82.1967" stroke="black" stroke-opacity="0.2" stroke-width="3" stroke-linecap="round" stroke-linejoin="round"/>
<path d="M52.5089 79.187C53.6445 79.1536 54.7638 79.4635 55.7204 80.0764C56.6693 80.6878 57.5503 81.3986 58.3486 82.1967" stroke="black" stroke-opacity="0.2" stroke-width="3" stroke-linecap="round" stroke-linejoin="round"/>
<path d="M52.5089 79.187C53.6445 79.1536 54.7638 79.4635 55.7204 80.0764C56.6693 80.6878 57.5503 81.3986 58.3486 82.1967" stroke="black" stroke-opacity="0.2" stroke-width="3" stroke-linecap="round" stroke-linejoin="round"/>
<path d="M109.531 52.8276C106.727 56.364 104.409 60.2599 102.639 64.4115C100.366 68.8383 98.4555 73.4419 96.9259 78.1772C94.7088 85.7358 94.4694 93.7272 94.6376 101.602C94.6496 105.034 94.9268 108.46 95.4665 111.849C96.8968 119.763 100.736 127.043 106.458 132.693C107.49 133.735 108.621 134.673 109.836 135.493C116.882 140.115 127.553 137.683 131.908 130.473C132.84 128.817 133.621 127.079 134.24 125.282C140.447 108.889 146.728 92.1466 147.464 74.6321C147.64 70.4104 147.464 66.0498 145.743 62.1957C144.625 59.9391 143.251 57.8181 141.649 55.8745C138.233 51.3931 133.173 44.1998 126.894 44.2138C120.451 44.2217 113.654 48.0824 109.531 52.8276Z" fill="white"/>
<path d="M109.531 52.8276C106.727 56.364 104.409 60.2599 102.639 64.4115C100.366 68.8383 98.4555 73.4419 96.9259 78.1772C94.7088 85.7358 94.4694 93.7272 94.6376 101.602C94.6496 105.034 94.9268 108.46 95.4665 111.849C96.8968 119.763 100.736 127.043 106.458 132.693C107.49 133.735 108.621 134.673 109.836 135.493C116.882 140.115 127.553 137.683 131.908 130.473C132.84 128.817 133.621 127.079 134.24 125.282C140.447 108.889 146.728 92.1466 147.464 74.6321C147.64 70.4104 147.464 66.0498 145.743 62.1957C144.625 59.9391 143.251 57.8181 141.649 55.8745C138.233 51.3931 133.173 44.1998 126.894 44.2138C120.451 44.2217 113.654 48.0824 109.531 52.8276Z" stroke="#EF76B0" stroke-width="3" stroke-linecap="round" stroke-linejoin="round"/>
<path d="M109.531 52.8276C106.727 56.364 104.409 60.2599 102.639 64.4115C100.366 68.8383 98.4555 73.4419 96.9259 78.1772C94.7088 85.7358 94.4694 93.7272 94.6376 101.602C94.6496 105.034 94.9268 108.46 95.4665 111.849C96.8968 119.763 100.736 127.043 106.458 132.693C107.49 133.735 108.621 134.673 109.836 135.493C116.882 140.115 127.553 137.683 131.908 130.473C132.84 128.817 133.621 127.079 134.24 125.282C140.447 108.889 146.728 92.1466 147.464 74.6321C147.64 70.4104 147.464 66.0498 145.743 62.1957C144.625 59.9391 143.251 57.8181 141.649 55.8745C138.233 51.3931 133.173 44.1998 126.894 44.2138C120.451 44.2217 113.654 48.0824 109.531 52.8276Z" stroke="black" stroke-opacity="0.2" stroke-width="3" stroke-linecap="round" stroke-linejoin="round"/>
<path d="M109.531 52.8276C106.727 56.364 104.409 60.2599 102.639 64.4115C100.366 68.8383 98.4555 73.4419 96.9259 78.1772C94.7088 85.7358 94.4694 93.7272 94.6376 101.602C94.6496 105.034 94.9268 108.46 95.4665 111.849C96.8968 119.763 100.736 127.043 106.458 132.693C107.49 133.735 108.621 134.673 109.836 135.493C116.882 140.115 127.553 137.683 131.908 130.473C132.84 128.817 133.621 127.079 134.24 125.282C140.447 108.889 146.728 92.1466 147.464 74.6321C147.64 70.4104 147.464 66.0498 145.743 62.1957C144.625 59.9391 143.251 57.8181 141.649 55.8745C138.233 51.3931 133.173 44.1998 126.894 44.2138C120.451 44.2217 113.654 48.0824 109.531 52.8276Z" stroke="black" stroke-opacity="0.2" stroke-width="3" stroke-linecap="round" stroke-linejoin="round"/>
<path d="M109.531 52.8276C106.727 56.364 104.409 60.2599 102.639 64.4115C100.366 68.8383 98.4555 73.4419 96.9259 78.1772C94.7088 85.7358 94.4694 93.7272 94.6376 101.602C94.6496 105.034 94.9268 108.46 95.4665 111.849C96.8968 119.763 100.736 127.043 106.458 132.693C107.49 133.735 108.621 134.673 109.836 135.493C116.882 140.115 127.553 137.683 131.908 130.473C132.84 128.817 133.621 127.079 134.24 125.282C140.447 108.889 146.728 92.1466 147.464 74.6321C147.64 70.4104 147.464 66.0498 145.743 62.1957C144.625 59.9391 143.251 57.8181 141.649 55.8745C138.233 51.3931 133.173 44.1998 126.894 44.2138C120.451 44.2217 113.654 48.0824 109.531 52.8276Z" stroke="black" stroke-opacity="0.2" stroke-width="3" stroke-linecap="round" stroke-linejoin="round"/>
<path d="M109.531 52.8276C106.727 56.364 104.409 60.2599 102.639 64.4115C100.366 68.8383 98.4555 73.4419 96.9259 78.1772C94.7088 85.7358 94.4694 93.7272 94.6376 101.602C94.6496 105.034 94.9268 108.46 95.4665 111.849C96.8968 119.763 100.736 127.043 106.458 132.693C107.49 133.735 108.621 134.673 109.836 135.493C116.882 140.115 127.553 137.683 131.908 130.473C132.84 128.817 133.621 127.079 134.24 125.282C140.447 108.889 146.728 92.1466 147.464 74.6321C147.64 70.4104 147.464 66.0498 145.743 62.1957C144.625 59.9391 143.251 57.8181 141.649 55.8745C138.233 51.3931 133.173 44.1998 126.894 44.2138C120.451 44.2217 113.654 48.0824 109.531 52.8276Z" stroke="black" stroke-opacity="0.2" stroke-width="3" stroke-linecap="round" stroke-linejoin="round"/>
<path d="M109.531 52.8276C106.727 56.364 104.409 60.2599 102.639 64.4115C100.366 68.8383 98.4555 73.4419 96.9259 78.1772C94.7088 85.7358 94.4694 93.7272 94.6376 101.602C94.6496 105.034 94.9268 108.46 95.4665 111.849C96.8968 119.763 100.736 127.043 106.458 132.693C107.49 133.735 108.621 134.673 109.836 135.493C116.882 140.115 127.553 137.683 131.908 130.473C132.84 128.817 133.621 127.079 134.24 125.282C140.447 108.889 146.728 92.1466 147.464 74.6321C147.64 70.4104 147.464 66.0498 145.743 62.1957C144.625 59.9391 143.251 57.8181 141.649 55.8745C138.233 51.3931 133.173 44.1998 126.894 44.2138C120.451 44.2217 113.654 48.0824 109.531 52.8276Z" stroke="black" stroke-opacity="0.2" stroke-width="3" stroke-linecap="round" stroke-linejoin="round"/>
<path d="M109.531 52.8276C106.727 56.364 104.409 60.2599 102.639 64.4115C100.366 68.8383 98.4555 73.4419 96.9259 78.1772C94.7088 85.7358 94.4694 93.7272 94.6376 101.602C94.6496 105.034 94.9268 108.46 95.4665 111.849C96.8968 119.763 100.736 127.043 106.458 132.693C107.49 133.735 108.621 134.673 109.836 135.493C116.882 140.115 127.553 137.683 131.908 130.473C132.84 128.817 133.621 127.079 134.24 125.282C140.447 108.889 146.728 92.1466 147.464 74.6321C147.64 70.4104 147.464 66.0498 145.743 62.1957C144.625 59.9391 143.251 57.8181 141.649 55.8745C138.233 51.3931 133.173 44.1998 126.894 44.2138C120.451 44.2217 113.654 48.0824 109.531 52.8276Z" stroke="black" stroke-opacity="0.2" stroke-width="3" stroke-linecap="round" stroke-linejoin="round"/>
<path d="M95.6864 90.2321C94.5646 95.0107 94.1977 100.647 97.564 104.219C99.8612 106.654 103.346 107.502 106.646 108.051C108.804 108.505 111.021 108.614 113.213 108.374C114.31 108.248 115.369 107.903 116.33 107.359C117.29 106.815 118.131 106.084 118.803 105.209C120.326 103.019 120.291 100.121 119.934 97.4782C119.097 91.3042 115.782 82.701 109.503 80.081C106.969 79.0241 103.469 79.3998 100.902 80.1602C97.0512 81.302 96.5138 86.7027 95.6864 90.2321Z" stroke="#EF76B0" stroke-width="3" stroke-linecap="round" stroke-linejoin="round"/>
<path d="M95.6864 90.2321C94.5646 95.0107 94.1977 100.647 97.564 104.219C99.8612 106.654 103.346 107.502 106.646 108.051C108.804 108.505 111.021 108.614 113.213 108.374C114.31 108.248 115.369 107.903 116.33 107.359C117.29 106.815 118.131 106.084 118.803 105.209C120.326 103.019 120.291 100.121 119.934 97.4782C119.097 91.3042 115.782 82.701 109.503 80.081C106.969 79.0241 103.469 79.3998 100.902 80.1602C97.0512 81.302 96.5138 86.7027 95.6864 90.2321Z" stroke="black" stroke-opacity="0.2" stroke-width="3" stroke-linecap="round" stroke-linejoin="round"/>
<path d="M95.6864 90.2321C94.5646 95.0107 94.1977 100.647 97.564 104.219C99.8612 106.654 103.346 107.502 106.646 108.051C108.804 108.505 111.021 108.614 113.213 108.374C114.31 108.248 115.369 107.903 116.33 107.359C117.29 106.815 118.131 106.084 118.803 105.209C120.326 103.019 120.291 100.121 119.934 97.4782C119.097 91.3042 115.782 82.701 109.503 80.081C106.969 79.0241 103.469 79.3998 100.902 80.1602C97.0512 81.302 96.5138 86.7027 95.6864 90.2321Z" stroke="black" stroke-opacity="0.2" stroke-width="3" stroke-linecap="round" stroke-linejoin="round"/>
<path d="M95.6864 90.2321C94.5646 95.0107 94.1977 100.647 97.564 104.219C99.8612 106.654 103.346 107.502 106.646 108.051C108.804 108.505 111.021 108.614 113.213 108.374C114.31 108.248 115.369 107.903 116.33 107.359C117.29 106.815 118.131 106.084 118.803 105.209C120.326 103.019 120.291 100.121 119.934 97.4782C119.097 91.3042 115.782 82.701 109.503 80.081C106.969 79.0241 103.469 79.3998 100.902 80.1602C97.0512 81.302 96.5138 86.7027 95.6864 90.2321Z" stroke="black" stroke-opacity="0.2" stroke-width="3" stroke-linecap="round" stroke-linejoin="round"/>
<path d="M95.6864 90.2321C94.5646 95.0107 94.1977 100.647 97.564 104.219C99.8612 106.654 103.346 107.502 106.646 108.051C108.804 108.505 111.021 108.614 113.213 108.374C114.31 108.248 115.369 107.903 116.33 107.359C117.29 106.815 118.131 106.084 118.803 105.209C120.326 103.019 120.291 100.121 119.934 97.4782C119.097 91.3042 115.782 82.701 109.503 80.081C106.969 79.0241 103.469 79.3998 100.902 80.1602C97.0512 81.302 96.5138 86.7027 95.6864 90.2321Z" stroke="black" stroke-opacity="0.2" stroke-width="3" stroke-linecap="round" stroke-linejoin="round"/>
<path d="M95.6864 90.2321C94.5646 95.0107 94.1977 100.647 97.564 104.219C99.8612 106.654 103.346 107.502 106.646 108.051C108.804 108.505 111.021 108.614 113.213 108.374C114.31 108.248 115.369 107.903 116.33 107.359C117.29 106.815 118.131 106.084 118.803 105.209C120.326 103.019 120.291 100.121 119.934 97.4782C119.097 91.3042 115.782 82.701 109.503 80.081C106.969 79.0241 103.469 79.3998 100.902 80.1602C97.0512 81.302 96.5138 86.7027 95.6864 90.2321Z" stroke="black" stroke-opacity="0.2" stroke-width="3" stroke-linecap="round" stroke-linejoin="round"/>
<path d="M95.6864 90.2321C94.5646 95.0107 94.1977 100.647 97.564 104.219C99.8612 106.654 103.346 107.502 106.646 108.051C108.804 108.505 111.021 108.614 113.213 108.374C114.31 108.248 115.369 107.903 116.33 107.359C117.29 106.815 118.131 106.084 118.803 105.209C120.326 103.019 120.291 100.121 119.934 97.4782C119.097 91.3042 115.782 82.701 109.503 80.081C106.969 79.0241 103.469 79.3998 100.902 80.1602C97.0512 81.302 96.5138 86.7027 95.6864 90.2321Z" stroke="black" stroke-opacity="0.2" stroke-width="3" stroke-linecap="round" stroke-linejoin="round"/>
<path d="M100.482 90.7204C100.277 92.9468 100.627 95.1893 101.502 97.2469C103.072 100.927 106.905 103.974 110.845 103.266C111.981 103.026 113.049 102.536 113.973 101.833C114.897 101.129 115.653 100.229 116.187 99.198C117.241 97.1161 117.627 94.7598 117.292 92.4506C117.188 91.3458 116.86 90.2736 116.328 89.2999C115.429 87.9592 114.208 86.8664 112.776 86.1217C107.927 83.243 101.107 84.0684 100.482 90.7204Z" stroke="#EF76B0" stroke-width="3" stroke-linecap="round" stroke-linejoin="round"/>
<path d="M100.482 90.7204C100.277 92.9468 100.627 95.1893 101.502 97.2469C103.072 100.927 106.905 103.974 110.845 103.266C111.981 103.026 113.049 102.536 113.973 101.833C114.897 101.129 115.653 100.229 116.187 99.198C117.241 97.1161 117.627 94.7598 117.292 92.4506C117.188 91.3458 116.86 90.2736 116.328 89.2999C115.429 87.9592 114.208 86.8664 112.776 86.1217C107.927 83.243 101.107 84.0684 100.482 90.7204Z" stroke="black" stroke-opacity="0.2" stroke-width="3" stroke-linecap="round" stroke-linejoin="round"/>
<path d="M100.482 90.7204C100.277 92.9468 100.627 95.1893 101.502 97.2469C103.072 100.927 106.905 103.974 110.845 103.266C111.981 103.026 113.049 102.536 113.973 101.833C114.897 101.129 115.653 100.229 116.187 99.198C117.241 97.1161 117.627 94.7598 117.292 92.4506C117.188 91.3458 116.86 90.2736 116.328 89.2999C115.429 87.9592 114.208 86.8664 112.776 86.1217C107.927 83.243 101.107 84.0684 100.482 90.7204Z" stroke="black" stroke-opacity="0.2" stroke-width="3" stroke-linecap="round" stroke-linejoin="round"/>
<path d="M100.482 90.7204C100.277 92.9468 100.627 95.1893 101.502 97.2469C103.072 100.927 106.905 103.974 110.845 103.266C111.981 103.026 113.049 102.536 113.973 101.833C114.897 101.129 115.653 100.229 116.187 99.198C117.241 97.1161 117.627 94.7598 117.292 92.4506C117.188 91.3458 116.86 90.2736 116.328 89.2999C115.429 87.9592 114.208 86.8664 112.776 86.1217C107.927 83.243 101.107 84.0684 100.482 90.7204Z" stroke="black" stroke-opacity="0.2" stroke-width="3" stroke-linecap="round" stroke-linejoin="round"/>
<path d="M100.482 90.7204C100.277 92.9468 100.627 95.1893 101.502 97.2469C103.072 100.927 106.905 103.974 110.845 103.266C111.981 103.026 113.049 102.536 113.973 101.833C114.897 101.129 115.653 100.229 116.187 99.198C117.241 97.1161 117.627 94.7598 117.292 92.4506C117.188 91.3458 116.86 90.2736 116.328 89.2999C115.429 87.9592 114.208 86.8664 112.776 86.1217C107.927 83.243 101.107 84.0684 100.482 90.7204Z" stroke="black" stroke-opacity="0.2" stroke-width="3" stroke-linecap="round" stroke-linejoin="round"/>
<path d="M100.482 90.7204C100.277 92.9468 100.627 95.1893 101.502 97.2469C103.072 100.927 106.905 103.974 110.845 103.266C111.981 103.026 113.049 102.536 113.973 101.833C114.897 101.129 115.653 100.229 116.187 99.198C117.241 97.1161 117.627 94.7598 117.292 92.4506C117.188 91.3458 116.86 90.2736 116.328 89.2999C115.429 87.9592 114.208 86.8664 112.776 86.1217C107.927 83.243 101.107 84.0684 100.482 90.7204Z" stroke="black" stroke-opacity="0.2" stroke-width="3" stroke-linecap="round" stroke-linejoin="round"/>
<path d="M100.482 90.7204C100.277 92.9468 100.627 95.1893 101.502 97.2469C103.072 100.927 106.905 103.974 110.845 103.266C111.981 103.026 113.049 102.536 113.973 101.833C114.897 101.129 115.653 100.229 116.187 99.198C117.241 97.1161 117.627 94.7598 117.292 92.4506C117.188 91.3458 116.86 90.2736 116.328 89.2999C115.429 87.9592 114.208 86.8664 112.776 86.1217C107.927 83.243 101.107 84.0684 100.482 90.7204Z" stroke="black" stroke-opacity="0.2" stroke-width="3" stroke-linecap="round" stroke-linejoin="round"/>
<path d="M105.45 85.2687C104.264 86.9438 103.324 88.7807 102.661 90.7232C103.663 89.5459 104.534 88.2625 105.258 86.896C105.148 87.5994 104.888 88.271 104.495 88.8649L101.444 94.2706C103.562 91.6727 105.798 89.1781 108.154 86.7872C105.828 90.2054 103.295 93.4782 100.57 96.5874C103.007 92.9886 106.604 90.3653 110.125 87.8199C107.409 90.6848 104.886 93.7266 102.572 96.9253C105.728 95.0568 108.739 92.9552 111.582 90.6378L104.475 100.823C106.404 98.0037 109.098 95.7942 112.241 94.4555L108.38 100.485C109.167 100.316 109.871 99.8772 110.371 99.245" stroke="#EF76B0" stroke-width="3" stroke-linecap="round" stroke-linejoin="round"/>
<path d="M105.45 85.2687C104.264 86.9438 103.324 88.7807 102.661 90.7232C103.663 89.5459 104.534 88.2625 105.258 86.896C105.148 87.5994 104.888 88.271 104.495 88.8649L101.444 94.2706C103.562 91.6727 105.798 89.1781 108.154 86.7872C105.828 90.2054 103.295 93.4782 100.57 96.5874C103.007 92.9886 106.604 90.3653 110.125 87.8199C107.409 90.6848 104.886 93.7266 102.572 96.9253C105.728 95.0568 108.739 92.9552 111.582 90.6378L104.475 100.823C106.404 98.0037 109.098 95.7942 112.241 94.4555L108.38 100.485C109.167 100.316 109.871 99.8772 110.371 99.245" stroke="black" stroke-opacity="0.2" stroke-width="3" stroke-linecap="round" stroke-linejoin="round"/>
<path d="M105.45 85.2687C104.264 86.9438 103.324 88.7807 102.661 90.7232C103.663 89.5459 104.534 88.2625 105.258 86.896C105.148 87.5994 104.888 88.271 104.495 88.8649L101.444 94.2706C103.562 91.6727 105.798 89.1781 108.154 86.7872C105.828 90.2054 103.295 93.4782 100.57 96.5874C103.007 92.9886 106.604 90.3653 110.125 87.8199C107.409 90.6848 104.886 93.7266 102.572 96.9253C105.728 95.0568 108.739 92.9552 111.582 90.6378L104.475 100.823C106.404 98.0037 109.098 95.7942 112.241 94.4555L108.38 100.485C109.167 100.316 109.871 99.8772 110.371 99.245" stroke="black" stroke-opacity="0.2" stroke-width="3" stroke-linecap="round" stroke-linejoin="round"/>
<path d="M105.45 85.2687C104.264 86.9438 103.324 88.7807 102.661 90.7232C103.663 89.5459 104.534 88.2625 105.258 86.896C105.148 87.5994 104.888 88.271 104.495 88.8649L101.444 94.2706C103.562 91.6727 105.798 89.1781 108.154 86.7872C105.828 90.2054 103.295 93.4782 100.57 96.5874C103.007 92.9886 106.604 90.3653 110.125 87.8199C107.409 90.6848 104.886 93.7266 102.572 96.9253C105.728 95.0568 108.739 92.9552 111.582 90.6378L104.475 100.823C106.404 98.0037 109.098 95.7942 112.241 94.4555L108.38 100.485C109.167 100.316 109.871 99.8772 110.371 99.245" stroke="black" stroke-opacity="0.2" stroke-width="3" stroke-linecap="round" stroke-linejoin="round"/>
<path d="M105.45 85.2687C104.264 86.9438 103.324 88.7807 102.661 90.7232C103.663 89.5459 104.534 88.2625 105.258 86.896C105.148 87.5994 104.888 88.271 104.495 88.8649L101.444 94.2706C103.562 91.6727 105.798 89.1781 108.154 86.7872C105.828 90.2054 103.295 93.4782 100.57 96.5874C103.007 92.9886 106.604 90.3653 110.125 87.8199C107.409 90.6848 104.886 93.7266 102.572 96.9253C105.728 95.0568 108.739 92.9552 111.582 90.6378L104.475 100.823C106.404 98.0037 109.098 95.7942 112.241 94.4555L108.38 100.485C109.167 100.316 109.871 99.8772 110.371 99.245" stroke="black" stroke-opacity="0.2" stroke-width="3" stroke-linecap="round" stroke-linejoin="round"/>
<path d="M105.45 85.2687C104.264 86.9438 103.324 88.7807 102.661 90.7232C103.663 89.5459 104.534 88.2625 105.258 86.896C105.148 87.5994 104.888 88.271 104.495 88.8649L101.444 94.2706C103.562 91.6727 105.798 89.1781 108.154 86.7872C105.828 90.2054 103.295 93.4782 100.57 96.5874C103.007 92.9886 106.604 90.3653 110.125 87.8199C107.409 90.6848 104.886 93.7266 102.572 96.9253C105.728 95.0568 108.739 92.9552 111.582 90.6378L104.475 100.823C106.404 98.0037 109.098 95.7942 112.241 94.4555L108.38 100.485C109.167 100.316 109.871 99.8772 110.371 99.245" stroke="black" stroke-opacity="0.2" stroke-width="3" stroke-linecap="round" stroke-linejoin="round"/>
<path d="M105.45 85.2687C104.264 86.9438 103.324 88.7807 102.661 90.7232C103.663 89.5459 104.534 88.2625 105.258 86.896C105.148 87.5994 104.888 88.271 104.495 88.8649L101.444 94.2706C103.562 91.6727 105.798 89.1781 108.154 86.7872C105.828 90.2054 103.295 93.4782 100.57 96.5874C103.007 92.9886 106.604 90.3653 110.125 87.8199C107.409 90.6848 104.886 93.7266 102.572 96.9253C105.728 95.0568 108.739 92.9552 111.582 90.6378L104.475 100.823C106.404 98.0037 109.098 95.7942 112.241 94.4555L108.38 100.485C109.167 100.316 109.871 99.8772 110.371 99.245" stroke="black" stroke-opacity="0.2" stroke-width="3" stroke-linecap="round" stroke-linejoin="round"/>
<path d="M99.4319 102.685C100.336 101.611 101.152 100.465 101.872 99.2603" stroke="#EF76B0" stroke-width="3" stroke-linecap="round" stroke-linejoin="round"/>
<path d="M99.4319 102.685C100.336 101.611 101.152 100.465 101.872 99.2603" stroke="black" stroke-opacity="0.2" stroke-width="3" stroke-linecap="round" stroke-linejoin="round"/>
<path d="M99.4319 102.685C100.336 101.611 101.152 100.465 101.872 99.2603" stroke="black" stroke-opacity="0.2" stroke-width="3" stroke-linecap="round" stroke-linejoin="round"/>
<path d="M99.4319 102.685C100.336 101.611 101.152 100.465 101.872 99.2603" stroke="black" stroke-opacity="0.2" stroke-width="3" stroke-linecap="round" stroke-linejoin="round"/>
<path d="M99.4319 102.685C100.336 101.611 101.152 100.465 101.872 99.2603" stroke="black" stroke-opacity="0.2" stroke-width="3" stroke-linecap="round" stroke-linejoin="round"/>
<path d="M99.4319 102.685C100.336 101.611 101.152 100.465 101.872 99.2603" stroke="black" stroke-opacity="0.2" stroke-width="3" stroke-linecap="round" stroke-linejoin="round"/>
<path d="M99.4319 102.685C100.336 101.611 101.152 100.465 101.872 99.2603" stroke="black" stroke-opacity="0.2" stroke-width="3" stroke-linecap="round" stroke-linejoin="round"/>
<path d="M105.025 105.448C106.341 104.022 107.173 102.217 107.402 100.29" stroke="#EF76B0" stroke-width="3" stroke-linecap="round" stroke-linejoin="round"/>
<path d="M105.025 105.448C106.341 104.022 107.173 102.217 107.402 100.29" stroke="black" stroke-opacity="0.2" stroke-width="3" stroke-linecap="round" stroke-linejoin="round"/>
<path d="M105.025 105.448C106.341 104.022 107.173 102.217 107.402 100.29" stroke="black" stroke-opacity="0.2" stroke-width="3" stroke-linecap="round" stroke-linejoin="round"/>
<path d="M105.025 105.448C106.341 104.022 107.173 102.217 107.402 100.29" stroke="black" stroke-opacity="0.2" stroke-width="3" stroke-linecap="round" stroke-linejoin="round"/>
<path d="M105.025 105.448C106.341 104.022 107.173 102.217 107.402 100.29" stroke="black" stroke-opacity="0.2" stroke-width="3" stroke-linecap="round" stroke-linejoin="round"/>
<path d="M105.025 105.448C106.341 104.022 107.173 102.217 107.402 100.29" stroke="black" stroke-opacity="0.2" stroke-width="3" stroke-linecap="round" stroke-linejoin="round"/>
<path d="M105.025 105.448C106.341 104.022 107.173 102.217 107.402 100.29" stroke="black" stroke-opacity="0.2" stroke-width="3" stroke-linecap="round" stroke-linejoin="round"/>
<path d="M110.16 105.182L110.536 102.098" stroke="#EF76B0" stroke-width="3" stroke-linecap="round" stroke-linejoin="round"/>
<path d="M110.16 105.182L110.536 102.098" stroke="black" stroke-opacity="0.2" stroke-width="3" stroke-linecap="round" stroke-linejoin="round"/>
<path d="M110.16 105.182L110.536 102.098" stroke="black" stroke-opacity="0.2" stroke-width="3" stroke-linecap="round" stroke-linejoin="round"/>
<path d="M110.16 105.182L110.536 102.098" stroke="black" stroke-opacity="0.2" stroke-width="3" stroke-linecap="round" stroke-linejoin="round"/>
<path d="M110.16 105.182L110.536 102.098" stroke="black" stroke-opacity="0.2" stroke-width="3" stroke-linecap="round" stroke-linejoin="round"/>
<path d="M110.16 105.182L110.536 102.098" stroke="black" stroke-opacity="0.2" stroke-width="3" stroke-linecap="round" stroke-linejoin="round"/>
<path d="M110.16 105.182L110.536 102.098" stroke="black" stroke-opacity="0.2" stroke-width="3" stroke-linecap="round" stroke-linejoin="round"/>
<path d="M114.422 105.687C114.21 103.824 113.847 101.981 113.337 100.176" stroke="#EF76B0" stroke-width="3" stroke-linecap="round" stroke-linejoin="round"/>
<path d="M114.422 105.687C114.21 103.824 113.847 101.981 113.337 100.176" stroke="black" stroke-opacity="0.2" stroke-width="3" stroke-linecap="round" stroke-linejoin="round"/>
<path d="M114.422 105.687C114.21 103.824 113.847 101.981 113.337 100.176" stroke="black" stroke-opacity="0.2" stroke-width="3" stroke-linecap="round" stroke-linejoin="round"/>
<path d="M114.422 105.687C114.21 103.824 113.847 101.981 113.337 100.176" stroke="black" stroke-opacity="0.2" stroke-width="3" stroke-linecap="round" stroke-linejoin="round"/>
<path d="M114.422 105.687C114.21 103.824 113.847 101.981 113.337 100.176" stroke="black" stroke-opacity="0.2" stroke-width="3" stroke-linecap="round" stroke-linejoin="round"/>
<path d="M114.422 105.687C114.21 103.824 113.847 101.981 113.337 100.176" stroke="black" stroke-opacity="0.2" stroke-width="3" stroke-linecap="round" stroke-linejoin="round"/>
<path d="M114.422 105.687C114.21 103.824 113.847 101.981 113.337 100.176" stroke="black" stroke-opacity="0.2" stroke-width="3" stroke-linecap="round" stroke-linejoin="round"/>
<path d="M116.647 102.423C115.563 100.608 114.196 98.9786 112.597 97.5957" stroke="#EF76B0" stroke-width="3" stroke-linecap="round" stroke-linejoin="round"/>
<path d="M116.647 102.423C115.563 100.608 114.196 98.9786 112.597 97.5957" stroke="black" stroke-opacity="0.2" stroke-width="3" stroke-linecap="round" stroke-linejoin="round"/>
<path d="M116.647 102.423C115.563 100.608 114.196 98.9786 112.597 97.5957" stroke="black" stroke-opacity="0.2" stroke-width="3" stroke-linecap="round" stroke-linejoin="round"/>
<path d="M116.647 102.423C115.563 100.608 114.196 98.9786 112.597 97.5957" stroke="black" stroke-opacity="0.2" stroke-width="3" stroke-linecap="round" stroke-linejoin="round"/>
<path d="M116.647 102.423C115.563 100.608 114.196 98.9786 112.597 97.5957" stroke="black" stroke-opacity="0.2" stroke-width="3" stroke-linecap="round" stroke-linejoin="round"/>
<path d="M116.647 102.423C115.563 100.608 114.196 98.9786 112.597 97.5957" stroke="black" stroke-opacity="0.2" stroke-width="3" stroke-linecap="round" stroke-linejoin="round"/>
<path d="M116.647 102.423C115.563 100.608 114.196 98.9786 112.597 97.5957" stroke="black" stroke-opacity="0.2" stroke-width="3" stroke-linecap="round" stroke-linejoin="round"/>
<path d="M117.265 97.9781C116.315 97.2485 115.186 96.7886 113.996 96.6471" stroke="#EF76B0" stroke-width="3" stroke-linecap="round" stroke-linejoin="round"/>
<path d="M117.265 97.9781C116.315 97.2485 115.186 96.7886 113.996 96.6471" stroke="black" stroke-opacity="0.2" stroke-width="3" stroke-linecap="round" stroke-linejoin="round"/>
<path d="M117.265 97.9781C116.315 97.2485 115.186 96.7886 113.996 96.6471" stroke="black" stroke-opacity="0.2" stroke-width="3" stroke-linecap="round" stroke-linejoin="round"/>
<path d="M117.265 97.9781C116.315 97.2485 115.186 96.7886 113.996 96.6471" stroke="black" stroke-opacity="0.2" stroke-width="3" stroke-linecap="round" stroke-linejoin="round"/>
<path d="M117.265 97.9781C116.315 97.2485 115.186 96.7886 113.996 96.6471" stroke="black" stroke-opacity="0.2" stroke-width="3" stroke-linecap="round" stroke-linejoin="round"/>
<path d="M117.265 97.9781C116.315 97.2485 115.186 96.7886 113.996 96.6471" stroke="black" stroke-opacity="0.2" stroke-width="3" stroke-linecap="round" stroke-linejoin="round"/>
<path d="M117.265 97.9781C116.315 97.2485 115.186 96.7886 113.996 96.6471" stroke="black" stroke-opacity="0.2" stroke-width="3" stroke-linecap="round" stroke-linejoin="round"/>
<path d="M107.417 79.5254L106.587 83.9751" stroke="#EF76B0" stroke-width="3" stroke-linecap="round" stroke-linejoin="round"/>
<path d="M107.417 79.5254L106.587 83.9751" stroke="black" stroke-opacity="0.2" stroke-width="3" stroke-linecap="round" stroke-linejoin="round"/>
<path d="M107.417 79.5254L106.587 83.9751" stroke="black" stroke-opacity="0.2" stroke-width="3" stroke-linecap="round" stroke-linejoin="round"/>
<path d="M107.417 79.5254L106.587 83.9751" stroke="black" stroke-opacity="0.2" stroke-width="3" stroke-linecap="round" stroke-linejoin="round"/>
<path d="M107.417 79.5254L106.587 83.9751" stroke="black" stroke-opacity="0.2" stroke-width="3" stroke-linecap="round" stroke-linejoin="round"/>
<path d="M107.417 79.5254L106.587 83.9751" stroke="black" stroke-opacity="0.2" stroke-width="3" stroke-linecap="round" stroke-linejoin="round"/>
<path d="M107.417 79.5254L106.587 83.9751" stroke="black" stroke-opacity="0.2" stroke-width="3" stroke-linecap="round" stroke-linejoin="round"/>
<path d="M99.6741 81.7441C99.7049 82.8677 100.098 83.9511 100.794 84.8333C101.488 85.7076 102.273 86.5046 103.138 87.2105" stroke="#EF76B0" stroke-width="3" stroke-linecap="round" stroke-linejoin="round"/>
<path d="M99.6741 81.7441C99.7049 82.8677 100.098 83.9511 100.794 84.8333C101.488 85.7076 102.273 86.5046 103.138 87.2105" stroke="black" stroke-opacity="0.2" stroke-width="3" stroke-linecap="round" stroke-linejoin="round"/>
<path d="M99.6741 81.7441C99.7049 82.8677 100.098 83.9511 100.794 84.8333C101.488 85.7076 102.273 86.5046 103.138 87.2105" stroke="black" stroke-opacity="0.2" stroke-width="3" stroke-linecap="round" stroke-linejoin="round"/>
<path d="M99.6741 81.7441C99.7049 82.8677 100.098 83.9511 100.794 84.8333C101.488 85.7076 102.273 86.5046 103.138 87.2105" stroke="black" stroke-opacity="0.2" stroke-width="3" stroke-linecap="round" stroke-linejoin="round"/>
<path d="M99.6741 81.7441C99.7049 82.8677 100.098 83.9511 100.794 84.8333C101.488 85.7076 102.273 86.5046 103.138 87.2105" stroke="black" stroke-opacity="0.2" stroke-width="3" stroke-linecap="round" stroke-linejoin="round"/>
<path d="M99.6741 81.7441C99.7049 82.8677 100.098 83.9511 100.794 84.8333C101.488 85.7076 102.273 86.5046 103.138 87.2105" stroke="black" stroke-opacity="0.2" stroke-width="3" stroke-linecap="round" stroke-linejoin="round"/>
<path d="M99.6741 81.7441C99.7049 82.8677 100.098 83.9511 100.794 84.8333C101.488 85.7076 102.273 86.5046 103.138 87.2105" stroke="black" stroke-opacity="0.2" stroke-width="3" stroke-linecap="round" stroke-linejoin="round"/>
<path d="M98.1318 90.0098C99.7186 90.885 101.356 91.6648 103.035 92.3452C103.231 92.4246 103.511 92.4731 103.605 92.2837" stroke="#EF76B0" stroke-width="3" stroke-linecap="round" stroke-linejoin="round"/>
<path d="M98.1318 90.0098C99.7186 90.885 101.356 91.6648 103.035 92.3452C103.231 92.4246 103.511 92.4731 103.605 92.2837" stroke="black" stroke-opacity="0.2" stroke-width="3" stroke-linecap="round" stroke-linejoin="round"/>
<path d="M98.1318 90.0098C99.7186 90.885 101.356 91.6648 103.035 92.3452C103.231 92.4246 103.511 92.4731 103.605 92.2837" stroke="black" stroke-opacity="0.2" stroke-width="3" stroke-linecap="round" stroke-linejoin="round"/>
<path d="M98.1318 90.0098C99.7186 90.885 101.356 91.6648 103.035 92.3452C103.231 92.4246 103.511 92.4731 103.605 92.2837" stroke="black" stroke-opacity="0.2" stroke-width="3" stroke-linecap="round" stroke-linejoin="round"/>
<path d="M98.1318 90.0098C99.7186 90.885 101.356 91.6648 103.035 92.3452C103.231 92.4246 103.511 92.4731 103.605 92.2837" stroke="black" stroke-opacity="0.2" stroke-width="3" stroke-linecap="round" stroke-linejoin="round"/>
<path d="M98.1318 90.0098C99.7186 90.885 101.356 91.6648 103.035 92.3452C103.231 92.4246 103.511 92.4731 103.605 92.2837" stroke="black" stroke-opacity="0.2" stroke-width="3" stroke-linecap="round" stroke-linejoin="round"/>
<path d="M98.1318 90.0098C99.7186 90.885 101.356 91.6648 103.035 92.3452C103.231 92.4246 103.511 92.4731 103.605 92.2837" stroke="black" stroke-opacity="0.2" stroke-width="3" stroke-linecap="round" stroke-linejoin="round"/>
<path d="M95.8889 95.4839L97.6902 95.5114C98.3878 95.5501 99.0876 95.5042 99.7742 95.3748C100.467 95.2416 101.087 94.8617 101.52 94.3058" stroke="#EF76B0" stroke-width="3" stroke-linecap="round" stroke-linejoin="round"/>
<path d="M95.8889 95.4839L97.6902 95.5114C98.3878 95.5501 99.0876 95.5042 99.7742 95.3748C100.467 95.2416 101.087 94.8617 101.52 94.3058" stroke="black" stroke-opacity="0.2" stroke-width="3" stroke-linecap="round" stroke-linejoin="round"/>
<path d="M95.8889 95.4839L97.6902 95.5114C98.3878 95.5501 99.0876 95.5042 99.7742 95.3748C100.467 95.2416 101.087 94.8617 101.52 94.3058" stroke="black" stroke-opacity="0.2" stroke-width="3" stroke-linecap="round" stroke-linejoin="round"/>
<path d="M95.8889 95.4839L97.6902 95.5114C98.3878 95.5501 99.0876 95.5042 99.7742 95.3748C100.467 95.2416 101.087 94.8617 101.52 94.3058" stroke="black" stroke-opacity="0.2" stroke-width="3" stroke-linecap="round" stroke-linejoin="round"/>
<path d="M95.8889 95.4839L97.6902 95.5114C98.3878 95.5501 99.0876 95.5042 99.7742 95.3748C100.467 95.2416 101.087 94.8617 101.52 94.3058" stroke="black" stroke-opacity="0.2" stroke-width="3" stroke-linecap="round" stroke-linejoin="round"/>
<path d="M95.8889 95.4839L97.6902 95.5114C98.3878 95.5501 99.0876 95.5042 99.7742 95.3748C100.467 95.2416 101.087 94.8617 101.52 94.3058" stroke="black" stroke-opacity="0.2" stroke-width="3" stroke-linecap="round" stroke-linejoin="round"/>
<path d="M95.8889 95.4839L97.6902 95.5114C98.3878 95.5501 99.0876 95.5042 99.7742 95.3748C100.467 95.2416 101.087 94.8617 101.52 94.3058" stroke="black" stroke-opacity="0.2" stroke-width="3" stroke-linecap="round" stroke-linejoin="round"/>
<path d="M95.1161 99.6337L96.0873 99.2786C97.7579 98.7875 99.2594 97.8425 100.425 96.5487" stroke="#EF76B0" stroke-width="3" stroke-linecap="round" stroke-linejoin="round"/>
<path d="M95.1161 99.6337L96.0873 99.2786C97.7579 98.7875 99.2594 97.8425 100.425 96.5487" stroke="black" stroke-opacity="0.2" stroke-width="3" stroke-linecap="round" stroke-linejoin="round"/>
<path d="M95.1161 99.6337L96.0873 99.2786C97.7579 98.7875 99.2594 97.8425 100.425 96.5487" stroke="black" stroke-opacity="0.2" stroke-width="3" stroke-linecap="round" stroke-linejoin="round"/>
<path d="M95.1161 99.6337L96.0873 99.2786C97.7579 98.7875 99.2594 97.8425 100.425 96.5487" stroke="black" stroke-opacity="0.2" stroke-width="3" stroke-linecap="round" stroke-linejoin="round"/>
<path d="M95.1161 99.6337L96.0873 99.2786C97.7579 98.7875 99.2594 97.8425 100.425 96.5487" stroke="black" stroke-opacity="0.2" stroke-width="3" stroke-linecap="round" stroke-linejoin="round"/>
<path d="M95.1161 99.6337L96.0873 99.2786C97.7579 98.7875 99.2594 97.8425 100.425 96.5487" stroke="black" stroke-opacity="0.2" stroke-width="3" stroke-linecap="round" stroke-linejoin="round"/>
<path d="M95.1161 99.6337L96.0873 99.2786C97.7579 98.7875 99.2594 97.8425 100.425 96.5487" stroke="black" stroke-opacity="0.2" stroke-width="3" stroke-linecap="round" stroke-linejoin="round"/>
<path d="M111.998 87.7109L116.199 94.9558C116.361 95.1604 116.476 95.3984 116.534 95.6528C116.592 95.9071 116.594 96.1713 116.537 96.4259C116.44 96.6089 116.304 96.7687 116.139 96.8947C115.975 97.0207 115.785 97.11 115.583 97.1566C115.311 97.2604 115.017 97.2932 114.729 97.252C114.511 97.1955 114.311 97.0867 114.145 96.9352C113.979 96.7837 113.853 96.5941 113.778 96.3826C113.631 95.9577 113.581 95.5053 113.633 95.0587C113.733 93.6336 114.222 92.1487 113.689 90.8208" stroke="#EF76B0" stroke-width="3" stroke-linecap="round" stroke-linejoin="round"/>
<path d="M111.998 87.7109L116.199 94.9558C116.361 95.1604 116.476 95.3984 116.534 95.6528C116.592 95.9071 116.594 96.1713 116.537 96.4259C116.44 96.6089 116.304 96.7687 116.139 96.8947C115.975 97.0207 115.785 97.11 115.583 97.1566C115.311 97.2604 115.017 97.2932 114.729 97.252C114.511 97.1955 114.311 97.0867 114.145 96.9352C113.979 96.7837 113.853 96.5941 113.778 96.3826C113.631 95.9577 113.581 95.5053 113.633 95.0587C113.733 93.6336 114.222 92.1487 113.689 90.8208" stroke="black" stroke-opacity="0.2" stroke-width="3" stroke-linecap="round" stroke-linejoin="round"/>
<path d="M111.998 87.7109L116.199 94.9558C116.361 95.1604 116.476 95.3984 116.534 95.6528C116.592 95.9071 116.594 96.1713 116.537 96.4259C116.44 96.6089 116.304 96.7687 116.139 96.8947C115.975 97.0207 115.785 97.11 115.583 97.1566C115.311 97.2604 115.017 97.2932 114.729 97.252C114.511 97.1955 114.311 97.0867 114.145 96.9352C113.979 96.7837 113.853 96.5941 113.778 96.3826C113.631 95.9577 113.581 95.5053 113.633 95.0587C113.733 93.6336 114.222 92.1487 113.689 90.8208" stroke="black" stroke-opacity="0.2" stroke-width="3" stroke-linecap="round" stroke-linejoin="round"/>
<path d="M111.998 87.7109L116.199 94.9558C116.361 95.1604 116.476 95.3984 116.534 95.6528C116.592 95.9071 116.594 96.1713 116.537 96.4259C116.44 96.6089 116.304 96.7687 116.139 96.8947C115.975 97.0207 115.785 97.11 115.583 97.1566C115.311 97.2604 115.017 97.2932 114.729 97.252C114.511 97.1955 114.311 97.0867 114.145 96.9352C113.979 96.7837 113.853 96.5941 113.778 96.3826C113.631 95.9577 113.581 95.5053 113.633 95.0587C113.733 93.6336 114.222 92.1487 113.689 90.8208" stroke="black" stroke-opacity="0.2" stroke-width="3" stroke-linecap="round" stroke-linejoin="round"/>
<path d="M111.998 87.7109L116.199 94.9558C116.361 95.1604 116.476 95.3984 116.534 95.6528C116.592 95.9071 116.594 96.1713 116.537 96.4259C116.44 96.6089 116.304 96.7687 116.139 96.8947C115.975 97.0207 115.785 97.11 115.583 97.1566C115.311 97.2604 115.017 97.2932 114.729 97.252C114.511 97.1955 114.311 97.0867 114.145 96.9352C113.979 96.7837 113.853 96.5941 113.778 96.3826C113.631 95.9577 113.581 95.5053 113.633 95.0587C113.733 93.6336 114.222 92.1487 113.689 90.8208" stroke="black" stroke-opacity="0.2" stroke-width="3" stroke-linecap="round" stroke-linejoin="round"/>
<path d="M111.998 87.7109L116.199 94.9558C116.361 95.1604 116.476 95.3984 116.534 95.6528C116.592 95.9071 116.594 96.1713 116.537 96.4259C116.44 96.6089 116.304 96.7687 116.139 96.8947C115.975 97.0207 115.785 97.11 115.583 97.1566C115.311 97.2604 115.017 97.2932 114.729 97.252C114.511 97.1955 114.311 97.0867 114.145 96.9352C113.979 96.7837 113.853 96.5941 113.778 96.3826C113.631 95.9577 113.581 95.5053 113.633 95.0587C113.733 93.6336 114.222 92.1487 113.689 90.8208" stroke="black" stroke-opacity="0.2" stroke-width="3" stroke-linecap="round" stroke-linejoin="round"/>
<path d="M111.998 87.7109L116.199 94.9558C116.361 95.1604 116.476 95.3984 116.534 95.6528C116.592 95.9071 116.594 96.1713 116.537 96.4259C116.44 96.6089 116.304 96.7687 116.139 96.8947C115.975 97.0207 115.785 97.11 115.583 97.1566C115.311 97.2604 115.017 97.2932 114.729 97.252C114.511 97.1955 114.311 97.0867 114.145 96.9352C113.979 96.7837 113.853 96.5941 113.778 96.3826C113.631 95.9577 113.581 95.5053 113.633 95.0587C113.733 93.6336 114.222 92.1487 113.689 90.8208" stroke="black" stroke-opacity="0.2" stroke-width="3" stroke-linecap="round" stroke-linejoin="round"/>
<path d="M108.433 87.1752C109.568 87.1418 110.687 87.4517 111.643 88.0644C112.593 88.6758 113.474 89.3867 114.273 90.1849" stroke="#EF76B0" stroke-width="3" stroke-linecap="round" stroke-linejoin="round"/>
<path d="M108.433 87.1752C109.568 87.1418 110.687 87.4517 111.643 88.0644C112.593 88.6758 113.474 89.3867 114.273 90.1849" stroke="black" stroke-opacity="0.2" stroke-width="3" stroke-linecap="round" stroke-linejoin="round"/>
<path d="M108.433 87.1752C109.568 87.1418 110.687 87.4517 111.643 88.0644C112.593 88.6758 113.474 89.3867 114.273 90.1849" stroke="black" stroke-opacity="0.2" stroke-width="3" stroke-linecap="round" stroke-linejoin="round"/>
<path d="M108.433 87.1752C109.568 87.1418 110.687 87.4517 111.643 88.0644C112.593 88.6758 113.474 89.3867 114.273 90.1849" stroke="black" stroke-opacity="0.2" stroke-width="3" stroke-linecap="round" stroke-linejoin="round"/>
<path d="M108.433 87.1752C109.568 87.1418 110.687 87.4517 111.643 88.0644C112.593 88.6758 113.474 89.3867 114.273 90.1849" stroke="black" stroke-opacity="0.2" stroke-width="3" stroke-linecap="round" stroke-linejoin="round"/>
<path d="M108.433 87.1752C109.568 87.1418 110.687 87.4517 111.643 88.0644C112.593 88.6758 113.474 89.3867 114.273 90.1849" stroke="black" stroke-opacity="0.2" stroke-width="3" stroke-linecap="round" stroke-linejoin="round"/>
<path d="M108.433 87.1752C109.568 87.1418 110.687 87.4517 111.643 88.0644C112.593 88.6758 113.474 89.3867 114.273 90.1849" stroke="black" stroke-opacity="0.2" stroke-width="3" stroke-linecap="round" stroke-linejoin="round"/>
</svg>
