<svg width="30" height="30" viewBox="0 0 30 30" fill="none" xmlns="http://www.w3.org/2000/svg">
<circle cx="15" cy="15" r="15" fill="white"/>
<path d="M10.4179 13.2377C11.7775 16.2303 13.968 18.6837 16.64 20.2064L18.7172 17.88C18.9815 17.5839 19.3498 17.4993 19.6802 17.6156C20.7377 18.0069 21.8707 18.2184 23.0509 18.2184C23.3013 18.2184 23.5415 18.3298 23.7185 18.5281C23.8956 18.7264 23.9951 18.9954 23.9951 19.2759V22.977C23.9951 23.2575 23.8956 23.5264 23.7185 23.7248C23.5415 23.9231 23.3013 24.0345 23.0509 24.0345C18.7939 24.0345 14.7113 22.1405 11.7012 18.7691C8.69107 15.3978 7 10.8253 7 6.05747C7 5.77701 7.09947 5.50804 7.27654 5.30973C7.45361 5.11141 7.69376 5 7.94417 5H11.2488C11.4992 5 11.7393 5.11141 11.9164 5.30973C12.0935 5.50804 12.1929 5.77701 12.1929 6.05747C12.1929 7.37931 12.3818 8.64828 12.7311 9.83264C12.835 10.2028 12.7594 10.6152 12.4951 10.9113L10.4179 13.2377Z" fill="#EF76B0"/>
<path d="M10.4179 13.2377C11.7775 16.2303 13.968 18.6837 16.64 20.2064L18.7172 17.88C18.9815 17.5839 19.3498 17.4993 19.6802 17.6156C20.7377 18.0069 21.8707 18.2184 23.0509 18.2184C23.3013 18.2184 23.5415 18.3298 23.7185 18.5281C23.8956 18.7264 23.9951 18.9954 23.9951 19.2759V22.977C23.9951 23.2575 23.8956 23.5264 23.7185 23.7248C23.5415 23.9231 23.3013 24.0345 23.0509 24.0345C18.7939 24.0345 14.7113 22.1405 11.7012 18.7691C8.69107 15.3978 7 10.8253 7 6.05747C7 5.77701 7.09947 5.50804 7.27654 5.30973C7.45361 5.11141 7.69376 5 7.94417 5H11.2488C11.4992 5 11.7393 5.11141 11.9164 5.30973C12.0935 5.50804 12.1929 5.77701 12.1929 6.05747C12.1929 7.37931 12.3818 8.64828 12.7311 9.83264C12.835 10.2028 12.7594 10.6152 12.4951 10.9113L10.4179 13.2377Z" fill="black" fill-opacity="0.2"/>
<path d="M10.4179 13.2377C11.7775 16.2303 13.968 18.6837 16.64 20.2064L18.7172 17.88C18.9815 17.5839 19.3498 17.4993 19.6802 17.6156C20.7377 18.0069 21.8707 18.2184 23.0509 18.2184C23.3013 18.2184 23.5415 18.3298 23.7185 18.5281C23.8956 18.7264 23.9951 18.9954 23.9951 19.2759V22.977C23.9951 23.2575 23.8956 23.5264 23.7185 23.7248C23.5415 23.9231 23.3013 24.0345 23.0509 24.0345C18.7939 24.0345 14.7113 22.1405 11.7012 18.7691C8.69107 15.3978 7 10.8253 7 6.05747C7 5.77701 7.09947 5.50804 7.27654 5.30973C7.45361 5.11141 7.69376 5 7.94417 5H11.2488C11.4992 5 11.7393 5.11141 11.9164 5.30973C12.0935 5.50804 12.1929 5.77701 12.1929 6.05747C12.1929 7.37931 12.3818 8.64828 12.7311 9.83264C12.835 10.2028 12.7594 10.6152 12.4951 10.9113L10.4179 13.2377Z" fill="black" fill-opacity="0.2"/>
<path d="M10.4179 13.2377C11.7775 16.2303 13.968 18.6837 16.64 20.2064L18.7172 17.88C18.9815 17.5839 19.3498 17.4993 19.6802 17.6156C20.7377 18.0069 21.8707 18.2184 23.0509 18.2184C23.3013 18.2184 23.5415 18.3298 23.7185 18.5281C23.8956 18.7264 23.9951 18.9954 23.9951 19.2759V22.977C23.9951 23.2575 23.8956 23.5264 23.7185 23.7248C23.5415 23.9231 23.3013 24.0345 23.0509 24.0345C18.7939 24.0345 14.7113 22.1405 11.7012 18.7691C8.69107 15.3978 7 10.8253 7 6.05747C7 5.77701 7.09947 5.50804 7.27654 5.30973C7.45361 5.11141 7.69376 5 7.94417 5H11.2488C11.4992 5 11.7393 5.11141 11.9164 5.30973C12.0935 5.50804 12.1929 5.77701 12.1929 6.05747C12.1929 7.37931 12.3818 8.64828 12.7311 9.83264C12.835 10.2028 12.7594 10.6152 12.4951 10.9113L10.4179 13.2377Z" fill="black" fill-opacity="0.2"/>
<path d="M10.4179 13.2377C11.7775 16.2303 13.968 18.6837 16.64 20.2064L18.7172 17.88C18.9815 17.5839 19.3498 17.4993 19.6802 17.6156C20.7377 18.0069 21.8707 18.2184 23.0509 18.2184C23.3013 18.2184 23.5415 18.3298 23.7185 18.5281C23.8956 18.7264 23.9951 18.9954 23.9951 19.2759V22.977C23.9951 23.2575 23.8956 23.5264 23.7185 23.7248C23.5415 23.9231 23.3013 24.0345 23.0509 24.0345C18.7939 24.0345 14.7113 22.1405 11.7012 18.7691C8.69107 15.3978 7 10.8253 7 6.05747C7 5.77701 7.09947 5.50804 7.27654 5.30973C7.45361 5.11141 7.69376 5 7.94417 5H11.2488C11.4992 5 11.7393 5.11141 11.9164 5.30973C12.0935 5.50804 12.1929 5.77701 12.1929 6.05747C12.1929 7.37931 12.3818 8.64828 12.7311 9.83264C12.835 10.2028 12.7594 10.6152 12.4951 10.9113L10.4179 13.2377Z" fill="black" fill-opacity="0.2"/>
<path d="M10.4179 13.2377C11.7775 16.2303 13.968 18.6837 16.64 20.2064L18.7172 17.88C18.9815 17.5839 19.3498 17.4993 19.6802 17.6156C20.7377 18.0069 21.8707 18.2184 23.0509 18.2184C23.3013 18.2184 23.5415 18.3298 23.7185 18.5281C23.8956 18.7264 23.9951 18.9954 23.9951 19.2759V22.977C23.9951 23.2575 23.8956 23.5264 23.7185 23.7248C23.5415 23.9231 23.3013 24.0345 23.0509 24.0345C18.7939 24.0345 14.7113 22.1405 11.7012 18.7691C8.69107 15.3978 7 10.8253 7 6.05747C7 5.77701 7.09947 5.50804 7.27654 5.30973C7.45361 5.11141 7.69376 5 7.94417 5H11.2488C11.4992 5 11.7393 5.11141 11.9164 5.30973C12.0935 5.50804 12.1929 5.77701 12.1929 6.05747C12.1929 7.37931 12.3818 8.64828 12.7311 9.83264C12.835 10.2028 12.7594 10.6152 12.4951 10.9113L10.4179 13.2377Z" fill="black" fill-opacity="0.2"/>
<path d="M10.4179 13.2377C11.7775 16.2303 13.968 18.6837 16.64 20.2064L18.7172 17.88C18.9815 17.5839 19.3498 17.4993 19.6802 17.6156C20.7377 18.0069 21.8707 18.2184 23.0509 18.2184C23.3013 18.2184 23.5415 18.3298 23.7185 18.5281C23.8956 18.7264 23.9951 18.9954 23.9951 19.2759V22.977C23.9951 23.2575 23.8956 23.5264 23.7185 23.7248C23.5415 23.9231 23.3013 24.0345 23.0509 24.0345C18.7939 24.0345 14.7113 22.1405 11.7012 18.7691C8.69107 15.3978 7 10.8253 7 6.05747C7 5.77701 7.09947 5.50804 7.27654 5.30973C7.45361 5.11141 7.69376 5 7.94417 5H11.2488C11.4992 5 11.7393 5.11141 11.9164 5.30973C12.0935 5.50804 12.1929 5.77701 12.1929 6.05747C12.1929 7.37931 12.3818 8.64828 12.7311 9.83264C12.835 10.2028 12.7594 10.6152 12.4951 10.9113L10.4179 13.2377Z" fill="black" fill-opacity="0.2"/>
</svg>
