<svg width="150" height="150" viewBox="0 0 150 150" fill="none" xmlns="http://www.w3.org/2000/svg">
<g clip-path="url(#clip0_377_2477)">
<path d="M44.8222 36.3622C42.487 39.3064 40.5568 42.5504 39.0834 46.0074C37.1903 49.6935 35.5992 53.527 34.3259 57.4704C32.4796 63.7647 32.2801 70.4203 32.4204 76.9771C32.4304 79.8349 32.6612 82.6876 33.1106 85.5099C34.3023 92.0983 37.4984 98.1585 42.2625 102.863C43.1216 103.73 44.0638 104.511 45.0755 105.195C50.9424 109.042 59.8282 107.017 63.4549 101.013C64.2317 99.6338 64.8818 98.187 65.3974 96.6905C70.5662 83.0393 75.7962 69.0977 76.4093 54.5131C76.5551 50.9985 76.4087 47.3664 74.97 44.1569C74.0396 42.2771 72.8961 40.5107 71.5621 38.8922C68.7176 35.1605 64.5037 29.1704 59.2743 29.1809C53.918 29.1942 48.2573 32.4079 44.8222 36.3622Z" fill="#19FFE8" stroke="white" stroke-width="19" stroke-linecap="round" stroke-linejoin="round"/>
<path d="M91.2092 43.9921C88.8742 46.937 86.9441 50.1812 85.4702 53.6383C83.5775 57.3246 81.9864 61.1581 80.7127 65.1013C78.8664 71.3956 78.6671 78.0502 78.8072 84.608C78.8172 87.4658 79.048 90.3185 79.4974 93.1408C80.6885 99.7311 83.8851 105.793 88.6505 110.498C89.5096 111.366 90.4518 112.146 91.4635 112.83C97.3302 116.678 106.216 114.653 109.843 108.649C110.619 107.27 111.27 105.823 111.785 104.327C116.954 90.6756 122.184 76.734 122.797 62.1493C122.943 58.6338 122.797 55.0026 121.364 51.7932C120.433 49.914 119.288 48.1478 117.955 46.5293C115.11 42.7976 110.897 36.8076 105.668 36.8192C100.303 36.8257 94.6428 40.0406 91.2092 43.9921Z" fill="white" stroke="white" stroke-width="19" stroke-linecap="round" stroke-linejoin="round"/>
<path d="M44.8222 36.3622C42.487 39.3064 40.5568 42.5504 39.0834 46.0074C37.1903 49.6935 35.5992 53.527 34.3259 57.4704C32.4796 63.7647 32.2801 70.4203 32.4204 76.9771C32.4304 79.8349 32.6612 82.6876 33.1106 85.5099C34.3023 92.0983 37.4984 98.1585 42.2625 102.863C43.1216 103.73 44.0638 104.511 45.0755 105.195C50.9424 109.042 59.8282 107.017 63.4549 101.013C64.2317 99.6338 64.8818 98.187 65.3974 96.6905C70.5662 83.0393 75.7962 69.0977 76.4093 54.5131C76.5551 50.9985 76.4087 47.3664 74.97 44.1569C74.0396 42.2771 72.8961 40.5107 71.5621 38.8922C68.7176 35.1605 64.5037 29.1704 59.2743 29.1809C53.918 29.1942 48.2573 32.4079 44.8222 36.3622Z" fill="white"/>
<path d="M44.8222 36.3622C42.487 39.3064 40.5568 42.5504 39.0834 46.0074C37.1903 49.6935 35.5992 53.527 34.3259 57.4704C32.4796 63.7647 32.2801 70.4203 32.4204 76.9771C32.4304 79.8349 32.6612 82.6876 33.1106 85.5099C34.3023 92.0983 37.4984 98.1585 42.2625 102.863C43.1216 103.73 44.0638 104.511 45.0755 105.195C50.9424 109.042 59.8282 107.017 63.4549 101.013C64.2317 99.6338 64.8818 98.187 65.3974 96.6905C70.5662 83.0393 75.7962 69.0977 76.4093 54.5131C76.5551 50.9985 76.4087 47.3664 74.97 44.1569C74.0396 42.2771 72.8961 40.5107 71.5621 38.8922C68.7176 35.1605 64.5037 29.1704 59.2743 29.1809C53.918 29.1942 48.2573 32.4079 44.8222 36.3622Z" stroke="#EF76B0" stroke-width="3" stroke-linecap="round" stroke-linejoin="round"/>
<path d="M44.8222 36.3622C42.487 39.3064 40.5568 42.5504 39.0834 46.0074C37.1903 49.6935 35.5992 53.527 34.3259 57.4704C32.4796 63.7647 32.2801 70.4203 32.4204 76.9771C32.4304 79.8349 32.6612 82.6876 33.1106 85.5099C34.3023 92.0983 37.4984 98.1585 42.2625 102.863C43.1216 103.73 44.0638 104.511 45.0755 105.195C50.9424 109.042 59.8282 107.017 63.4549 101.013C64.2317 99.6338 64.8818 98.187 65.3974 96.6905C70.5662 83.0393 75.7962 69.0977 76.4093 54.5131C76.5551 50.9985 76.4087 47.3664 74.97 44.1569C74.0396 42.2771 72.8961 40.5107 71.5621 38.8922C68.7176 35.1605 64.5037 29.1704 59.2743 29.1809C53.918 29.1942 48.2573 32.4079 44.8222 36.3622Z" stroke="black" stroke-opacity="0.2" stroke-width="3" stroke-linecap="round" stroke-linejoin="round"/>
<path d="M44.8222 36.3622C42.487 39.3064 40.5568 42.5504 39.0834 46.0074C37.1903 49.6935 35.5992 53.527 34.3259 57.4704C32.4796 63.7647 32.2801 70.4203 32.4204 76.9771C32.4304 79.8349 32.6612 82.6876 33.1106 85.5099C34.3023 92.0983 37.4984 98.1585 42.2625 102.863C43.1216 103.73 44.0638 104.511 45.0755 105.195C50.9424 109.042 59.8282 107.017 63.4549 101.013C64.2317 99.6338 64.8818 98.187 65.3974 96.6905C70.5662 83.0393 75.7962 69.0977 76.4093 54.5131C76.5551 50.9985 76.4087 47.3664 74.97 44.1569C74.0396 42.2771 72.8961 40.5107 71.5621 38.8922C68.7176 35.1605 64.5037 29.1704 59.2743 29.1809C53.918 29.1942 48.2573 32.4079 44.8222 36.3622Z" stroke="black" stroke-opacity="0.2" stroke-width="3" stroke-linecap="round" stroke-linejoin="round"/>
<path d="M44.8222 36.3622C42.487 39.3064 40.5568 42.5504 39.0834 46.0074C37.1903 49.6935 35.5992 53.527 34.3259 57.4704C32.4796 63.7647 32.2801 70.4203 32.4204 76.9771C32.4304 79.8349 32.6612 82.6876 33.1106 85.5099C34.3023 92.0983 37.4984 98.1585 42.2625 102.863C43.1216 103.73 44.0638 104.511 45.0755 105.195C50.9424 109.042 59.8282 107.017 63.4549 101.013C64.2317 99.6338 64.8818 98.187 65.3974 96.6905C70.5662 83.0393 75.7962 69.0977 76.4093 54.5131C76.5551 50.9985 76.4087 47.3664 74.97 44.1569C74.0396 42.2771 72.8961 40.5107 71.5621 38.8922C68.7176 35.1605 64.5037 29.1704 59.2743 29.1809C53.918 29.1942 48.2573 32.4079 44.8222 36.3622Z" stroke="black" stroke-opacity="0.2" stroke-width="3" stroke-linecap="round" stroke-linejoin="round"/>
<path d="M44.8222 36.3622C42.487 39.3064 40.5568 42.5504 39.0834 46.0074C37.1903 49.6935 35.5992 53.527 34.3259 57.4704C32.4796 63.7647 32.2801 70.4203 32.4204 76.9771C32.4304 79.8349 32.6612 82.6876 33.1106 85.5099C34.3023 92.0983 37.4984 98.1585 42.2625 102.863C43.1216 103.73 44.0638 104.511 45.0755 105.195C50.9424 109.042 59.8282 107.017 63.4549 101.013C64.2317 99.6338 64.8818 98.187 65.3974 96.6905C70.5662 83.0393 75.7962 69.0977 76.4093 54.5131C76.5551 50.9985 76.4087 47.3664 74.97 44.1569C74.0396 42.2771 72.8961 40.5107 71.5621 38.8922C68.7176 35.1605 64.5037 29.1704 59.2743 29.1809C53.918 29.1942 48.2573 32.4079 44.8222 36.3622Z" stroke="black" stroke-opacity="0.2" stroke-width="3" stroke-linecap="round" stroke-linejoin="round"/>
<path d="M44.8222 36.3622C42.487 39.3064 40.5568 42.5504 39.0834 46.0074C37.1903 49.6935 35.5992 53.527 34.3259 57.4704C32.4796 63.7647 32.2801 70.4203 32.4204 76.9771C32.4304 79.8349 32.6612 82.6876 33.1106 85.5099C34.3023 92.0983 37.4984 98.1585 42.2625 102.863C43.1216 103.73 44.0638 104.511 45.0755 105.195C50.9424 109.042 59.8282 107.017 63.4549 101.013C64.2317 99.6338 64.8818 98.187 65.3974 96.6905C70.5662 83.0393 75.7962 69.0977 76.4093 54.5131C76.5551 50.9985 76.4087 47.3664 74.97 44.1569C74.0396 42.2771 72.8961 40.5107 71.5621 38.8922C68.7176 35.1605 64.5037 29.1704 59.2743 29.1809C53.918 29.1942 48.2573 32.4079 44.8222 36.3622Z" stroke="black" stroke-opacity="0.2" stroke-width="3" stroke-linecap="round" stroke-linejoin="round"/>
<path d="M44.8222 36.3622C42.487 39.3064 40.5568 42.5504 39.0834 46.0074C37.1903 49.6935 35.5992 53.527 34.3259 57.4704C32.4796 63.7647 32.2801 70.4203 32.4204 76.9771C32.4304 79.8349 32.6612 82.6876 33.1106 85.5099C34.3023 92.0983 37.4984 98.1585 42.2625 102.863C43.1216 103.73 44.0638 104.511 45.0755 105.195C50.9424 109.042 59.8282 107.017 63.4549 101.013C64.2317 99.6338 64.8818 98.187 65.3974 96.6905C70.5662 83.0393 75.7962 69.0977 76.4093 54.5131C76.5551 50.9985 76.4087 47.3664 74.97 44.1569C74.0396 42.2771 72.8961 40.5107 71.5621 38.8922C68.7176 35.1605 64.5037 29.1704 59.2743 29.1809C53.918 29.1942 48.2573 32.4079 44.8222 36.3622Z" stroke="black" stroke-opacity="0.2" stroke-width="3" stroke-linecap="round" stroke-linejoin="round"/>
<path d="M91.2092 43.9921C88.8742 46.937 86.9441 50.1812 85.4702 53.6383C83.5775 57.3246 81.9864 61.1581 80.7127 65.1013C78.8664 71.3956 78.6671 78.0502 78.8072 84.608C78.8172 87.4658 79.048 90.3185 79.4974 93.1408C80.6885 99.7311 83.8851 105.793 88.6505 110.498C89.5096 111.366 90.4518 112.146 91.4635 112.83C97.3302 116.678 106.216 114.653 109.843 108.649C110.619 107.27 111.27 105.823 111.785 104.327C116.954 90.6756 122.184 76.734 122.797 62.1493C122.943 58.6338 122.797 55.0026 121.364 51.7932C120.433 49.914 119.288 48.1478 117.955 46.5293C115.11 42.7976 110.897 36.8076 105.668 36.8192C100.303 36.8257 94.6428 40.0406 91.2092 43.9921Z" fill="white"/>
<path d="M91.2092 43.9921C88.8742 46.937 86.9441 50.1812 85.4702 53.6383C83.5775 57.3246 81.9864 61.1581 80.7127 65.1013C78.8664 71.3956 78.6671 78.0502 78.8072 84.608C78.8172 87.4658 79.048 90.3185 79.4974 93.1408C80.6885 99.7311 83.8851 105.793 88.6505 110.498C89.5096 111.366 90.4518 112.146 91.4635 112.83C97.3302 116.678 106.216 114.653 109.843 108.649C110.619 107.27 111.27 105.823 111.785 104.327C116.954 90.6756 122.184 76.734 122.797 62.1493C122.943 58.6338 122.797 55.0026 121.364 51.7932C120.433 49.914 119.288 48.1478 117.955 46.5293C115.11 42.7976 110.897 36.8076 105.668 36.8192C100.303 36.8257 94.6428 40.0406 91.2092 43.9921Z" stroke="#EF76B0" stroke-width="3" stroke-linecap="round" stroke-linejoin="round"/>
<path d="M91.2092 43.9921C88.8742 46.937 86.9441 50.1812 85.4702 53.6383C83.5775 57.3246 81.9864 61.1581 80.7127 65.1013C78.8664 71.3956 78.6671 78.0502 78.8072 84.608C78.8172 87.4658 79.048 90.3185 79.4974 93.1408C80.6885 99.7311 83.8851 105.793 88.6505 110.498C89.5096 111.366 90.4518 112.146 91.4635 112.83C97.3302 116.678 106.216 114.653 109.843 108.649C110.619 107.27 111.27 105.823 111.785 104.327C116.954 90.6756 122.184 76.734 122.797 62.1493C122.943 58.6338 122.797 55.0026 121.364 51.7932C120.433 49.914 119.288 48.1478 117.955 46.5293C115.11 42.7976 110.897 36.8076 105.668 36.8192C100.303 36.8257 94.6428 40.0406 91.2092 43.9921Z" stroke="black" stroke-opacity="0.2" stroke-width="3" stroke-linecap="round" stroke-linejoin="round"/>
<path d="M91.2092 43.9921C88.8742 46.937 86.9441 50.1812 85.4702 53.6383C83.5775 57.3246 81.9864 61.1581 80.7127 65.1013C78.8664 71.3956 78.6671 78.0502 78.8072 84.608C78.8172 87.4658 79.048 90.3185 79.4974 93.1408C80.6885 99.7311 83.8851 105.793 88.6505 110.498C89.5096 111.366 90.4518 112.146 91.4635 112.83C97.3302 116.678 106.216 114.653 109.843 108.649C110.619 107.27 111.27 105.823 111.785 104.327C116.954 90.6756 122.184 76.734 122.797 62.1493C122.943 58.6338 122.797 55.0026 121.364 51.7932C120.433 49.914 119.288 48.1478 117.955 46.5293C115.11 42.7976 110.897 36.8076 105.668 36.8192C100.303 36.8257 94.6428 40.0406 91.2092 43.9921Z" stroke="black" stroke-opacity="0.2" stroke-width="3" stroke-linecap="round" stroke-linejoin="round"/>
<path d="M91.2092 43.9921C88.8742 46.937 86.9441 50.1812 85.4702 53.6383C83.5775 57.3246 81.9864 61.1581 80.7127 65.1013C78.8664 71.3956 78.6671 78.0502 78.8072 84.608C78.8172 87.4658 79.048 90.3185 79.4974 93.1408C80.6885 99.7311 83.8851 105.793 88.6505 110.498C89.5096 111.366 90.4518 112.146 91.4635 112.83C97.3302 116.678 106.216 114.653 109.843 108.649C110.619 107.27 111.27 105.823 111.785 104.327C116.954 90.6756 122.184 76.734 122.797 62.1493C122.943 58.6338 122.797 55.0026 121.364 51.7932C120.433 49.914 119.288 48.1478 117.955 46.5293C115.11 42.7976 110.897 36.8076 105.668 36.8192C100.303 36.8257 94.6428 40.0406 91.2092 43.9921Z" stroke="black" stroke-opacity="0.2" stroke-width="3" stroke-linecap="round" stroke-linejoin="round"/>
<path d="M91.2092 43.9921C88.8742 46.937 86.9441 50.1812 85.4702 53.6383C83.5775 57.3246 81.9864 61.1581 80.7127 65.1013C78.8664 71.3956 78.6671 78.0502 78.8072 84.608C78.8172 87.4658 79.048 90.3185 79.4974 93.1408C80.6885 99.7311 83.8851 105.793 88.6505 110.498C89.5096 111.366 90.4518 112.146 91.4635 112.83C97.3302 116.678 106.216 114.653 109.843 108.649C110.619 107.27 111.27 105.823 111.785 104.327C116.954 90.6756 122.184 76.734 122.797 62.1493C122.943 58.6338 122.797 55.0026 121.364 51.7932C120.433 49.914 119.288 48.1478 117.955 46.5293C115.11 42.7976 110.897 36.8076 105.668 36.8192C100.303 36.8257 94.6428 40.0406 91.2092 43.9921Z" stroke="black" stroke-opacity="0.2" stroke-width="3" stroke-linecap="round" stroke-linejoin="round"/>
<path d="M91.2092 43.9921C88.8742 46.937 86.9441 50.1812 85.4702 53.6383C83.5775 57.3246 81.9864 61.1581 80.7127 65.1013C78.8664 71.3956 78.6671 78.0502 78.8072 84.608C78.8172 87.4658 79.048 90.3185 79.4974 93.1408C80.6885 99.7311 83.8851 105.793 88.6505 110.498C89.5096 111.366 90.4518 112.146 91.4635 112.83C97.3302 116.678 106.216 114.653 109.843 108.649C110.619 107.27 111.27 105.823 111.785 104.327C116.954 90.6756 122.184 76.734 122.797 62.1493C122.943 58.6338 122.797 55.0026 121.364 51.7932C120.433 49.914 119.288 48.1478 117.955 46.5293C115.11 42.7976 110.897 36.8076 105.668 36.8192C100.303 36.8257 94.6428 40.0406 91.2092 43.9921Z" stroke="black" stroke-opacity="0.2" stroke-width="3" stroke-linecap="round" stroke-linejoin="round"/>
<path d="M91.2092 43.9921C88.8742 46.937 86.9441 50.1812 85.4702 53.6383C83.5775 57.3246 81.9864 61.1581 80.7127 65.1013C78.8664 71.3956 78.6671 78.0502 78.8072 84.608C78.8172 87.4658 79.048 90.3185 79.4974 93.1408C80.6885 99.7311 83.8851 105.793 88.6505 110.498C89.5096 111.366 90.4518 112.146 91.4635 112.83C97.3302 116.678 106.216 114.653 109.843 108.649C110.619 107.27 111.27 105.823 111.785 104.327C116.954 90.6756 122.184 76.734 122.797 62.1493C122.943 58.6338 122.797 55.0026 121.364 51.7932C120.433 49.914 119.288 48.1478 117.955 46.5293C115.11 42.7976 110.897 36.8076 105.668 36.8192C100.303 36.8257 94.6428 40.0406 91.2092 43.9921Z" stroke="black" stroke-opacity="0.2" stroke-width="3" stroke-linecap="round" stroke-linejoin="round"/>
</g>
<defs>
<clipPath id="clip0_377_2477">
<rect width="128" height="128" fill="white" transform="translate(23.4756) rotate(10.5679)"/>
</clipPath>
</defs>
</svg>
