<svg width="578" height="192" viewBox="0 0 578 192" fill="none" xmlns="http://www.w3.org/2000/svg">
<path d="M49.188 94.4336C47.0641 99.8653 47.7727 104.901 47.9787 110.636C48.2461 118.082 48.4732 125.481 49.0161 132.914" stroke="white" stroke-opacity="0.6" stroke-width="1.90596" stroke-linecap="round"/>
<path d="M48.5771 146.248C47.022 153.708 47.7215 160.98 48.3692 168.522C48.9843 175.685 49.8473 182.821 50.6963 189.959" stroke="white" stroke-opacity="0.6" stroke-width="1.90596" stroke-linecap="round"/>
<path d="M1.3418 147.998C6.11234 145.883 10.6096 145.797 15.744 145.45C23.5122 144.924 30.9958 143.925 38.6299 142.443" stroke="white" stroke-opacity="0.6" stroke-width="1.90596" stroke-linecap="round"/>
<path d="M55.9084 140.256C69.0993 139.415 82.0826 137.233 95.163 135.425" stroke="white" stroke-opacity="0.6" stroke-width="1.90596" stroke-linecap="round"/>
<path d="M58.3691 133.838L62.597 126.196" stroke="white" stroke-opacity="0.6" stroke-width="1.90596" stroke-linecap="round"/>
<path d="M39.0112 152.342L33.8774 157.396" stroke="white" stroke-opacity="0.6" stroke-width="1.90596" stroke-linecap="round"/>
<path d="M62.2646 150.355L67.3684 153.785" stroke="white" stroke-opacity="0.6" stroke-width="1.90596" stroke-linecap="round"/>
<path d="M37.3203 129.355C31.7902 127.688 26.8695 125.239 21.6167 122.887" stroke="white" stroke-opacity="0.6" stroke-width="1.90596" stroke-linecap="round"/>
<g clip-path="url(#clip0_422_2495)">
<path d="M547.933 0.897461C546.597 4.29916 547.043 7.45296 547.172 11.0442C547.34 15.7074 547.483 20.3413 547.825 24.9963" stroke="white" stroke-opacity="0.6" stroke-width="1.90596" stroke-linecap="round"/>
<path d="M547.548 33.3467C546.57 38.0187 547.01 42.5726 547.418 47.2962C547.804 51.7821 548.347 56.2512 548.881 60.7215" stroke="white" stroke-opacity="0.6" stroke-width="1.90596" stroke-linecap="round"/>
<path d="M517.844 34.4433C520.844 33.1188 523.672 33.065 526.901 32.8477C531.786 32.5187 536.492 31.8926 541.293 30.9648" stroke="white" stroke-opacity="0.6" stroke-width="1.90596" stroke-linecap="round"/>
<path d="M552.159 29.5941C560.454 29.0671 568.619 27.7006 576.845 26.5684" stroke="white" stroke-opacity="0.6" stroke-width="1.90596" stroke-linecap="round"/>
<path d="M553.706 25.5759L556.365 20.79" stroke="white" stroke-opacity="0.6" stroke-width="1.90596" stroke-linecap="round"/>
<path d="M541.533 37.1631L538.304 40.3286" stroke="white" stroke-opacity="0.6" stroke-width="1.90596" stroke-linecap="round"/>
<path d="M556.156 35.9199L559.366 38.0679" stroke="white" stroke-opacity="0.6" stroke-width="1.90596" stroke-linecap="round"/>
<path d="M540.469 22.7678C536.992 21.7236 533.897 20.1898 530.594 18.7168" stroke="white" stroke-opacity="0.6" stroke-width="1.90596" stroke-linecap="round"/>
</g>
<defs>
<clipPath id="clip0_422_2495">
<rect width="61" height="62" fill="white" transform="translate(517)"/>
</clipPath>
</defs>
</svg>
