<?xml version="1.0" encoding="UTF-8"?>
<svg version="1.1" xmlns="http://www.w3.org/2000/svg" width="431" height="43">
<path d="M0 0 C1.32 0 2.64 0 4 0 C3.9278125 0.72703125 3.855625 1.4540625 3.78125 2.203125 C3.10841208 9.49220248 2.88322565 16.68214066 3 24 C8.12779375 21.01872456 10.75269769 17.96646236 14 13 C14.99 13.33 15.98 13.66 17 14 C17 18.29 17 22.58 17 27 C21.97070554 26.00585889 24.7820014 24.80981444 28 21 C29.31207662 18.35626352 30.13341685 15.840467 31 13 C31.99 13 32.98 13 34 13 C34 15.64 34 18.28 34 21 C35.051875 19.5459375 35.051875 19.5459375 36.125 18.0625 C38.21383035 15.54519163 38.91326637 15.02721055 42.1875 14 C43.115625 14 44.04375 14 45 14 C47.3129482 16.3129482 47.49580975 17.47904875 48.125 20.625 C48.29257813 21.44226563 48.46015625 22.25953125 48.6328125 23.1015625 C48.75398438 23.72804688 48.87515625 24.35453125 49 25 C52.8013857 24.77842561 54.00765007 23.99272027 56.82421875 21.3125 C57.79015571 20.21838809 58.74435027 19.11381492 59.6875 18 C64.81027467 12.09486267 64.81027467 12.09486267 67 11 C69.3329866 10.95977609 71.66706666 10.95679753 74 11 C76.30796933 17.92390798 75.02248551 27.91091675 72.6875 34.75 C70.175 39.58888889 70.175 39.58888889 67 41 C62.64684508 41.56429786 60.51581505 41.27701179 56.625 39.1875 C54 37 54 37 53 34 C55.59678151 34.43279692 57.69185241 34.82666698 60 36.125 C62.64977777 37.28427778 64.26937322 36.75850744 67 36 C68.31626692 32.38026598 69 29.90432869 69 26 C67.948125 26.680625 66.89625 27.36125 65.8125 28.0625 C63.18385178 29.57596413 62.35263173 30.03205743 59.25 29.75 C58.5075 29.5025 57.765 29.255 57 29 C54.0745356 28.7763932 54.0745356 28.7763932 52 30 C49 30.25 49 30.25 46 30 C43.43383368 26.15075052 43.44902324 23.5650696 43 19 C38.66590534 22.18683431 35.3810038 25.86378916 32 30 C30.515 29.505 30.515 29.505 29 29 C28.505 28.01 28.505 28.01 28 27 C27.23816406 27.66708984 27.23816406 27.66708984 26.4609375 28.34765625 C20.90576298 32.91455066 20.90576298 32.91455066 16.6875 33.3125 C13.70802165 31.85740592 13.39856044 31.34003311 12.125 28.4375 C11.75375 27.303125 11.3825 26.16875 11 25 C9.6696875 26.0209375 9.6696875 26.0209375 8.3125 27.0625 C5 29 5 29 2.25 29.0625 C0 28 0 28 -1.3125 25.4375 C-1.539375 24.633125 -1.76625 23.82875 -2 23 C-2.67095703 23.72316406 -2.67095703 23.72316406 -3.35546875 24.4609375 C-9.67672833 31.06523856 -9.67672833 31.06523856 -14 32 C-16.1875 31.8125 -16.1875 31.8125 -18 31 C-18.66 30.01 -19.32 29.02 -20 28 C-21.299375 28.556875 -21.299375 28.556875 -22.625 29.125 C-26 30 -26 30 -29.0625 28.875 C-30.031875 28.58625 -31.00125 28.2975 -32 28 C-33.7074998 29.28062485 -35.37373596 30.61767557 -37 32 C-40.25 32.3125 -40.25 32.3125 -43 32 C-44.89885096 30.10114904 -44.12367506 27.42752097 -44.1328125 24.91015625 C-44 23 -44 23 -43 21 C-44.65 20.34 -46.3 19.68 -48 19 C-48.0825 19.886875 -48.165 20.77375 -48.25 21.6875 C-49.25048283 26.10629914 -51.1517624 28.66162105 -54.8125 31.3125 C-57.96237216 32.30245982 -60.7252906 32.24257107 -64 32 C-66 30 -66 30 -66.5 26.375 C-66.38748079 20.20894723 -62.15254684 16.15254684 -58 12 C-54.51502007 11.61278001 -52.62363194 11.60612719 -49.625 13.5 C-46.05039327 15.54263242 -43.03523046 15.64234281 -39 15 C-37.31243867 14.03567924 -35.64333504 13.03789581 -34 12 C-30.75 11.75 -30.75 11.75 -28 12 C-27 13 -27 13 -26.90234375 15.72265625 C-26.91394531 16.82480469 -26.92554688 17.92695313 -26.9375 19.0625 C-26.94652344 20.16722656 -26.95554688 21.27195312 -26.96484375 22.41015625 C-26.97644531 23.26480469 -26.98804688 24.11945312 -27 25 C-22.61171278 24.53316093 -20.71628222 23.76127185 -17.63671875 20.48828125 C-16.06836764 18.52463379 -14.52686046 16.53918523 -13.015625 14.53125 C-11 12 -11 12 -8 10 C-5.375 9.8125 -5.375 9.8125 -3 10 C-2.505 10.495 -2.505 10.495 -2 11 C-1.34 7.37 -0.68 3.74 0 0 Z M-7 13 C-10.74082545 17.29704147 -13.60110152 21.40440609 -15 27 C-14.01 27.495 -14.01 27.495 -13 28 C-11.68412059 26.87895467 -10.37239647 25.75303035 -9.0625 24.625 C-8.33160156 23.99851562 -7.60070312 23.37203125 -6.84765625 22.7265625 C-4.91619094 21.12252286 -4.91619094 21.12252286 -4 19 C-4.60578253 16.98072489 -5.26919734 14.97746603 -6 13 C-6.33 13 -6.66 13 -7 13 Z M64.46484375 17.421875 C62.08300058 19.98791404 61.15788876 22.71931519 60 26 C64.40081711 25.49704947 66.9419884 24.22790113 70 21 C70.89055736 17.35817665 70.89055736 17.35817665 71 14 C68.08974783 14 66.6037321 15.60198956 64.46484375 17.421875 Z M-57 16 C-60.73571867 20.47829204 -60.73571867 20.47829204 -62.3125 25.9375 C-62.209375 26.618125 -62.10625 27.29875 -62 28 C-58.55230934 27.68657358 -56.44059663 27.32465015 -53.625 25.25 C-51.70380934 22.58988985 -51.64340497 21.20935531 -52 18 C-54.475 17.01 -54.475 17.01 -57 16 Z M-35.60546875 17.35546875 C-38.99968016 21.15394246 -38.99968016 21.15394246 -40.375 25.9375 C-40.25125 26.618125 -40.1275 27.29875 -40 28 C-36.61917938 27.74956884 -35.7185873 26.7185873 -33.25 24.25 C-30.98871673 20.98370194 -30.43662913 19.8309219 -31 16 C-33.96814593 15.67744577 -33.96814593 15.67744577 -35.60546875 17.35546875 Z " fill="#FFFFFF" transform="translate(90,0)"/>
<path d="M0 0 C1.32 0 2.64 0 4 0 C3.835 1.299375 3.67 2.59875 3.5 3.9375 C2.71443723 11.60503519 2.91963562 19.30287867 3 27 C6.07745908 25.78534783 9.06176804 24.52352768 12 23 C11.45738189 26.79832675 10.04889927 28.69272487 7 31 C3.875 31.375 3.875 31.375 1 31 C-1.46278801 28.53721199 -1.99771255 26.29323018 -3 23 C-3.763125 23.94875 -4.52625 24.8975 -5.3125 25.875 C-7.15534046 28.16609895 -8.46837417 29.31224944 -11 31 C-13.33199388 31.07905064 -15.66832622 31.08798769 -18 31 C-18.66 29.68 -19.32 28.36 -20 27 C-20.474375 27.474375 -20.94875 27.94875 -21.4375 28.4375 C-25.14443517 30.69782632 -28.68105647 31.22189068 -33 31 C-35.5625 29.6875 -35.5625 29.6875 -37 27 C-37.31036403 23.63859974 -37.23114628 20.36446249 -37 17 C-44.90818015 21.41430483 -47.6109781 25.76951823 -51 34 C-51.99 33.34 -52.98 32.68 -54 32 C-54.2208564 29.04935852 -54.28060989 26.31631769 -54.1875 23.375 C-54.17396484 22.57320312 -54.16042969 21.77140625 -54.14648438 20.9453125 C-54.11109051 18.96325622 -54.05728234 16.98154449 -54 15 C-52.35 14.67 -50.7 14.34 -49 14 C-48.67 15.32 -48.34 16.64 -48 18 C-47.34 17.34 -46.68 16.68 -46 16 C-42.85422557 13.90281704 -42.43193629 13.80776539 -38.9375 14.0625 C-37.638125 14.041875 -36.33875 14.02125 -35 14 C-33.61767557 12.37373596 -32.28062485 10.7074998 -31 9 C-27.75 8.6875 -27.75 8.6875 -25 9 C-24.0625 11.5 -24.0625 11.5 -24 15 C-25.97450538 18.02685165 -28.27855768 20.62250937 -31 23 C-31.66 23 -32.32 23 -33 23 C-32.67 23.99 -32.34 24.98 -32 26 C-25.6717779 25.66693568 -21.5436422 24.55428305 -17 20 C-15.29176547 17.69093815 -13.74703692 15.34852137 -12.26171875 12.890625 C-11 11 -11 11 -9 10 C-5.9375 9.875 -5.9375 9.875 -3 10 C-2.505 10.495 -2.505 10.495 -2 11 C-1.34 7.37 -0.68 3.74 0 0 Z M-30 13 C-30.66 14.65 -31.32 16.3 -32 18 C-31.01 17.67 -30.02 17.34 -29 17 C-28.26676204 14.98491642 -28.26676204 14.98491642 -28 13 C-28.66 13 -29.32 13 -30 13 Z M-7 13 C-8.01318556 14.05158618 -8.98583046 15.1424335 -9.9375 16.25 C-10.46214844 16.85328125 -10.98679687 17.4565625 -11.52734375 18.078125 C-12.99869074 19.99829137 -14.07922731 21.76449217 -15 24 C-14.70194993 26.19747131 -14.70194993 26.19747131 -14 28 C-9.88808234 25.4767778 -6.42521888 23.24413305 -4 19 C-4.62036318 15.71895528 -4.62036318 15.71895528 -6 13 C-6.33 13 -6.66 13 -7 13 Z " fill="#FFFFFF" transform="translate(419,1)"/>
<path d="M0 0 C1.32 0.33 2.64 0.66 4 1 C3.34 6.28 2.68 11.56 2 17 C3.98 15.35 5.96 13.7 8 12 C11.00389568 11.44113569 12.22749346 11.47579913 14.75 13.1875 C16.28838998 15.41816548 16.64005447 17.3364031 17 20 C21.95562913 16.26978687 21.95562913 16.26978687 25 11 C25.99 11 26.98 11 28 11 C27.67 15.29 27.34 19.58 27 24 C31.08730942 22.87799349 33.22221352 22.19555793 35.578125 18.57421875 C36.80703072 16.0775626 37.95083843 13.57697288 39 11 C39.99 11 40.98 11 42 11 C41.49600067 21.70998569 38.45376706 31.90199047 35 42 C34.01 41.67 33.02 41.34 32 41 C32.4452885 35.72684667 33.08373163 30.98229776 35 26 C34.484375 26.33 33.96875 26.66 33.4375 27 C30.21973488 28.32010877 27.4429472 28.13242105 24 28 C23.01 26.02 22.02 24.04 21 22 C19.26972464 23.24846488 17.54083043 24.49884402 15.8125 25.75 C14.36810547 26.79414062 14.36810547 26.79414062 12.89453125 27.859375 C10.98599572 29.27081558 9.12218877 30.74511884 7.3125 32.28125 C5 34 5 34 2.1875 33.75 C1.465625 33.5025 0.74375 33.255 0 33 C0 32.34 0 31.68 0 31 C-1.32 31 -2.64 31 -4 31 C-4.49420201 21.50033921 -4.36971719 8.73943437 0 0 Z M10 15 C8.70145279 16.07507629 7.41141639 17.16043736 6.125 18.25 C5.40570313 18.85328125 4.68640625 19.4565625 3.9453125 20.078125 C1.16521026 22.82473203 0.05258258 24.84318316 -0.125 28.75 C-0.08375 29.4925 -0.0425 30.235 0 31 C4.69214066 28.51592553 8.66278173 26.24736871 12 22 C12.41890218 18.78938212 12.41890218 18.78938212 12 16 C11.34 15.67 10.68 15.34 10 15 Z " fill="#FFFFFF" transform="translate(319,0)"/>
<path d="M0 0 C1.32 0 2.64 0 4 0 C3.56277874 4.08073179 3.07274982 7.9298056 1.9375 11.875 C0.67605664 16.5657005 0.82211134 21.17724067 1 26 C4.40666738 24.80306281 6.65766477 23.75946342 9 21 C9.86597078 18.97539239 10.49914726 16.94022573 11.15625 14.83984375 C12 13 12 13 15 11 C16.60080151 15.00200378 15.29279692 18.04556236 14 22 C19.78046976 20.76361172 19.78046976 20.76361172 24 17 C25.04622875 15.02379014 26.05439935 13.0262871 27 11 C27.99 11 28.98 11 30 11 C29.29791463 17.33654266 27.65627796 23.30812246 25.9375 29.4375 C25.65583984 30.45521484 25.37417969 31.47292969 25.08398438 32.52148438 C24.39317556 35.01542128 23.69842182 37.50818649 23 40 C21.02 40.495 21.02 40.495 19 41 C19.42089996 35.39538469 19.91613111 30.27913453 22 25 C21.01 25.33 20.02 25.66 19 26 C17.56113027 25.94518591 16.12327364 25.85910888 14.6875 25.75 C11.09419103 25.68022701 9.43855676 26.02678252 6.8125 28.5 C4 31 4 31 0.75 31.4375 C-2 31 -2 31 -4 29 C-4.625 26.875 -4.625 26.875 -5 25 C-5.42410156 25.42152344 -5.84820312 25.84304687 -6.28515625 26.27734375 C-10.3554423 30.07925929 -13.18250162 32 -19 32 C-21 30 -21 30 -21.23046875 26.62890625 C-21.22647796 25.2733677 -21.21172505 23.91782794 -21.1875 22.5625 C-21.18685547 21.88123047 -21.18621094 21.19996094 -21.18554688 20.49804688 C-21.15827338 17.40402053 -20.98489776 14.95469327 -20 12 C-19.01 11.67 -18.02 11.34 -17 11 C-16 12 -16 12 -15.90234375 15.37890625 C-15.90901631 16.77347077 -15.92097468 18.16801743 -15.9375 19.5625 C-15.94201172 20.27341797 -15.94652344 20.98433594 -15.95117188 21.71679688 C-15.96299136 23.47790013 -15.98092737 25.23896036 -16 27 C-8.92200954 22.82027298 -5.27118303 19.94912404 -3.20727539 11.9597168 C-2.70064454 9.80588127 -2.22328778 7.64828183 -1.76171875 5.484375 C-1 2 -1 2 0 0 Z " fill="#FFFFFF" transform="translate(282,2)"/>
<path d="M0 0 C0.99 0.33 1.98 0.66 3 1 C2.34 4.63 1.68 8.26 1 12 C1.78503906 11.86722656 2.57007813 11.73445312 3.37890625 11.59765625 C5.54436843 11.23364604 7.71110489 10.87715386 9.87890625 10.52734375 C11.66466223 10.22562027 13.44756671 9.89975137 15.21484375 9.50390625 C18.2856153 8.85212323 19.71321839 8.84227011 22.5 10.375 C24.43426151 13.75995764 24.48312007 15.93346159 23.8671875 19.7421875 C22.23729917 23.98577062 18.95437163 26.02632606 15 28 C9.27210418 29.59629883 9.27210418 29.59629883 6 28.0625 C4.3448571 24.64876777 5.35615045 21.68750194 6 18 C6 17.34 6 16.68 6 16 C4.02 16 2.04 16 0 16 C-0.16808419 18.10405391 -0.33441948 20.20824758 -0.5 22.3125 C-0.5928125 23.48425781 -0.685625 24.65601563 -0.78125 25.86328125 C-0.92364989 27.905194 -1 29.9531279 -1 32 C-2.65 32 -4.3 32 -6 32 C-6.027193 30.41676312 -6.04648306 28.83338938 -6.0625 27.25 C-6.07410156 26.36828125 -6.08570313 25.4865625 -6.09765625 24.578125 C-6.00826198 22.2181162 -5.66912821 20.25501476 -5 18 C-6.98 17.34 -8.96 16.68 -11 16 C-10.67 15.01 -10.34 14.02 -10 13 C-8.02 12.67 -6.04 12.34 -4 12 C-3.79503906 11.21753906 -3.59007812 10.43507813 -3.37890625 9.62890625 C-3.10949219 8.61699219 -2.84007812 7.60507813 -2.5625 6.5625 C-2.29566406 5.55316406 -2.02882812 4.54382813 -1.75390625 3.50390625 C-1 1 -1 1 0 0 Z M12.25 15.0625 C9.83606049 18.21403214 9.27268725 20.0914828 9 24 C10.80719922 24.74988687 10.80719922 24.74988687 13 25 C15.7944044 23.48920412 17.97199909 21.4358358 20 19 C20.58963678 16.24224658 20.58963678 16.24224658 20 14 C16.34442403 12.64221464 15.45053742 12.66209694 12.25 15.0625 Z " fill="#FFFFFF" transform="translate(191,3)"/>
<path d="M0 0 C1.32 0 2.64 0 4 0 C4.16589226 6.02741895 3.57114133 11.57494793 2.5 17.5 C2.35691406 18.32242187 2.21382812 19.14484375 2.06640625 19.9921875 C1.71693088 21.99584627 1.35931844 23.99808298 1 26 C1.59893066 25.84644043 2.19786133 25.69288086 2.81494141 25.53466797 C8.34622713 24.14134893 13.30414367 23.81917916 19 24 C18.67 25.32 18.34 26.64 18 28 C15.45953542 28.50688605 12.91791124 29.00566874 10.375 29.5 C9.66214844 29.64308594 8.94929687 29.78617188 8.21484375 29.93359375 C4.07855065 30.73049426 0.23566321 31.16034056 -4 31 C-4.15521275 24.35284516 -3.60791327 18.12186047 -2.5625 11.5625 C-2.36043945 10.21768555 -2.36043945 10.21768555 -2.15429688 8.84570312 C-1.14000307 2.28000613 -1.14000307 2.28000613 0 0 Z " fill="#FFFFFF" transform="translate(238,3)"/>
<path d="M0 0 C1.32 0 2.64 0 4 0 C4.16589226 6.02741895 3.57114133 11.57494793 2.5 17.5 C2.35691406 18.32242187 2.21382813 19.14484375 2.06640625 19.9921875 C1.71693088 21.99584627 1.35931844 23.99808298 1 26 C1.59893066 25.84644043 2.19786133 25.69288086 2.81494141 25.53466797 C8.34622713 24.14134893 13.30414367 23.81917916 19 24 C18.67 25.32 18.34 26.64 18 28 C15.45953542 28.50688605 12.91791124 29.00566874 10.375 29.5 C9.66214844 29.64308594 8.94929687 29.78617188 8.21484375 29.93359375 C4.07855065 30.73049426 0.23566321 31.16034056 -4 31 C-4.17402788 24.56853493 -3.51411197 18.48088276 -2.5625 12.125 C-2.42779297 11.17625 -2.29308594 10.2275 -2.15429688 9.25 C-1.13519398 2.27038795 -1.13519398 2.27038795 0 0 Z " fill="#FFFFFF" transform="translate(4,3)"/>
<path d="M0 0 C0.99 0.33 1.98 0.66 3 1 C2.67 2.65 2.34 4.3 2 6 C0.35 6 -1.3 6 -3 6 C-2.625 3.5625 -2.625 3.5625 -2 1 C-1.34 0.67 -0.68 0.34 0 0 Z " fill="#FFFFFF" transform="translate(107,1)"/>
<path d="M0 0 C1.32 0 2.64 0 4 0 C3.67 1.65 3.34 3.3 3 5 C1.68 5.33 0.36 5.66 -1 6 C-1.042721 4.33388095 -1.04063832 2.66617115 -1 1 C-0.67 0.67 -0.34 0.34 0 0 Z " fill="#FFFFFF" transform="translate(267,3)"/>
</svg>
