<svg width="332" height="472" viewBox="0 0 332 472" fill="none" xmlns="http://www.w3.org/2000/svg">
<path d="M320.305 470.232C301.024 470.232 301.024 468.96 281.743 468.96C262.462 468.96 262.462 470.735 243.181 470.735C223.9 470.735 223.9 469.278 204.619 469.278C185.338 469.278 185.338 468.96 166.057 468.96C146.776 468.96 146.776 468.456 127.495 468.456C108.214 468.456 108.214 468.721 88.9171 468.721C69.6199 468.721 69.6362 468.933 50.3389 468.933C31.0416 468.933 31.058 471 11.7607 471C6.23316 471 1.8831 462.468 1.8831 453.486C1.8831 422.405 1.2453 422.405 1.2453 391.324C1.2453 360.243 1.14718 360.243 1.14718 329.163C1.14718 298.082 1.09812 298.082 1.09812 266.975C1.09812 235.867 1 235.894 1 204.813C1 173.733 1.16354 173.733 1.16354 142.625C1.16354 111.518 1.93216 111.545 1.93216 80.4374C1.93216 49.3301 1.78497 49.3566 1.78497 18.2494C1.78497 9.29349 6.21681 3.19923 11.7443 3.19923C31.0253 3.19923 31.0253 1.47694 50.3062 1.47694C69.5871 1.47694 69.5872 1.58293 88.8681 1.58293C108.149 1.58293 108.149 2.56331 127.43 2.56331C146.711 2.56331 146.711 1 165.992 1C185.273 1 185.273 2.96076 204.554 2.96076C223.835 2.96076 223.835 2.96076 243.132 2.96076C262.429 2.96076 262.413 2.48382 281.71 2.48382C301.007 2.48382 300.991 1.52994 320.288 1.52994C325.816 1.52994 330.411 9.29349 330.411 18.2759C330.411 49.3566 329.659 49.3566 329.659 80.4374C329.659 111.518 331 111.518 331 142.599C331 173.68 330.313 173.68 330.313 204.787C330.313 235.894 329.806 235.868 329.806 266.948C329.806 298.029 329.986 298.029 329.986 329.136C329.986 360.243 330.379 360.217 330.379 391.324C330.379 422.431 330.984 422.405 330.984 453.512C330.984 462.468 325.816 470.232 320.272 470.232H320.305Z" stroke="#BE094A" stroke-width="2" stroke-miterlimit="10"/>
</svg>
