<svg width="1044" height="1277" viewBox="0 0 1044 1277" fill="none" xmlns="http://www.w3.org/2000/svg">
<mask id="mask0_285_2525" style="mask-type:alpha" maskUnits="userSpaceOnUse" x="0" y="0" width="1044" height="1277">
<rect width="1044" height="1277" fill="#D9D9D9"/>
</mask>
<g mask="url(#mask0_285_2525)">
<line x1="0.549902" y1="-14" x2="0.549902" y2="1290" stroke="#FEF1C3" stroke-opacity="0.5" stroke-width="0.3"/>
<line x1="131.3" y1="-14" x2="131.3" y2="1290" stroke="#FEF1C3" stroke-opacity="0.5"/>
<line x1="261.7" y1="-14" x2="261.7" y2="1290" stroke="#FEF1C3" stroke-opacity="0.5"/>
<line x1="392.1" y1="-14" x2="392.1" y2="1290" stroke="#FEF1C3" stroke-opacity="0.5"/>
<line x1="522.5" y1="-14" x2="522.5" y2="1290" stroke="#FEF1C3" stroke-opacity="0.5"/>
<line x1="652.9" y1="-14" x2="652.9" y2="1290" stroke="#FEF1C3" stroke-opacity="0.5"/>
<line x1="783.3" y1="-14" x2="783.3" y2="1290" stroke="#FEF1C3" stroke-opacity="0.5"/>
<line x1="913.7" y1="-14" x2="913.7" y2="1290" stroke="#FEF1C3" stroke-opacity="0.5"/>
<line x1="1044.1" y1="-14" x2="1044.1" y2="1290" stroke="#FEF1C3" stroke-opacity="0.5"/>
<line x1="-130" y1="118.508" x2="1174" y2="118.508" stroke="#FEF1C3" stroke-opacity="0.5"/>
<line x1="-130" y1="248.908" x2="1174" y2="248.908" stroke="#FEF1C3" stroke-opacity="0.5"/>
<line x1="-130" y1="379.309" x2="1174" y2="379.309" stroke="#FEF1C3" stroke-opacity="0.5"/>
<line x1="-130" y1="509.707" x2="1174" y2="509.707" stroke="#FEF1C3" stroke-opacity="0.5"/>
<line x1="-130" y1="640.107" x2="1174" y2="640.107" stroke="#FEF1C3" stroke-opacity="0.5"/>
<line x1="-130" y1="770.508" x2="1174" y2="770.508" stroke="#FEF1C3" stroke-opacity="0.5"/>
<line x1="-130" y1="900.908" x2="1174" y2="900.908" stroke="#FEF1C3" stroke-opacity="0.5"/>
<line x1="-130" y1="1031.31" x2="1174" y2="1031.31" stroke="#FEF1C3" stroke-opacity="0.5"/>
<line x1="-130" y1="1161.71" x2="1174" y2="1161.71" stroke="#FEF1C3" stroke-opacity="0.5"/>
<line x1="-130" y1="1276.85" x2="1174" y2="1276.85" stroke="#FEF1C3" stroke-opacity="0.5" stroke-width="0.3"/>
<line x1="-130" y1="0.85" x2="1174" y2="0.85" stroke="#FEF1C3" stroke-opacity="0.5" stroke-width="0.3"/>
</g>
</svg>
