<svg width="320" height="346" viewBox="0 0 320 346" fill="none" xmlns="http://www.w3.org/2000/svg">
<line x1="106.92" y1="256.409" x2="107.644" y2="247.456" stroke="white"/>
<line x1="107.861" y1="244.771" x2="108.585" y2="235.818" stroke="white"/>
<line x1="108.803" y1="233.133" x2="109.527" y2="224.18" stroke="white"/>
<line x1="109.742" y1="221.492" x2="110.466" y2="212.539" stroke="white"/>
<line x1="110.685" y1="209.854" x2="111.409" y2="200.901" stroke="white"/>
<line x1="111.627" y1="198.218" x2="112.351" y2="189.265" stroke="white"/>
<line x1="112.567" y1="186.577" x2="113.291" y2="177.624" stroke="white"/>
<line x1="113.509" y1="174.94" x2="114.233" y2="165.987" stroke="white"/>
<line x1="114.45" y1="163.301" x2="115.174" y2="154.349" stroke="white"/>
<line x1="115.392" y1="151.664" x2="116.115" y2="142.711" stroke="white"/>
<line x1="116.331" y1="140.023" x2="117.055" y2="131.07" stroke="white"/>
<line x1="117.274" y1="128.385" x2="117.998" y2="119.433" stroke="white"/>
<line x1="118.215" y1="116.749" x2="118.939" y2="107.796" stroke="white"/>
<line x1="119.155" y1="105.108" x2="119.879" y2="96.1553" stroke="white"/>
<line x1="120.095" y1="93.4665" x2="120.819" y2="84.5137" stroke="white"/>
<line x1="121.037" y1="81.8279" x2="121.76" y2="72.875" stroke="white"/>
<line x1="121.977" y1="70.1892" x2="122.701" y2="61.2363" stroke="white"/>
<line x1="122.917" y1="58.5495" x2="123.641" y2="49.5967" stroke="white"/>
<line x1="245.087" y1="267.583" x2="245.811" y2="258.63" stroke="white"/>
<line x1="246.028" y1="255.945" x2="246.752" y2="246.992" stroke="white"/>
<line x1="246.97" y1="244.306" x2="247.694" y2="235.354" stroke="white"/>
<line x1="247.909" y1="232.666" x2="248.633" y2="223.713" stroke="white"/>
<line x1="248.852" y1="221.028" x2="249.576" y2="212.075" stroke="white"/>
<line x1="249.794" y1="209.391" x2="250.518" y2="200.438" stroke="white"/>
<line x1="250.734" y1="197.751" x2="251.458" y2="188.798" stroke="white"/>
<line x1="251.675" y1="186.112" x2="252.399" y2="177.159" stroke="white"/>
<line x1="252.616" y1="174.474" x2="253.34" y2="165.521" stroke="white"/>
<line x1="253.558" y1="162.836" x2="254.282" y2="153.883" stroke="white"/>
<line x1="254.497" y1="151.195" x2="255.221" y2="142.242" stroke="white"/>
<line x1="255.44" y1="139.558" x2="256.164" y2="130.605" stroke="white"/>
<line x1="256.381" y1="127.92" x2="257.105" y2="118.967" stroke="white"/>
<line x1="257.321" y1="116.28" x2="258.045" y2="107.327" stroke="white"/>
<line x1="258.262" y1="104.639" x2="258.986" y2="95.6865" stroke="white"/>
<line x1="259.204" y1="93.0017" x2="259.928" y2="84.0488" stroke="white"/>
<line x1="260.144" y1="81.362" x2="260.868" y2="72.4092" stroke="white"/>
<line x1="261.084" y1="69.7224" x2="261.808" y2="60.7695" stroke="white"/>
<path d="M269.398 51.4436L256.46 50.4541L255.471 63.3918L268.408 64.3812L269.398 51.4436Z" stroke="white"/>
<path d="M252.892 265.313L239.955 264.323L238.965 277.261L251.903 278.25L252.892 265.313Z" stroke="white"/>
<g clip-path="url(#clip0_413_3704)">
<path d="M130.761 42.0285L117.823 41.0391L116.834 53.9767L129.771 54.9662L130.761 42.0285Z" stroke="white"/>
</g>
<g clip-path="url(#clip1_413_3704)">
<path d="M114.521 254.2L101.578 253.282L100.66 266.225L113.603 267.143L114.521 254.2Z" stroke="white"/>
</g>
<line x1="125.055" y1="46.0817" x2="134.008" y2="46.8079" stroke="white"/>
<line x1="136.692" y1="47.028" x2="145.644" y2="47.7542" stroke="white"/>
<line x1="148.329" y1="47.9723" x2="157.282" y2="48.6986" stroke="white"/>
<line x1="159.969" y1="48.9167" x2="168.922" y2="49.6429" stroke="white"/>
<line x1="171.607" y1="49.863" x2="180.56" y2="50.5892" stroke="white"/>
<line x1="183.245" y1="50.8073" x2="192.197" y2="51.5335" stroke="white"/>
<line x1="194.882" y1="51.7516" x2="203.835" y2="52.4778" stroke="white"/>
<line x1="206.523" y1="52.6921" x2="215.475" y2="53.4183" stroke="white"/>
<line x1="218.16" y1="53.6384" x2="227.112" y2="54.3646" stroke="white"/>
<line x1="229.797" y1="54.5827" x2="238.75" y2="55.3089" stroke="white"/>
<line x1="241.437" y1="55.5261" x2="250.39" y2="56.2523" stroke="white"/>
<line x1="253.078" y1="56.4684" x2="262.031" y2="57.1946" stroke="white"/>
<line x1="107.686" y1="260.187" x2="116.639" y2="260.913" stroke="white"/>
<line x1="119.323" y1="261.133" x2="128.276" y2="261.86" stroke="white"/>
<line x1="130.96" y1="262.078" x2="139.913" y2="262.804" stroke="white"/>
<line x1="142.6" y1="263.022" x2="151.553" y2="263.748" stroke="white"/>
<line x1="154.239" y1="263.966" x2="163.191" y2="264.693" stroke="white"/>
<line x1="165.876" y1="264.911" x2="174.829" y2="265.637" stroke="white"/>
<line x1="177.514" y1="265.855" x2="186.466" y2="266.581" stroke="white"/>
<line x1="189.155" y1="266.797" x2="198.107" y2="267.523" stroke="white"/>
<line x1="200.791" y1="267.744" x2="209.744" y2="268.47" stroke="white"/>
<line x1="212.429" y1="268.687" x2="221.382" y2="269.413" stroke="white"/>
<line x1="224.069" y1="269.63" x2="233.021" y2="270.356" stroke="white"/>
<line x1="235.71" y1="270.574" x2="244.662" y2="271.3" stroke="white"/>
<defs>
<clipPath id="clip0_413_3704">
<rect width="14.0567" height="14.0567" fill="white" transform="translate(117.325 40.459) rotate(4.37343)"/>
</clipPath>
<clipPath id="clip1_413_3704">
<rect width="14.0567" height="14.0567" fill="white" transform="translate(101.077 252.705) rotate(4.05729)"/>
</clipPath>
</defs>
</svg>
