<svg width="102" height="169" viewBox="0 0 102 169" fill="none" xmlns="http://www.w3.org/2000/svg">
<path d="M62.9206 29L63.7901 69.9369C64.1139 85.1857 73.5478 97.4487 85.2788 97.8696L102 98.9998L85.2788 100.13C73.5478 100.551 64.1139 112.814 63.7901 128.063L62.9206 169L62.0507 128.063C61.7269 112.814 52.2934 100.551 40.562 100.13L25 98.9998L40.562 97.8696C52.2934 97.4487 61.7269 85.1857 62.0507 69.9369L62.9206 29Z" fill="black"/>
<path d="M17.2366 0L17.6318 18.714C17.779 25.6849 22.0672 31.2908 27.3994 31.4832L35 31.9999L27.3994 32.5166C22.0672 32.7092 17.779 38.3149 17.6318 45.2858L17.2366 64L16.8412 45.2858C16.694 38.3149 12.4061 32.7092 7.07363 32.5166L0 31.9999L7.07363 31.4832C12.4061 31.2908 16.694 25.6849 16.8412 18.714L17.2366 0Z" fill="black"/>
</svg>
