<svg width="290" height="332" viewBox="0 0 290 332" fill="none" xmlns="http://www.w3.org/2000/svg">
<path d="M207.286 76.8336L194.366 76.043L193.351 86.6759L206.27 87.4665L207.286 76.8336Z" stroke="white"/>
<path d="M190.351 251.462L177.432 250.503L176.417 263.405L189.336 264.365L190.351 251.462Z" stroke="white"/>
<g clip-path="url(#clip0_413_3705)">
<path d="M68.8434 69.3356L55.9242 68.5449L54.9088 79.1778L67.828 79.9685L68.8434 69.3356Z" stroke="white"/>
</g>
<g clip-path="url(#clip1_413_3705)">
<path d="M52.1786 240.673L39.2539 239.785L38.3098 252.693L51.2345 253.581L52.1786 240.673Z" stroke="white"/>
</g>
<line x1="45.5026" y1="246.944" x2="46.3918" y2="238.944" stroke="white"/>
<line x1="184.743" y1="256.057" x2="185.632" y2="248.057" stroke="white"/>
<line y1="-0.5" x2="8.95976" y2="-0.5" transform="matrix(0.997893 0.0648801 -0.100617 0.994925 63.0952 73.0879)" stroke="white"/>
<line y1="-0.5" x2="8.95976" y2="-0.5" transform="matrix(0.997893 0.0648801 -0.100617 0.994925 74.7153 73.8447)" stroke="white"/>
<line y1="-0.5" x2="8.95976" y2="-0.5" transform="matrix(0.997893 0.0648801 -0.100617 0.994925 86.3359 74.6006)" stroke="white"/>
<line y1="-0.5" x2="8.95976" y2="-0.5" transform="matrix(0.997893 0.0648801 -0.100617 0.994925 97.9594 75.3584)" stroke="white"/>
<line y1="-0.5" x2="8.95976" y2="-0.5" transform="matrix(0.997893 0.0648801 -0.100617 0.994925 109.581 76.1152)" stroke="white"/>
<line y1="-0.5" x2="8.95976" y2="-0.5" transform="matrix(0.997893 0.0648801 -0.100617 0.994925 121.201 76.8701)" stroke="white"/>
<line y1="-0.5" x2="8.95976" y2="-0.5" transform="matrix(0.997893 0.0648801 -0.100617 0.994925 132.822 77.626)" stroke="white"/>
<line y1="-0.5" x2="8.95976" y2="-0.5" transform="matrix(0.997893 0.0648801 -0.100617 0.994925 144.446 78.3779)" stroke="white"/>
<line y1="-0.5" x2="8.95976" y2="-0.5" transform="matrix(0.997893 0.0648801 -0.100617 0.994925 156.067 79.1357)" stroke="white"/>
<line y1="-0.5" x2="8.95976" y2="-0.5" transform="matrix(0.997893 0.0648801 -0.100617 0.994925 167.687 79.8916)" stroke="white"/>
<line y1="-0.5" x2="8.95976" y2="-0.5" transform="matrix(0.997893 0.0648801 -0.100617 0.994925 179.311 80.6465)" stroke="white"/>
<line y1="-0.5" x2="8.95976" y2="-0.5" transform="matrix(0.997893 0.0648801 -0.100617 0.994925 190.934 81.4023)" stroke="white"/>
<line y1="-0.5" x2="9.07942" y2="-0.5" transform="matrix(0.097928 -0.995193 -0.991043 -0.133543 48.233 213.131)" stroke="white"/>
<line y1="-0.5" x2="9.07942" y2="-0.5" transform="matrix(0.097928 -0.995193 -0.991043 -0.133543 46 236.787)" stroke="white"/>
<line y1="-0.5" x2="9.07942" y2="-0.5" transform="matrix(0.097928 -0.995193 -0.991043 -0.133543 49.3245 201.379)" stroke="white"/>
<line y1="-0.5" x2="9.07942" y2="-0.5" transform="matrix(0.097928 -0.995193 -0.991043 -0.133543 47.0914 225.035)" stroke="white"/>
<line y1="-0.5" x2="9.07942" y2="-0.5" transform="matrix(0.097928 -0.995193 -0.991043 -0.133543 50.4574 189.632)" stroke="white"/>
<line y1="-0.5" x2="9.07942" y2="-0.5" transform="matrix(0.097928 -0.995193 -0.991043 -0.133543 51.5532 177.877)" stroke="white"/>
<line y1="-0.5" x2="9.07942" y2="-0.5" transform="matrix(0.097928 -0.995193 -0.991043 -0.133543 187.473 222.244)" stroke="white"/>
<line y1="-0.5" x2="9.07942" y2="-0.5" transform="matrix(0.097928 -0.995193 -0.991043 -0.133543 185.24 245.9)" stroke="white"/>
<line y1="-0.5" x2="9.07942" y2="-0.5" transform="matrix(0.097928 -0.995193 -0.991043 -0.133543 188.565 210.492)" stroke="white"/>
<line y1="-0.5" x2="9.07942" y2="-0.5" transform="matrix(0.097928 -0.995193 -0.991043 -0.133543 186.332 234.148)" stroke="white"/>
<line y1="-0.5" x2="9.07942" y2="-0.5" transform="matrix(0.097928 -0.995193 -0.991043 -0.133543 189.698 198.745)" stroke="white"/>
<line y1="-0.5" x2="9.07942" y2="-0.5" transform="matrix(0.097928 -0.995193 -0.991043 -0.133543 190.794 186.99)" stroke="white"/>
<line y1="-0.5" x2="9.07942" y2="-0.5" transform="matrix(0.0979286 -0.995193 -0.991043 -0.133543 52.6653 166.127)" stroke="white"/>
<line y1="-0.5" x2="9.07942" y2="-0.5" transform="matrix(0.0979286 -0.995193 -0.991043 -0.133543 53.8347 154.385)" stroke="white"/>
<line y1="-0.5" x2="9.07942" y2="-0.5" transform="matrix(0.0979286 -0.995193 -0.991043 -0.133543 54.9677 142.637)" stroke="white"/>
<line y1="-0.5" x2="9.07942" y2="-0.5" transform="matrix(0.0979286 -0.995193 -0.991043 -0.133543 56.2928 130.913)" stroke="white"/>
<line y1="-0.5" x2="9.07942" y2="-0.5" transform="matrix(0.0979286 -0.995193 -0.991043 -0.133543 57.3475 119.154)" stroke="white"/>
<line y1="-0.5" x2="9.07942" y2="-0.5" transform="matrix(0.0979286 -0.995193 -0.991043 -0.133543 58.4755 107.407)" stroke="white"/>
<line y1="-0.5" x2="9.07942" y2="-0.5" transform="matrix(0.0979286 -0.995193 -0.991043 -0.133543 59.6912 95.6689)" stroke="white"/>
<line y1="-0.5" x2="9.07942" y2="-0.5" transform="matrix(0.0979286 -0.995193 -0.991043 -0.133543 191.906 175.24)" stroke="white"/>
<line y1="-0.5" x2="9.07942" y2="-0.5" transform="matrix(0.0979286 -0.995193 -0.991043 -0.133543 193.075 163.498)" stroke="white"/>
<line y1="-0.5" x2="9.07942" y2="-0.5" transform="matrix(0.0979286 -0.995193 -0.991043 -0.133543 194.208 151.75)" stroke="white"/>
<line y1="-0.5" x2="9.07942" y2="-0.5" transform="matrix(0.0979286 -0.995193 -0.991043 -0.133543 195.533 140.026)" stroke="white"/>
<line y1="-0.5" x2="9.07942" y2="-0.5" transform="matrix(0.0979286 -0.995193 -0.991043 -0.133543 196.588 128.268)" stroke="white"/>
<line y1="-0.5" x2="9.07942" y2="-0.5" transform="matrix(0.0979286 -0.995193 -0.991043 -0.133543 197.716 116.521)" stroke="white"/>
<line y1="-0.5" x2="9.07942" y2="-0.5" transform="matrix(0.0979286 -0.995193 -0.991043 -0.133543 198.932 104.782)" stroke="white"/>
<line y1="-0.5" x2="9.07942" y2="-0.5" transform="matrix(0.0979283 -0.995193 -0.991043 -0.133543 60.8551 83.9229)" stroke="white"/>
<line y1="-0.5" x2="9.07942" y2="-0.5" transform="matrix(0.0979283 -0.995193 -0.991043 -0.133543 200.095 93.0371)" stroke="white"/>
<line y1="-0.5" x2="8.95976" y2="-0.5" transform="matrix(0.997893 0.0648801 -0.100617 0.994925 45.2985 249.053)" stroke="white"/>
<line y1="-0.5" x2="8.95976" y2="-0.5" transform="matrix(0.997893 0.0648801 -0.100617 0.994925 56.9187 249.81)" stroke="white"/>
<line y1="-0.5" x2="8.95976" y2="-0.5" transform="matrix(0.997893 0.0648801 -0.100617 0.994925 68.5394 250.565)" stroke="white"/>
<line y1="-0.5" x2="8.95976" y2="-0.5" transform="matrix(0.997893 0.0648801 -0.100617 0.994925 80.1627 251.323)" stroke="white"/>
<line y1="-0.5" x2="8.95976" y2="-0.5" transform="matrix(0.997893 0.0648801 -0.100617 0.994925 91.7842 252.081)" stroke="white"/>
<line y1="-0.5" x2="8.95976" y2="-0.5" transform="matrix(0.997893 0.0648801 -0.100617 0.994925 103.405 252.835)" stroke="white"/>
<line y1="-0.5" x2="8.95976" y2="-0.5" transform="matrix(0.997893 0.0648801 -0.100617 0.994925 115.025 253.592)" stroke="white"/>
<line y1="-0.5" x2="8.95976" y2="-0.5" transform="matrix(0.997893 0.0648801 -0.100617 0.994925 126.65 254.344)" stroke="white"/>
<line y1="-0.5" x2="8.95976" y2="-0.5" transform="matrix(0.997893 0.0648801 -0.100617 0.994925 138.27 255.103)" stroke="white"/>
<line y1="-0.5" x2="8.95976" y2="-0.5" transform="matrix(0.997893 0.0648801 -0.100617 0.994925 149.891 255.857)" stroke="white"/>
<line y1="-0.5" x2="8.95976" y2="-0.5" transform="matrix(0.997893 0.0648801 -0.100617 0.994925 161.514 256.612)" stroke="white"/>
<line y1="-0.5" x2="8.95976" y2="-0.5" transform="matrix(0.997893 0.0648801 -0.100617 0.994925 173.139 257.368)" stroke="white"/>
<defs>
<clipPath id="clip0_413_3705">
<rect width="14.022" height="11.5714" fill="white" transform="matrix(0.998132 0.0610861 -0.0950636 0.995471 55.4282 68.0693)"/>
</clipPath>
<clipPath id="clip1_413_3705">
<rect width="14.0347" height="14.0206" fill="white" transform="matrix(0.997647 0.0685616 -0.0729481 0.997336 38.7548 239.21)"/>
</clipPath>
</defs>
</svg>
