<svg width="141" height="180" viewBox="0 0 141 180" fill="none" xmlns="http://www.w3.org/2000/svg">
<rect width="10" height="10" transform="translate(10 20)" fill="black"/>
<rect width="10" height="10" transform="translate(10)" fill="black"/>
<rect width="10" height="10" transform="translate(10 50)" fill="black"/>
<rect width="10" height="10" transform="translate(20 20)" fill="white"/>
<rect width="10" height="10" transform="translate(20 10)" fill="white"/>
<rect width="10" height="10" transform="translate(20 50)" fill="white"/>
<rect width="10" height="10" transform="translate(40 20)" fill="black"/>
<rect width="10" height="10" transform="translate(30 50)" fill="white"/>
<rect width="10" height="10" transform="translate(40 50)" fill="white"/>
<rect width="10" height="10" transform="translate(10 30)" fill="black"/>
<rect width="10" height="10" transform="translate(10 10)" fill="black"/>
<rect width="10" height="10" transform="translate(10 60)" fill="black"/>
<rect width="10" height="10" transform="translate(20 30)" fill="white"/>
<rect width="10" height="10" transform="translate(30 10)" fill="black"/>
<rect width="10" height="10" transform="translate(20)" fill="black"/>
<rect width="10" height="10" transform="translate(20 60)" fill="white"/>
<rect width="10" height="10" transform="translate(30 30)" fill="white"/>
<rect width="10" height="10" transform="translate(30 20)" fill="white"/>
<rect width="10" height="10" transform="translate(30 60)" fill="white"/>
<rect width="10" height="10" transform="translate(50 30)" fill="black"/>
<rect width="10" height="10" transform="translate(40 60)" fill="white"/>
<rect width="10" height="10" transform="translate(10 40)" fill="black"/>
<rect width="10" height="10" transform="translate(10 70)" fill="black"/>
<rect width="10" height="10" transform="translate(20 40)" fill="white"/>
<rect width="10" height="10" transform="translate(20 70)" fill="white"/>
<rect width="10" height="10" transform="translate(30 40)" fill="white"/>
<rect width="10" height="10" transform="translate(30 70)" fill="white"/>
<rect width="10" height="10" transform="translate(40 40)" fill="white"/>
<rect width="10" height="10" transform="translate(40 30)" fill="white"/>
<rect width="10" height="10" transform="translate(40 70)" fill="white"/>
<rect width="10" height="10" transform="translate(90 70)" fill="black"/>
<rect width="10" height="10" transform="translate(50 50)" fill="white"/>
<rect width="10" height="10" transform="translate(50 40)" fill="white"/>
<rect width="10" height="10" transform="translate(70 50)" fill="black"/>
<rect width="10" height="10" transform="translate(50 60)" fill="white"/>
<rect width="10" height="10" transform="translate(60 60)" fill="white"/>
<rect width="10" height="10" transform="translate(60 50)" fill="white"/>
<rect width="10" height="10" transform="translate(80 60)" fill="black"/>
<rect width="10" height="10" transform="translate(60 40)" fill="black"/>
<rect width="10" height="10" transform="translate(50 70)" fill="white"/>
<rect width="10" height="10" transform="translate(60 70)" fill="white"/>
<rect width="10" height="10" transform="translate(70 70)" fill="white"/>
<rect width="10" height="10" transform="translate(70 60)" fill="white"/>
<rect width="10" height="10" transform="translate(80 80)" fill="white"/>
<rect width="10" height="10" transform="translate(90 90)" fill="white"/>
<rect width="10" height="10" transform="translate(90 100)" fill="white"/>
<rect width="10" height="10" transform="translate(90 80)" fill="white"/>
<rect width="10" height="10" transform="translate(100 90)" fill="white"/>
<rect width="10" height="10" transform="translate(100 100)" fill="white"/>
<rect width="10" height="10" transform="translate(110 100)" fill="white"/>
<rect width="10" height="10" transform="translate(80 70)" fill="white"/>
<rect width="10" height="10" transform="translate(50 120)" fill="black"/>
<rect width="10" height="10" transform="translate(50 80)" fill="white"/>
<rect width="10" height="10" transform="translate(60 90)" fill="white"/>
<rect width="10" height="10" transform="translate(60 100)" fill="white"/>
<rect width="10" height="10" transform="translate(60 110)" fill="white"/>
<rect width="10" height="10" transform="translate(70 130)" fill="white"/>
<rect width="10" height="10" transform="translate(80 150)" fill="white"/>
<rect width="10" height="10" transform="translate(60 120)" fill="white"/>
<rect width="10" height="10" transform="translate(70 140)" fill="white"/>
<rect width="10" height="10" transform="translate(80 160)" fill="white"/>
<rect width="10" height="10" transform="translate(60 80)" fill="white"/>
<rect width="10" height="10" transform="translate(70 90)" fill="white"/>
<rect width="10" height="10" transform="translate(70 100)" fill="white"/>
<rect width="10" height="10" transform="translate(70 110)" fill="white"/>
<rect width="10" height="10" transform="translate(80 130)" fill="white"/>
<rect width="10" height="10" transform="translate(90 150)" fill="white"/>
<rect width="10" height="10" transform="translate(70 120)" fill="white"/>
<rect width="10" height="10" transform="translate(80 140)" fill="white"/>
<rect width="10" height="10" transform="translate(90 160)" fill="white"/>
<rect width="10" height="10" transform="translate(70 80)" fill="white"/>
<rect width="10" height="10" transform="translate(80 90)" fill="white"/>
<rect width="10" height="10" transform="translate(80 100)" fill="white"/>
<rect width="10" height="10" transform="translate(100 80)" fill="black"/>
<rect width="10" height="10" transform="translate(50 90)" fill="white"/>
<rect width="10" height="10" transform="translate(50 100)" fill="white"/>
<rect width="10" height="10" transform="translate(50 110)" fill="white"/>
<rect width="10" height="10" transform="translate(10 100)" fill="black"/>
<rect width="10" height="10" transform="translate(10 80)" fill="black"/>
<rect width="10" height="10" transform="translate(10 150)" fill="black"/>
<rect width="10" height="10" transform="translate(20 100)" fill="white"/>
<rect width="10" height="10" transform="translate(20 80)" fill="white"/>
<rect width="10" height="10" transform="translate(20 150)" fill="black"/>
<rect width="10" height="10" transform="translate(30 100)" fill="white"/>
<rect width="10" height="10" transform="translate(30 80)" fill="white"/>
<rect width="10" height="10" transform="translate(40 100)" fill="white"/>
<rect width="10" height="10" transform="translate(40 110)" fill="white"/>
<rect width="10" height="10" transform="translate(40 120)" fill="white"/>
<rect width="10" height="10" transform="translate(40 80)" fill="white"/>
<rect width="10" height="10" transform="translate(10 110)" fill="black"/>
<rect width="10" height="10" transform="translate(10 130)" fill="black"/>
<rect width="10" height="10" transform="translate(10 90)" fill="black"/>
<rect width="10" height="10" transform="translate(20 110)" fill="white"/>
<rect width="10" height="10" transform="translate(20 90)" fill="white"/>
<rect width="10" height="10" transform="translate(30 110)" fill="white"/>
<rect width="10" height="10" transform="translate(30 120)" fill="white"/>
<rect width="10" height="10" transform="translate(30 130)" fill="white"/>
<rect width="10" height="10" transform="translate(30 90)" fill="white"/>
<rect width="10" height="10" transform="translate(40 130)" fill="black"/>
<rect width="10" height="10" transform="translate(40 90)" fill="white"/>
<rect width="10" height="10" transform="translate(10 120)" fill="black"/>
<rect width="10" height="10" transform="translate(10 140)" fill="black"/>
<rect width="10" height="10" transform="translate(20 120)" fill="white"/>
<rect width="10" height="10" transform="translate(20 130)" fill="white"/>
<rect width="10" height="10" transform="translate(20 140)" fill="white"/>
<rect width="10" height="10" transform="translate(30 140)" fill="black"/>
<rect width="10" height="10" transform="translate(100 110)" fill="black"/>
<rect width="10" height="10" transform="translate(90 170)" fill="black"/>
<rect width="10" height="10" transform="translate(80 110)" fill="black"/>
<rect width="10" height="10" transform="translate(90 130)" fill="black"/>
<rect width="10" height="10" transform="translate(60 130)" fill="black"/>
<rect width="10" height="10" transform="translate(100 150)" fill="black"/>
<rect width="10" height="10" transform="translate(70 150)" fill="black"/>
<rect width="10" height="10" transform="translate(80 120)" fill="black"/>
<rect width="10" height="10" transform="translate(90 140)" fill="black"/>
<rect width="10" height="10" transform="translate(60 140)" fill="black"/>
<rect width="10" height="10" transform="translate(100 160)" fill="black"/>
<rect width="10" height="10" transform="translate(70 160)" fill="black"/>
<rect width="10" height="10" transform="translate(90 110)" fill="black"/>
<rect width="10" height="10" transform="translate(80 170)" fill="black"/>
<rect width="10" height="10" transform="translate(110 110)" fill="black"/>
<rect width="10" height="10" transform="translate(110 90)" fill="black"/>
<rect width="10" height="10" transform="translate(120 100)" fill="black"/>
<rect width="10" height="10" transform="translate(120 110)" fill="black"/>
</svg>
