<svg width="513" height="661" viewBox="0 0 513 661" fill="none" xmlns="http://www.w3.org/2000/svg">
<path d="M2.83217 637.707C2.83217 599.32 4.20958 599.32 4.20958 560.934C4.20958 522.547 2.28704 522.547 2.28704 484.16C2.28704 445.774 3.86521 445.774 3.86521 407.387C3.86521 369.001 4.20959 369.001 4.20959 330.614C4.20959 292.227 4.75478 292.227 4.75479 253.841C4.75479 215.454 4.46781 215.454 4.46781 177.035C4.46782 138.616 4.2383 138.648 4.23831 100.229C4.23831 61.8101 2.00003 61.8427 2.00003 23.4235C2.00003 12.4187 11.24 3.75814 20.9678 3.75814C54.6275 3.75814 54.6275 2.48836 88.2873 2.48836C121.947 2.48836 121.947 2.29301 155.607 2.29301C189.267 2.29301 189.267 2.19534 222.955 2.19534C256.643 2.19534 256.615 1.99999 290.275 1.99999C323.934 1.99999 323.934 2.32558 357.623 2.32558C391.311 2.32558 391.283 3.85584 424.971 3.85584C458.659 3.85584 458.631 3.56281 492.319 3.56281C502.018 3.56281 508.618 12.3862 508.618 23.391C508.618 61.7776 510.483 61.7776 510.483 100.164C510.483 138.551 510.369 138.551 510.369 176.937C510.369 215.324 509.307 215.324 509.307 253.711C509.307 292.097 511 292.097 511 330.484C511 368.87 508.877 368.87 508.877 407.257C508.877 445.644 508.877 445.644 508.877 484.063C508.877 522.482 509.393 522.449 509.393 560.868C509.393 599.288 510.426 599.255 510.426 637.674C510.426 648.679 502.018 657.828 492.291 657.828C458.631 657.828 458.631 656.33 424.971 656.33C391.311 656.33 391.311 659 357.651 659C323.992 659 323.992 657.633 290.303 657.633C256.615 657.633 256.643 656.623 222.984 656.623C189.324 656.623 189.324 656.981 155.636 656.981C121.947 656.981 121.976 657.763 88.2873 657.763C54.5988 657.763 54.6275 658.967 20.939 658.967C11.24 658.967 2.83217 648.679 2.83217 637.642L2.83217 637.707Z" stroke="#BE094A" stroke-width="3" stroke-miterlimit="10"/>
</svg>
