<svg width="525" height="75" viewBox="0 0 525 75" fill="none" xmlns="http://www.w3.org/2000/svg">
<path d="M16.198 63.3H39.198L37.298 74H0.198047L12.598 4.2H26.598L16.198 63.3ZM80.2965 17.7C87.3632 17.7 92.9632 19.6667 97.0965 23.6C101.23 27.4667 103.296 32.7 103.296 39.3C103.296 41.4333 103.13 43.3333 102.796 45C102.396 47 101.963 48.7333 101.496 50.2H60.9965C60.9298 50.6667 60.8965 51.3333 60.8965 52.2C60.8965 55.6667 61.8965 58.4 63.8965 60.4C65.9632 62.3333 68.6632 63.3 71.9965 63.3C74.7965 63.3 77.1965 62.7 79.1965 61.5C81.2632 60.2333 82.9298 58.6 84.1965 56.6H99.2965C96.8298 61.9333 92.9965 66.3333 87.7965 69.8C82.6632 73.2 76.8298 74.9 70.2965 74.9C63.2298 74.9 57.5632 72.9 53.2965 68.9C49.0298 64.9 46.8965 59.4667 46.8965 52.6C46.8965 50.6 47.0965 48.5 47.4965 46.3C48.4965 40.5667 50.5298 35.5333 53.5965 31.2C56.7298 26.8667 60.5965 23.5333 65.1965 21.2C69.7965 18.8667 74.8298 17.7 80.2965 17.7ZM88.8965 41.7C89.0298 40.6333 89.0965 39.8667 89.0965 39.4C89.0965 36.2 88.0632 33.7 85.9965 31.9C83.9298 30.1 81.2298 29.2 77.8965 29.2C74.3632 29.2 71.1965 30.3333 68.3965 32.6C65.5965 34.8 63.6298 37.8333 62.4965 41.7H88.8965ZM127.215 56.9C127.149 57.3 127.115 57.8333 127.115 58.5C127.115 59.8333 127.482 60.8 128.215 61.4C129.015 61.9333 130.315 62.2 132.115 62.2H138.715L136.615 74H127.715C117.715 74 112.715 69.8333 112.715 61.5C112.715 59.9 112.849 58.3333 113.115 56.8L117.815 30.1H111.215L113.215 18.6H119.915L122.315 4.9H136.415L134.015 18.6H146.315L144.315 30.1H131.915L127.215 56.9ZM163.285 4.2H177.985L162.785 29.4H153.085L163.285 4.2ZM195.824 74.9C191.757 74.9 188.057 74.2333 184.724 72.9C181.457 71.5 178.857 69.6 176.924 67.2C175.057 64.7333 174.124 61.9333 174.124 58.8C174.124 58.3333 174.19 57.5667 174.324 56.5H187.924C187.724 58.8333 188.424 60.7333 190.024 62.2C191.624 63.6 193.89 64.3 196.824 64.3C199.49 64.3 201.69 63.8333 203.424 62.9C205.224 61.9 206.124 60.4667 206.124 58.6C206.124 56.9333 205.29 55.6 203.624 54.6C202.024 53.6 199.457 52.4667 195.924 51.2C192.39 49.9333 189.457 48.7 187.124 47.5C184.79 46.3 182.79 44.6333 181.124 42.5C179.457 40.3667 178.624 37.6667 178.624 34.4C178.624 31.1333 179.557 28.2333 181.424 25.7C183.357 23.1667 186.024 21.2 189.424 19.8C192.824 18.4 196.724 17.7 201.124 17.7C205.324 17.7 209.024 18.4 212.224 19.8C215.424 21.2 217.89 23.1667 219.624 25.7C221.424 28.1667 222.324 31 222.324 34.2C222.324 35 222.29 35.6 222.224 36H209.224C209.424 33.6667 208.757 31.8 207.224 30.4C205.69 29 203.457 28.3 200.524 28.3C198.124 28.3 196.157 28.8333 194.624 29.9C193.09 30.9 192.324 32.2667 192.324 34C192.324 35.7333 193.19 37.1667 194.924 38.3C196.657 39.3667 199.324 40.5667 202.924 41.9C206.524 43.3 209.39 44.6 211.524 45.8C213.724 46.9333 215.624 48.5333 217.224 50.6C218.824 52.6 219.624 55.1333 219.624 58.2C219.624 61.6 218.59 64.5667 216.524 67.1C214.457 69.6333 211.624 71.5667 208.024 72.9C204.424 74.2333 200.357 74.9 195.824 74.9ZM342.032 4.2L340.032 15.2H321.532L311.132 74H297.032L307.432 15.2H288.832L290.832 4.2H342.032ZM341.246 46.1C342.246 40.5 344.213 35.5333 347.146 31.2C350.146 26.8667 353.78 23.5333 358.046 21.2C362.313 18.8667 366.813 17.7 371.546 17.7C375.68 17.7 379.146 18.5333 381.946 20.2C384.813 21.8667 386.913 23.9667 388.246 26.5L389.646 18.6H403.746L393.946 74H379.846L381.346 65.9C379.146 68.5 376.28 70.6667 372.746 72.4C369.28 74.0667 365.48 74.9 361.346 74.9C357.28 74.9 353.68 74 350.546 72.2C347.413 70.3333 344.98 67.7333 343.246 64.4C341.513 61 340.646 57.0667 340.646 52.6C340.646 50.5333 340.846 48.3667 341.246 46.1ZM384.746 46.3C385.013 44.5667 385.146 43.3 385.146 42.5C385.146 38.5667 383.98 35.5 381.646 33.3C379.38 31.1 376.513 30 373.046 30C370.446 30 367.913 30.6333 365.446 31.9C363.046 33.1667 360.946 35.0333 359.146 37.5C357.346 39.9 356.146 42.7667 355.546 46.1C355.346 47.3667 355.246 48.5667 355.246 49.7C355.246 53.7 356.38 56.8667 358.646 59.2C360.913 61.4667 363.78 62.6 367.246 62.6C369.846 62.6 372.38 61.9667 374.846 60.7C377.313 59.3667 379.413 57.4667 381.146 55C382.946 52.5333 384.146 49.6333 384.746 46.3ZM434.82 -9.53674e-07L421.72 74H407.62L420.72 -9.53674e-07H434.82ZM466.852 46.3L486.452 74H468.352L453.752 50.5L449.552 74H435.452L448.552 -9.53674e-07H462.652L455.252 42L477.852 18.6H496.152L466.852 46.3ZM524.55 3L514.45 51.3H502.55L509.45 3H524.55ZM504.65 74.7C502.45 74.7 500.684 74.0667 499.35 72.8C498.017 71.5333 497.35 69.9333 497.35 68C497.35 65.3333 498.35 63.0667 500.35 61.2C502.417 59.2667 504.817 58.3 507.55 58.3C509.75 58.3 511.484 58.9333 512.75 60.2C514.084 61.4 514.75 63 514.75 65C514.75 67.6667 513.75 69.9667 511.75 71.9C509.75 73.7667 507.384 74.7 504.65 74.7Z" fill="white" fill-opacity="0.2"/>
</svg>
