<svg width="109" height="264" viewBox="0 0 109 264" fill="none" xmlns="http://www.w3.org/2000/svg">
<g clip-path="url(#clip0_413_3174)">
<path d="M13.3578 0.53418L0.534302 0.53418L0.534302 13.3577H13.3578V0.53418Z" stroke="white"/>
</g>
<g clip-path="url(#clip1_413_3174)">
<path d="M13.3578 250.593H0.534302L0.534302 263.416H13.3578V250.593Z" stroke="white"/>
</g>
<g clip-path="url(#clip2_413_3174)">
<path d="M108.466 0.53418L95.6421 0.53418V13.3577H108.466V0.53418Z" stroke="white"/>
</g>
<g clip-path="url(#clip3_413_3174)">
<path d="M108.466 250.593H95.6421V263.416H108.466V250.593Z" stroke="white"/>
</g>
<line x1="8.54907" y1="6.98047" x2="19.2353" y2="6.98047" stroke="white"/>
<line x1="22.4413" y1="6.98047" x2="33.1276" y2="6.98047" stroke="white"/>
<line x1="36.3334" y1="6.98047" x2="47.0196" y2="6.98047" stroke="white"/>
<line x1="50.2256" y1="6.98047" x2="60.9119" y2="6.98047" stroke="white"/>
<line x1="64.1177" y1="6.98047" x2="74.8039" y2="6.98047" stroke="white"/>
<line x1="78.0099" y1="6.98047" x2="88.6962" y2="6.98047" stroke="white"/>
<line x1="91.902" y1="6.98047" x2="102.588" y2="6.98047" stroke="white"/>
<line x1="8.54907" y1="257.039" x2="19.2353" y2="257.039" stroke="white"/>
<line x1="22.4413" y1="257.039" x2="33.1276" y2="257.039" stroke="white"/>
<line x1="36.3334" y1="257.039" x2="47.0196" y2="257.039" stroke="white"/>
<line x1="50.2256" y1="257.039" x2="60.9119" y2="257.039" stroke="white"/>
<line x1="64.1177" y1="257.039" x2="74.8039" y2="257.039" stroke="white"/>
<line x1="78.0099" y1="257.039" x2="88.6962" y2="257.039" stroke="white"/>
<line x1="91.902" y1="257.039" x2="102.588" y2="257.039" stroke="white"/>
<line x1="6.98035" y1="255.401" x2="6.98035" y2="244.715" stroke="white"/>
<line x1="6.98035" y1="241.509" x2="6.98035" y2="230.823" stroke="white"/>
<line x1="6.98035" y1="227.617" x2="6.98035" y2="216.931" stroke="white"/>
<line x1="6.98035" y1="213.725" x2="6.98035" y2="203.038" stroke="white"/>
<line x1="6.98035" y1="199.833" x2="6.98035" y2="189.147" stroke="white"/>
<line x1="6.98035" y1="185.94" x2="6.98035" y2="175.254" stroke="white"/>
<line x1="6.98035" y1="172.049" x2="6.98035" y2="161.363" stroke="white"/>
<line x1="6.98035" y1="158.157" x2="6.98035" y2="147.471" stroke="white"/>
<line x1="6.98035" y1="144.265" x2="6.98035" y2="133.578" stroke="white"/>
<line x1="6.98035" y1="130.373" x2="6.98035" y2="119.687" stroke="white"/>
<line x1="6.98035" y1="116.48" x2="6.98035" y2="105.794" stroke="white"/>
<line x1="6.98035" y1="102.589" x2="6.98035" y2="91.9026" stroke="white"/>
<line x1="6.98035" y1="88.6963" x2="6.98035" y2="78.01" stroke="white"/>
<line x1="6.98035" y1="74.8047" x2="6.98035" y2="64.1184" stroke="white"/>
<line x1="6.98035" y1="60.9111" x2="6.98035" y2="50.2249" stroke="white"/>
<line x1="6.98035" y1="47.0186" x2="6.98035" y2="36.3323" stroke="white"/>
<line x1="6.98035" y1="33.127" x2="6.98035" y2="22.4407" stroke="white"/>
<line x1="6.98035" y1="19.2344" x2="6.98035" y2="8.5481" stroke="white"/>
<line x1="103.157" y1="255.401" x2="103.157" y2="244.715" stroke="white"/>
<line x1="103.157" y1="241.509" x2="103.157" y2="230.823" stroke="white"/>
<line x1="103.157" y1="227.617" x2="103.157" y2="216.931" stroke="white"/>
<line x1="103.157" y1="213.725" x2="103.157" y2="203.038" stroke="white"/>
<line x1="103.157" y1="199.833" x2="103.157" y2="189.147" stroke="white"/>
<line x1="103.157" y1="185.94" x2="103.157" y2="175.254" stroke="white"/>
<line x1="103.157" y1="172.049" x2="103.157" y2="161.363" stroke="white"/>
<line x1="103.157" y1="158.157" x2="103.157" y2="147.471" stroke="white"/>
<line x1="103.157" y1="144.265" x2="103.157" y2="133.578" stroke="white"/>
<line x1="103.157" y1="130.373" x2="103.157" y2="119.687" stroke="white"/>
<line x1="103.157" y1="116.48" x2="103.157" y2="105.794" stroke="white"/>
<line x1="103.157" y1="102.589" x2="103.157" y2="91.9026" stroke="white"/>
<line x1="103.157" y1="88.6963" x2="103.157" y2="78.01" stroke="white"/>
<line x1="103.157" y1="74.8047" x2="103.157" y2="64.1184" stroke="white"/>
<line x1="103.157" y1="60.9111" x2="103.157" y2="50.2249" stroke="white"/>
<line x1="103.157" y1="47.0186" x2="103.157" y2="36.3323" stroke="white"/>
<line x1="103.157" y1="33.127" x2="103.157" y2="22.4407" stroke="white"/>
<line x1="103.157" y1="19.2344" x2="103.157" y2="8.5481" stroke="white"/>
<defs>
<clipPath id="clip0_413_3174">
<rect width="13.8922" height="13.8922" fill="white"/>
</clipPath>
<clipPath id="clip1_413_3174">
<rect width="13.8922" height="13.8922" fill="white" transform="translate(0 250.059)"/>
</clipPath>
<clipPath id="clip2_413_3174">
<rect width="13.8922" height="13.8922" fill="white" transform="translate(95.1078)"/>
</clipPath>
<clipPath id="clip3_413_3174">
<rect width="13.8922" height="13.8922" fill="white" transform="translate(95.1078 250.059)"/>
</clipPath>
</defs>
</svg>
